<?xml version="1.0" standalone="yes"?>

<svg version="1.1" viewBox="0.0 0.0 100.0 151.0" fill="none" stroke="none" stroke-linecap="square" stroke-miterlimit="10" xmlns="http://www.w3.org/2000/svg" xmlns:xlink="http://www.w3.org/1999/xlink"><clipPath id="p.0"><path d="m0 0l100.0 0l0 151.0l-100.0 0l0 -151.0z" clip-rule="nonzero"></path></clipPath><g clip-path="url(#p.0)"><path fill="#000000" fill-opacity="0.0" d="m0 0l100.0 0l0 151.55905l-100.0 0z" fill-rule="nonzero"></path><path fill="#ffffff" d="m36.045082 7.561927l0 0c0 -1.1915674 0.96595764 -2.1575236 2.157524 -2.1575236l22.897552 0c0.5722122 0 1.1209869 0.2273097 1.5256004 0.63192415c0.4046135 0.40461397 0.6319237 0.9533882 0.6319237 1.5255995l0 8.629834c0 1.1915684 -0.96595764 2.157524 -2.157524 2.157524l-22.897552 0c-1.1915665 0 -2.157524 -0.96595573 -2.157524 -2.157524z" fill-rule="nonzero"></path><path stroke="#000000" stroke-width="2.0" stroke-linejoin="round" stroke-linecap="butt" d="m36.045082 7.561927l0 0c0 -1.1915674 0.96595764 -2.1575236 2.157524 -2.1575236l22.897552 0c0.5722122 0 1.1209869 0.2273097 1.5256004 0.63192415c0.4046135 0.40461397 0.6319237 0.9533882 0.6319237 1.5255995l0 8.629834c0 1.1915684 -0.96595764 2.157524 -2.157524 2.157524l-22.897552 0c-1.1915665 0 -2.157524 -0.96595573 -2.157524 -2.157524z" fill-rule="nonzero"></path><path fill="#ffffff" d="m26.0 19.53953l0 0c0 -4.4183664 3.5817928 -8.000159 8.00016 -8.000159l31.99968 0l0 0c2.1217728 0 4.1566467 0.8428707 5.656967 2.343192c1.5003204 1.5003214 2.343193 3.5351925 2.343193 5.656967l0 118.61385c0 4.4183655 -3.5817947 8.000168 -8.00016 8.000168l-31.99968 0c-4.4183674 0 -8.00016 -3.5818024 -8.00016 -8.000168z" fill-rule="nonzero"></path><path stroke="#000000" stroke-width="2.0" stroke-linejoin="round" stroke-linecap="butt" d="m26.0 19.53953l0 0c0 -4.4183664 3.5817928 -8.000159 8.00016 -8.000159l31.99968 0l0 0c2.1217728 0 4.1566467 0.8428707 5.656967 2.343192c1.5003204 1.5003214 2.343193 3.5351925 2.343193 5.656967l0 118.61385c0 4.4183655 -3.5817947 8.000168 -8.00016 8.000168l-31.99968 0c-4.4183674 0 -8.00016 -3.5818024 -8.00016 -8.000168z" fill-rule="nonzero"></path><path fill="#000000" fill-opacity="0.0" d="m26.503937 33.719162l46.992126 0" fill-rule="nonzero"></path><path stroke="#000000" stroke-width="2.0" stroke-linejoin="round" stroke-linecap="butt" d="m26.503937 33.719162l46.992126 0" fill-rule="nonzero"></path></g></svg>

