<?xml version="1.0" standalone="yes"?>

<svg version="1.1" viewBox="0.0 0.0 115.0 156.0" fill="none" stroke="none" stroke-linecap="square" stroke-miterlimit="10" xmlns="http://www.w3.org/2000/svg" xmlns:xlink="http://www.w3.org/1999/xlink"><clipPath id="p.0"><path d="m0 0l115.0 0l0 156.0l-115.0 0l0 -156.0z" clip-rule="nonzero"></path></clipPath><g clip-path="url(#p.0)"><path fill="#000000" fill-opacity="0.0" d="m0 0l115.28084 0l0 156.07611l-115.28084 0z" fill-rule="nonzero"></path><path fill="#ffffff" d="m38.301655 6.5761585l0 0c0 -1.1915674 0.9659538 -2.1575232 2.157524 -2.1575232l33.637707 0c0.5722122 0 1.1209869 0.2273097 1.5255966 0.6319237c0.4046173 0.40461445 0.6319275 0.9533887 0.6319275 1.5255995l0 8.629835c0 1.1915665 -0.96595764 2.157524 -2.157524 2.157524l-33.637707 0c-1.1915703 0 -2.157524 -0.96595764 -2.157524 -2.157524z" fill-rule="nonzero"></path><path stroke="#000000" stroke-width="2.0" stroke-linejoin="round" stroke-linecap="butt" d="m38.301655 6.5761585l0 0c0 -1.1915674 0.9659538 -2.1575232 2.157524 -2.1575232l33.637707 0c0.5722122 0 1.1209869 0.2273097 1.5255966 0.6319237c0.4046173 0.40461445 0.6319275 0.9533887 0.6319275 1.5255995l0 8.629835c0 1.1915665 -0.96595764 2.157524 -2.157524 2.157524l-33.637707 0c-1.1915703 0 -2.157524 -0.96595764 -2.157524 -2.157524z" fill-rule="nonzero"></path><path fill="#ffffff" d="m6.4881887 27.60664l0 0c0 -9.416571 7.6336393 -17.050209 17.050209 -17.050209l68.19879 0l0 0c4.5219955 0 8.858788 1.7963562 12.05632 4.993891c3.1975327 3.1975346 4.993889 7.5343227 4.993889 12.056318l0 107.00194c0 9.416565 -7.6336365 17.050217 -17.050209 17.050217l-68.19879 0c-9.416571 0 -17.050209 -7.6336517 -17.050209 -17.050217z" fill-rule="nonzero"></path><path stroke="#000000" stroke-width="2.0" stroke-linejoin="round" stroke-linecap="butt" d="m6.4881887 27.60664l0 0c0 -9.416571 7.6336393 -17.050209 17.050209 -17.050209l68.19879 0l0 0c4.5219955 0 8.858788 1.7963562 12.05632 4.993891c3.1975327 3.1975346 4.993889 7.5343227 4.993889 12.056318l0 107.00194c0 9.416565 -7.6336365 17.050217 -17.050209 17.050217l-68.19879 0c-9.416571 0 -17.050209 -7.6336517 -17.050209 -17.050217z" fill-rule="nonzero"></path><path fill="#000000" fill-opacity="0.0" d="m6.4881887 46.21522l102.48819 0" fill-rule="nonzero"></path><path stroke="#000000" stroke-width="2.0" stroke-linejoin="round" stroke-linecap="butt" d="m6.4881887 46.21522l102.48819 0" fill-rule="nonzero"></path></g></svg>

