<?xml version="1.0" encoding="utf-8"?>
<!-- Generator: Adobe Illustrator 17.0.0, SVG Export Plug-In . SVG Version: 6.00 Build 0)  -->
<!DOCTYPE svg PUBLIC "-//W3C//DTD SVG 1.1//EN" "http://www.w3.org/Graphics/SVG/1.1/DTD/svg11.dtd">
<svg version="1.1" id="Layer_1" xmlns="http://www.w3.org/2000/svg" xmlns:xlink="http://www.w3.org/1999/xlink" x="0px" y="0px"
	 width="376.777px" height="800px" viewBox="207.6 0 376.777 800" enable-background="new 207.6 0 376.777 800"
	 xml:space="preserve">
<g>
	<defs>
		<rect id="SVGID_1_" x="215.73" width="368.539" height="800"/>
	</defs>
	<clipPath id="SVGID_2_">
		<use xlink:href="#SVGID_1_"  overflow="visible"/>
	</clipPath>
	<g clip-path="url(#SVGID_2_)">
		<path fill-opacity="0" d="M215.73,0h368.647v800.915H215.73V0z"/>
		<path d="M463.995,443.71h101.354v67.475H463.995V443.71z"/>
		<path fill="none" stroke="#000000" stroke-width="2" stroke-linejoin="round" stroke-miterlimit="10" d="M463.995,443.71h101.354
			v67.475H463.995V443.71z"/>
		<path fill="#FFFFFF" d="M504.774,109.119h67.223v207.772h-67.223V109.119z"/>
		<path fill="none" stroke="#000000" stroke-width="2" stroke-linejoin="round" stroke-miterlimit="10" d="M504.774,109.119h67.223
			v207.772h-67.223V109.119z"/>
		<path fill="#FFFFFF" d="M221.313,165.177h47.657v107.582h-47.657V165.177z"/>
		<path fill="none" stroke="#000000" stroke-width="2" stroke-linejoin="round" stroke-miterlimit="10" d="M221.313,165.177h47.657
			v107.582h-47.657V165.177z"/>
		<path fill="#FFFFFF" d="M493.745,66.245h68.742l0,0c9.005,0,16.306,7.034,16.306,15.71s-7.3,15.71-16.306,15.71h-68.742l0,0
			c-9.005,0-16.306-7.034-16.306-15.71S484.739,66.245,493.745,66.245z"/>
		<path fill="none" stroke="#000000" stroke-width="2" stroke-linejoin="round" stroke-miterlimit="10" d="M493.745,66.245h68.742
			l0,0c9.005,0,16.306,7.034,16.306,15.71s-7.3,15.71-16.306,15.71h-68.742l0,0c-9.005,0-16.306-7.034-16.306-15.71
			S484.739,66.245,493.745,66.245z"/>
		<path fill="#FFFFFF" d="M228.289,485.598h67.223V693.37h-67.223V485.598z"/>
		<path fill="none" stroke="#000000" stroke-width="2" stroke-linejoin="round" stroke-miterlimit="10" d="M228.289,485.598h67.223
			V693.37h-67.223V485.598z"/>
		<path fill="#FFFFFF" d="M459.295,46.593h92.042V383.84h-92.042V46.593z"/>
		<path fill="none" stroke="#000000" stroke-width="2" stroke-linejoin="round" stroke-miterlimit="10" d="M459.295,46.593h92.042
			V383.84h-92.042V46.593z"/>
		<path d="M238.361,122.744h78.988v181.411h-78.988V122.744z"/>
		<path fill="none" stroke="#000000" stroke-width="2" stroke-linejoin="round" stroke-miterlimit="10" d="M238.361,122.744h78.988
			v181.411h-78.988V122.744z"/>
		<path fill="#FFFFFF" d="M238.391,66.245h68.742l0,0c9.005,0,16.306,7.034,16.306,15.71s-7.3,15.71-16.306,15.71h-68.742l0,0
			c-9.005,0-16.306-7.034-16.306-15.71S229.386,66.245,238.391,66.245z"/>
		<path fill="none" stroke="#000000" stroke-width="2" stroke-linejoin="round" stroke-miterlimit="10" d="M238.391,66.245h68.742
			l0,0c9.005,0,16.306,7.034,16.306,15.71s-7.3,15.71-16.306,15.71h-68.742l0,0c-9.005,0-16.306-7.034-16.306-15.71
			S229.386,66.245,238.391,66.245z"/>
		<path fill="#FFFFFF" d="M238.391,443.288h68.742l0,0c9.005,0,16.306,7.034,16.306,15.71c0,8.676-7.3,15.71-16.306,15.71h-68.742
			l0,0c-9.005,0-16.306-7.034-16.306-15.71C222.085,450.322,229.386,443.288,238.391,443.288z"/>
		<path fill="none" stroke="#000000" stroke-width="2" stroke-linejoin="round" stroke-miterlimit="10" d="M238.391,443.288h68.742
			l0,0c9.005,0,16.306,7.034,16.306,15.71c0,8.676-7.3,15.71-16.306,15.71h-68.742l0,0c-9.005,0-16.306-7.034-16.306-15.71
			C222.085,450.322,229.386,443.288,238.391,443.288z"/>
		<path fill="#FFFFFF" d="M247.544,46.593h54.892V383.84h-54.892V46.593z"/>
		<path fill="none" stroke="#000000" stroke-width="2" stroke-linejoin="round" stroke-miterlimit="10" d="M247.544,46.593h54.892
			V383.84h-54.892V46.593z"/>
		<path fill="#FFFFFF" d="M493.746,443.288h68.742l0,0c9.005,0,16.306,7.034,16.306,15.71c0,8.676-7.3,15.71-16.306,15.71h-68.742
			l0,0c-9.005,0-16.306-7.034-16.306-15.71C477.441,450.322,484.741,443.288,493.746,443.288z"/>
		<path fill="none" stroke="#000000" stroke-width="2" stroke-linejoin="round" stroke-miterlimit="10" d="M493.746,443.288h68.742
			l0,0c9.005,0,16.306,7.034,16.306,15.71c0,8.676-7.3,15.71-16.306,15.71h-68.742l0,0c-9.005,0-16.306-7.034-16.306-15.71
			C477.441,450.322,484.741,443.288,493.746,443.288z"/>
		<path fill="#FFFFFF" d="M467.263,614.57h106.513v44.763H467.263V614.57z"/>
		<path fill="none" stroke="#000000" stroke-width="2" stroke-linejoin="round" stroke-miterlimit="10" d="M467.263,614.57h106.513
			v44.763H467.263V614.57z"/>
		<path fill="#FFFFFF" d="M467.263,543.423h106.513v44.763H467.263V543.423z"/>
		<path fill="none" stroke="#000000" stroke-width="2" stroke-linejoin="round" stroke-miterlimit="10" d="M467.263,543.423h106.513
			v44.763H467.263V543.423z"/>
		<path fill="#FFFFFF" d="M467.263,688.619h106.513v44.763H467.263V688.619z"/>
		<path fill="none" stroke="#000000" stroke-width="2" stroke-linejoin="round" stroke-miterlimit="10" d="M467.263,688.619h106.513
			v44.763H467.263V688.619z"/>
		<path fill-opacity="0" d="M222.084,516.583h24.851"/>
		<path fill="none" stroke="#000000" stroke-width="2" stroke-linejoin="round" stroke-miterlimit="10" d="M222.084,516.583h24.851"
			/>
		<path fill-opacity="0" d="M222.084,568.328h24.851"/>
		<path fill="none" stroke="#000000" stroke-width="2" stroke-linejoin="round" stroke-miterlimit="10" d="M222.084,568.328h24.851"
			/>
		<path fill-opacity="0" d="M222.084,616.125h24.851"/>
		<path fill="none" stroke="#000000" stroke-width="2" stroke-linejoin="round" stroke-miterlimit="10" d="M222.084,616.125h24.851"
			/>
		<path fill-opacity="0" d="M222.084,673.135h25.606"/>
		<path fill="none" stroke="#000000" stroke-width="2" stroke-linejoin="round" stroke-miterlimit="10" d="M222.084,673.135h25.606"
			/>
		<path fill="#FFFFFF" d="M247.541,423.279h303.778v337.248H247.541V423.279z"/>
		<path fill="none" stroke="#000000" stroke-width="2" stroke-linejoin="round" stroke-miterlimit="10" d="M247.541,423.279h303.778
			v337.248H247.541V423.279z"/>
		<path fill="#FFFFFF" d="M271.672,0.941H527.95v799.033H271.672V0.941z"/>
		<path fill="none" stroke="#000000" stroke-width="2" stroke-linejoin="round" stroke-miterlimit="10" d="M271.672,0.941H527.95
			v799.033H271.672V0.941z"/>
		<path fill-opacity="0" d="M504.773,31.161V346.42h-67.475V31.161L504.773,31.161z"/>
		<path fill="none" stroke="#000000" stroke-width="2" stroke-linejoin="round" stroke-miterlimit="10" d="M504.773,31.161V346.42
			h-67.475V31.161L504.773,31.161z"/>
	</g>
</g>
<g>
	<path d="M457.361,51.41h27.898v6.406h-1.926v-4.025h-24.047v4.025h-1.926V51.41z"/>
	<path d="M461.282,61.14h23.593v3.325l-11.937,7.562c-2.765,1.75-5.251,3.115-7.666,4.235l0.035,0.069
		c3.15-0.279,6.021-0.35,9.696-0.35h9.871v2.87h-23.593v-3.08l11.972-7.491c2.625-1.645,5.32-3.22,7.875-4.41l-0.035-0.105
		c-2.975,0.176-5.811,0.245-9.73,0.245h-10.081V61.14z"/>
	<path d="M484.875,87.216h-13.967c-5.285,0-7.525,2.345-7.525,5.495c0,3.5,2.311,5.74,7.525,5.74h13.967v3.081h-13.757
		c-7.245,0-10.222-3.815-10.222-8.927c0-4.83,2.766-8.471,10.082-8.471h13.896V87.216z"/>
	<path d="M471.644,126.696c3.29-0.175,7.245-0.385,10.187-0.35v-0.105c-2.766-0.805-5.706-1.785-8.961-2.975l-11.447-4.166v-2.31
		l11.236-3.815c3.326-1.12,6.371-2.065,9.172-2.73v-0.07c-2.941-0.07-6.896-0.245-10.432-0.455l-10.116-0.63v-2.905l23.593,1.646
		v3.885l-11.412,4.025c-2.904,0.98-5.495,1.785-7.945,2.381v0.104c2.381,0.596,4.971,1.436,7.945,2.485l11.412,4.2v3.886
		l-23.593,1.47v-2.975L471.644,126.696z"/>
	<path d="M472.344,147.171V138h-8.506v10.221h-2.556v-13.267h23.593v12.741h-2.556V138h-7.456v9.171H472.344z M490.23,146.575
		l-4.096-4.445v-2.521l4.096,3.256V146.575z"/>
	<path d="M484.56,152.174c0.315,1.54,0.49,3.745,0.49,5.846c0,3.255-0.595,5.355-1.925,6.826c-1.051,1.189-2.66,1.854-4.48,1.854
		c-3.115,0-5.182-1.96-6.021-4.445h-0.104c-0.63,1.82-2.311,2.905-4.761,3.466c-3.29,0.77-5.565,1.33-6.476,1.82v-3.15
		c0.665-0.386,2.695-0.91,5.636-1.575c3.256-0.7,4.48-1.961,4.586-4.726v-2.87h-10.222v-3.046H484.56z M473.813,155.22v3.115
		c0,3.255,1.785,5.32,4.48,5.32c3.046,0,4.376-2.205,4.411-5.426c0-1.47-0.141-2.521-0.281-3.01H473.813z"/>
	<path d="M473.323,191.27c-8.12,0-12.427-4.936-12.427-10.956c0-6.23,4.831-10.606,11.973-10.606c7.49,0,12.391,4.656,12.391,10.956
		C485.26,187.104,480.324,191.27,473.323,191.27z M472.938,172.963c-5.04,0-9.556,2.73-9.556,7.525c0,4.831,4.445,7.562,9.801,7.562
		c4.69,0,9.591-2.451,9.591-7.526C482.774,175.483,478.119,172.963,472.938,172.963z"/>
	<path d="M484.56,202.643c0.28,1.855,0.49,4.061,0.49,6.476c0,4.376-1.015,7.491-2.94,9.557c-1.926,2.1-4.655,3.325-8.471,3.325
		c-3.851,0-7.001-1.19-9.171-3.396c-2.206-2.205-3.396-5.846-3.396-10.432c0-2.17,0.105-3.99,0.279-5.53H484.56z M463.697,205.688
		c-0.14,0.77-0.175,1.89-0.175,3.08c0,6.511,3.641,10.046,10.011,10.046c5.566,0.035,9.102-3.115,9.102-9.556
		c0-1.575-0.141-2.766-0.315-3.57H463.697z"/>
	<path d="M472.344,238.169v-9.171h-8.506v10.221h-2.556v-13.267h23.593v12.741h-2.556v-9.695h-7.456v9.171H472.344z"/>
	<path d="M464.992,250.171c-0.84,1.365-1.539,3.36-1.539,5.461c0,3.115,1.645,4.936,4.025,4.936c2.205,0,3.465-1.261,4.689-4.446
		c1.365-3.85,3.361-6.23,6.686-6.23c3.676,0,6.406,3.046,6.406,7.631c0,2.415-0.561,4.166-1.155,5.216l-2.485-0.84
		c0.42-0.771,1.12-2.346,1.12-4.48c0-3.221-1.925-4.445-3.535-4.445c-2.205,0-3.29,1.435-4.55,4.69
		c-1.541,3.99-3.466,6.021-6.932,6.021c-3.641,0-6.791-2.695-6.791-8.261c0-2.275,0.666-4.761,1.506-6.021L464.992,250.171z"/>
	<path d="M472.344,280.062v-9.171h-8.506v10.221h-2.556v-13.267h23.593v12.741h-2.556v-9.695h-7.456v9.171H472.344z M490.23,279.467
		l-4.096-4.445v-2.521l4.096,3.256V279.467z"/>
	<path d="M484.56,285.065c0.315,1.54,0.49,3.745,0.49,5.846c0,3.256-0.595,5.355-1.925,6.826c-1.051,1.189-2.66,1.854-4.48,1.854
		c-3.115,0-5.182-1.96-6.021-4.445h-0.104c-0.63,1.82-2.311,2.905-4.761,3.466c-3.29,0.77-5.565,1.33-6.476,1.82v-3.15
		c0.665-0.386,2.695-0.91,5.636-1.575c3.256-0.7,4.48-1.961,4.586-4.726v-2.87h-10.222v-3.046H484.56z M473.813,288.111v3.115
		c0,3.255,1.785,5.32,4.48,5.32c3.046,0,4.376-2.205,4.411-5.426c0-1.47-0.141-2.521-0.281-3.01H473.813z"/>
	<path d="M484.875,306.941h-23.593v-3.046h23.593V306.941z"/>
	<path d="M472.344,324.478v-9.171h-8.506v10.221h-2.556v-13.267h23.593v12.741h-2.556v-9.695h-7.456v9.171H472.344z"/>
	<path d="M485.295,333.89h-27.934v-6.405h1.926v4.025h24.082v-4.025h1.926V333.89z"/>
</g>
</svg>
