<?xml version="1.0" encoding="utf-8"?>
<!-- Generator: Adobe Illustrator 17.0.0, SVG Export Plug-In . SVG Version: 6.00 Build 0)  -->
<!DOCTYPE svg PUBLIC "-//W3C//DTD SVG 1.1//EN" "http://www.w3.org/Graphics/SVG/1.1/DTD/svg11.dtd">
<svg version="1.1" id="Layer_1" xmlns="http://www.w3.org/2000/svg" xmlns:xlink="http://www.w3.org/1999/xlink" x="0px" y="0px"
	 width="800px" height="547.473px" viewBox="0 126.604 800 547.473" enable-background="new 0 126.604 800 547.473"
	 xml:space="preserve">
<g>
	<defs>
		<rect id="SVGID_1_" y="140.032" width="800" height="519.935"/>
	</defs>
	<clipPath id="SVGID_2_">
		<use xlink:href="#SVGID_1_"  overflow="visible"/>
	</clipPath>
	<g clip-path="url(#SVGID_2_)">
		<path fill-opacity="0" d="M0,140.032h800v519.935H0V140.032z"/>
		<path fill="#FFFFFF" d="M0,140.032h798.703v518.659H0V140.032z"/>
		<path fill="none" stroke="#000000" stroke-width="2" stroke-linejoin="round" stroke-miterlimit="10" d="M0,140.032h798.703
			v518.659H0V140.032z"/>
		<path fill="#FFFFFF" d="M35.143,166.328h225.608v225.587H35.143L35.143,166.328z"/>
		<path fill-opacity="0" d="M42.326,170.072h218.42v218.91H42.326L42.326,170.072z"/>
		<path fill="none" stroke="#000000" stroke-width="2" stroke-linejoin="round" stroke-miterlimit="10" d="M42.326,170.072h218.42
			v218.91H42.326L42.326,170.072z"/>
		<path fill="#FFFFFF" d="M52.934,230.224h197.205v134.866H52.934L52.934,230.224z"/>
		<path fill="none" stroke="#000000" stroke-width="2" stroke-linejoin="round" stroke-miterlimit="10" d="M52.934,230.224h197.205
			v134.866H52.934L52.934,230.224z"/>
		<path fill-opacity="0" d="M57.966,237.587h187.22v117.755H57.966L57.966,237.587z"/>
		<path d="M74.266,310.65l7.658-0.648c0.567,3.728,1.884,6.53,3.951,8.408c2.066,1.877,4.558,2.816,7.476,2.816
			c3.512,0,6.483-1.324,8.914-3.971s3.647-6.159,3.647-10.535c0-4.16-1.168-7.442-3.505-9.846c-2.337-2.404-5.396-3.606-9.177-3.606
			c-2.35,0-4.471,0.534-6.361,1.6c-1.891,1.067-3.377,2.451-4.457,4.153l-6.848-0.891l5.754-30.511h29.538v6.969H87.151
			l-3.201,15.964c3.566-2.485,7.307-3.728,11.224-3.728c5.186,0,9.562,1.796,13.128,5.389s5.348,8.212,5.348,13.857
			c0,5.375-1.567,10.022-4.7,13.938c-3.809,4.808-9.009,7.212-15.6,7.212c-5.402,0-9.812-1.513-13.229-4.538
			C76.704,319.658,74.753,315.647,74.266,310.65z M124.469,291.484v-8.306h8.306v8.306H124.469z M124.469,326.209v-8.306h8.306
			v8.306H124.469z M143.472,296.914c0-7.023,0.723-12.676,2.168-16.957s3.593-7.584,6.442-9.907
			c2.85-2.323,6.436-3.485,10.758-3.485c3.187,0,5.983,0.642,8.387,1.925c2.404,1.283,4.39,3.133,5.956,5.551
			c1.567,2.418,2.796,5.362,3.687,8.833c0.891,3.471,1.337,8.151,1.337,14.04c0,6.969-0.716,12.595-2.147,16.876
			c-1.432,4.281-3.572,7.591-6.422,9.927c-2.85,2.337-6.449,3.505-10.798,3.505c-5.727,0-10.224-2.053-13.493-6.159
			C145.431,316.12,143.472,308.07,143.472,296.914z M150.968,296.914c0,9.751,1.141,16.241,3.424,19.469
			c2.283,3.228,5.099,4.842,8.448,4.842s6.166-1.621,8.448-4.862s3.424-9.724,3.424-19.449c0-9.779-1.141-16.275-3.424-19.489
			s-5.126-4.822-8.529-4.822c-3.35,0-6.024,1.418-8.023,4.254C152.224,280.477,150.968,287.162,150.968,296.914z M189.623,296.914
			c0-7.023,0.723-12.676,2.168-16.957c1.445-4.281,3.593-7.584,6.442-9.907c2.85-2.323,6.436-3.485,10.758-3.485
			c3.187,0,5.983,0.642,8.387,1.925s4.39,3.133,5.956,5.551c1.567,2.418,2.796,5.362,3.687,8.833
			c0.891,3.471,1.337,8.151,1.337,14.04c0,6.969-0.716,12.595-2.147,16.876c-1.432,4.281-3.572,7.591-6.422,9.927
			c-2.85,2.337-6.449,3.505-10.798,3.505c-5.727,0-10.224-2.053-13.493-6.159C191.581,316.12,189.623,308.07,189.623,296.914z
			 M197.119,296.914c0,9.751,1.141,16.241,3.424,19.469s5.099,4.842,8.448,4.842c3.35,0,6.166-1.621,8.448-4.862
			c2.283-3.241,3.424-9.724,3.424-19.449c0-9.779-1.141-16.275-3.424-19.489c-2.283-3.214-5.126-4.822-8.529-4.822
			c-3.35,0-6.024,1.418-8.023,4.254C198.375,280.477,197.119,287.162,197.119,296.914z"/>
		<path fill-opacity="0" d="M296.485,414.176h218.42v218.91h-218.42V414.176z"/>
		<path fill="none" stroke="#000000" stroke-width="2" stroke-linejoin="round" stroke-miterlimit="10" d="M296.485,414.176h218.42
			v218.91h-218.42V414.176z"/>
		<path fill-opacity="0" d="M546.939,169.665h218.42v218.91h-218.42V169.665z"/>
		<path fill="none" stroke="#000000" stroke-width="2" stroke-linejoin="round" stroke-miterlimit="10" d="M546.939,169.665h218.42
			v218.91h-218.42V169.665z"/>
		<path fill-opacity="0" d="M119.217,182.762h69.138v41.103h-69.138V182.762z"/>
		<path fill="none" stroke="#000000" stroke-width="2" stroke-linejoin="round" stroke-miterlimit="10" d="M119.217,182.762h69.138
			v41.103h-69.138V182.762z"/>
		<path fill-opacity="0" d="M199.775,203.314L199.775,203.314c0-11.35,9.768-20.552,21.818-20.552l0,0
			c5.786,0,11.336,2.165,15.427,6.019c4.092,3.854,6.39,9.082,6.39,14.532l0,0c0,11.35-9.768,20.552-21.818,20.552l0,0
			C209.543,223.865,199.775,214.664,199.775,203.314z"/>
		<path fill="none" stroke="#000000" stroke-width="2" stroke-linejoin="round" stroke-miterlimit="10" d="M199.775,203.314
			L199.775,203.314c0-11.35,9.768-20.552,21.818-20.552l0,0c5.786,0,11.336,2.165,15.427,6.019c4.092,3.854,6.39,9.082,6.39,14.532
			l0,0c0,11.35-9.768,20.552-21.818,20.552l0,0C209.543,223.865,199.775,214.664,199.775,203.314z"/>
		<path fill-opacity="0" d="M119.217,182.762h602.621v70.302H119.217V182.762z"/>
		<path fill="#FFFFFF" d="M289.574,166.187h224.435v226.941H289.574V166.187z"/>
		<path fill-opacity="0" d="M296.719,169.954h217.285v220.224H296.719V169.954z"/>
		<path fill="none" stroke="#000000" stroke-width="2" stroke-linejoin="round" stroke-miterlimit="10" d="M296.719,169.954h217.285
			v220.224H296.719V169.954z"/>
		<path fill="#FFFFFF" d="M304.432,212.608h145.357v153.485H304.432V212.608z"/>
		<path fill="none" stroke="#000000" stroke-width="2" stroke-linejoin="round" stroke-miterlimit="10" d="M304.432,212.608h145.357
			v153.485H304.432V212.608z"/>
		<path d="M469.803,237.902h29.839V366.1h-29.839V237.902z"/>
		<path fill="none" stroke="#000000" stroke-width="2" stroke-linejoin="round" stroke-miterlimit="10" d="M469.803,237.902h29.839
			V366.1h-29.839V237.902z"/>
		<path fill="#FFFFFF" d="M475.787,192.636L475.787,192.636c0-5.462,4.493-9.891,10.034-9.891l0,0c2.661,0,5.214,1.042,7.095,2.897
			c1.882,1.855,2.939,4.371,2.939,6.994l0,0c0,5.462-4.493,9.891-10.034,9.891l0,0C480.28,202.526,475.787,198.098,475.787,192.636z
			"/>
		<path fill="none" stroke="#000000" stroke-width="2" stroke-linejoin="round" stroke-miterlimit="10" d="M475.787,192.636
			L475.787,192.636c0-5.462,4.493-9.891,10.034-9.891l0,0c2.661,0,5.214,1.042,7.095,2.897c1.882,1.855,2.939,4.371,2.939,6.994l0,0
			c0,5.462-4.493,9.891-10.034,9.891l0,0C480.28,202.526,475.787,198.098,475.787,192.636z"/>
		<path fill="#FFFFFF" d="M313.796,289.351L313.796,289.351c0-35.838,28.347-64.89,63.315-64.89l0,0
			c16.792,0,32.896,6.837,44.77,19.006s18.544,28.674,18.544,45.884l0,0c0,35.838-28.347,64.89-63.315,64.89l0,0
			C342.143,354.241,313.796,325.189,313.796,289.351z"/>
		<path fill="none" stroke="#000000" stroke-width="2" stroke-linejoin="round" stroke-miterlimit="10" d="M313.796,289.351
			L313.796,289.351c0-35.838,28.347-64.89,63.315-64.89l0,0c16.792,0,32.896,6.837,44.77,19.006s18.544,28.674,18.544,45.884l0,0
			c0,35.838-28.347,64.89-63.315,64.89l0,0C342.143,354.241,313.796,325.189,313.796,289.351z"/>
		<path fill="none" stroke="#000000" stroke-linejoin="round" stroke-miterlimit="10" d="M319.867,228.795h114.746v121.112H319.867
			V228.795z"/>
		<path fill-opacity="0" d="M304.865,213.728l15.133,15.036"/>
		<path fill="none" stroke="#000000" stroke-linejoin="round" stroke-miterlimit="10" d="M304.865,213.728l15.133,15.036"/>
		<path fill-opacity="0" d="M434.746,349.905l14.889,15.837"/>
		<path fill="none" stroke="#000000" stroke-linejoin="round" stroke-miterlimit="10" d="M434.746,349.905l14.889,15.837"/>
		<path fill-opacity="0" d="M449.618,213.728l-14.605,15.036"/>
		<path fill="none" stroke="#000000" stroke-linejoin="round" stroke-miterlimit="10" d="M449.618,213.728l-14.605,15.036"/>
		<path fill-opacity="0" d="M319.734,349.909l-14.605,15.036"/>
		<path fill="none" stroke="#000000" stroke-linejoin="round" stroke-miterlimit="10" d="M319.734,349.909l-14.605,15.036"/>
		<path fill-opacity="0" d="M329.035,204.596h16.738v8.011h-16.738V204.596z"/>
		<path fill="none" stroke="#000000" stroke-width="2" stroke-linejoin="round" stroke-miterlimit="10" d="M329.035,204.596h16.738
			v8.011h-16.738V204.596z"/>
		<path fill-opacity="0" d="M409.748,204.596h16.738v8.011h-16.738V204.596z"/>
		<path fill="none" stroke="#000000" stroke-width="2" stroke-linejoin="round" stroke-miterlimit="10" d="M409.748,204.596h16.738
			v8.011h-16.738V204.596z"/>
		<path fill-opacity="0" d="M347.709,207.55h59.496v5.053h-59.496V207.55z"/>
		<path fill="none" stroke="#000000" stroke-width="2" stroke-linejoin="round" stroke-miterlimit="10" d="M347.709,207.55h59.496
			v5.053h-59.496V207.55z"/>
		<path fill="#FFFFFF" d="M35.144,409.267h225.608v225.587H35.144L35.144,409.267z"/>
		<path fill-opacity="0" d="M42.327,413.011h218.42v218.91H42.327L42.327,413.011z"/>
		<path fill="none" stroke="#000000" stroke-width="2" stroke-linejoin="round" stroke-miterlimit="10" d="M42.327,413.011h218.42
			v218.91H42.327L42.327,413.011z"/>
		<path fill-opacity="0" d="M83.379,522.761l34.079-34.079l34.079,34.079l-34.079,34.079L83.379,522.761z"/>
		<path fill="none" stroke="#000000" stroke-width="2" stroke-linejoin="round" stroke-miterlimit="10" d="M83.379,522.761
			l34.079-34.079l34.079,34.079l-34.079,34.079L83.379,522.761z"/>
		<path fill-opacity="0" d="M117.648,556.546l34.079-34.079l34.079,34.079l-34.079,34.079L117.648,556.546z"/>
		<path fill="none" stroke="#000000" stroke-width="2" stroke-linejoin="round" stroke-miterlimit="10" d="M117.648,556.546
			l34.079-34.079l34.079,34.079l-34.079,34.079L117.648,556.546z"/>
		<path fill-opacity="0" d="M151.537,522.761l34.079-34.079l34.079,34.079l-34.079,34.079L151.537,522.761z"/>
		<path fill="none" stroke="#000000" stroke-width="2" stroke-linejoin="round" stroke-miterlimit="10" d="M151.537,522.761
			l34.079-34.079l34.079,34.079l-34.079,34.079L151.537,522.761z"/>
		<path fill-opacity="0" d="M117.648,488.388l34.079-34.079l34.079,34.079l-34.079,34.079L117.648,488.388z"/>
		<path fill="none" stroke="#000000" stroke-width="2" stroke-linejoin="round" stroke-miterlimit="10" d="M117.648,488.388
			l34.079-34.079l34.079,34.079l-34.079,34.079L117.648,488.388z"/>
		<path fill="#FFFFFF" d="M222.33,435.558L222.33,435.558c0-5.43,4.516-9.832,10.087-9.832l0,0c2.675,0,5.241,1.036,7.133,2.88
			c1.892,1.844,2.954,4.345,2.954,6.952l0,0c0,5.43-4.516,9.832-10.087,9.832l0,0C226.846,445.389,222.33,440.988,222.33,435.558z"
			/>
		<path fill="none" stroke="#000000" stroke-width="2" stroke-linejoin="round" stroke-miterlimit="10" d="M222.33,435.558
			L222.33,435.558c0-5.43,4.516-9.832,10.087-9.832l0,0c2.675,0,5.241,1.036,7.133,2.88c1.892,1.844,2.954,4.345,2.954,6.952l0,0
			c0,5.43-4.516,9.832-10.087,9.832l0,0C226.846,445.389,222.33,440.988,222.33,435.558z"/>
		<path fill="#FFFFFF" d="M537.703,411.7h225.608v225.587H537.703V411.7z"/>
		<path fill-opacity="0" d="M544.885,415.444h218.42v218.91h-218.42V415.444z"/>
		<path fill="none" stroke="#000000" stroke-width="2" stroke-linejoin="round" stroke-miterlimit="10" d="M544.885,415.444h218.42
			v218.91h-218.42V415.444z"/>
		<path fill="#FFFFFF" d="M724.889,437.991L724.889,437.991c0-5.43,4.516-9.832,10.087-9.832l0,0c2.675,0,5.241,1.036,7.133,2.88
			c1.892,1.844,2.954,4.345,2.954,6.952l0,0c0,5.43-4.516,9.832-10.087,9.832l0,0C729.405,447.823,724.889,443.421,724.889,437.991z
			"/>
		<path fill="none" stroke="#000000" stroke-width="2" stroke-linejoin="round" stroke-miterlimit="10" d="M724.889,437.991
			L724.889,437.991c0-5.43,4.516-9.832,10.087-9.832l0,0c2.675,0,5.241,1.036,7.133,2.88c1.892,1.844,2.954,4.345,2.954,6.952l0,0
			c0,5.43-4.516,9.832-10.087,9.832l0,0C729.405,447.823,724.889,443.421,724.889,437.991z"/>
		<path fill-opacity="0" d="M572.08,451.729h18.908v146.342H572.08V451.729z"/>
		<path fill="none" stroke="#000000" stroke-width="2" stroke-linejoin="round" stroke-miterlimit="10" d="M572.08,451.729h18.908
			v146.342H572.08V451.729z"/>
		<path fill-opacity="0" d="M708.575,480.801h18.908v115.53h-18.908V480.801z"/>
		<path fill="none" stroke="#000000" stroke-width="2" stroke-linejoin="round" stroke-miterlimit="10" d="M708.575,480.801h18.908
			v115.53h-18.908V480.801z"/>
		<path fill-opacity="0" d="M581.532,472.676c7.032-1.508,12.66,7.82,19.817,8.535c15.879,1.586,31.935-1.85,47.865-0.914
			c7.577,0.445,13.053,8.263,20.427,10.061c16.215,3.955,32.867,5.874,49.39,8.23"/>
		<path fill="none" stroke="#000000" stroke-width="2" stroke-linejoin="round" stroke-miterlimit="10" d="M581.532,472.676
			c7.032-1.508,12.66,7.82,19.817,8.535c15.879,1.586,31.935-1.85,47.865-0.914c7.577,0.445,13.053,8.263,20.427,10.061
			c16.215,3.955,32.867,5.874,49.39,8.23"/>
		<path fill-opacity="0" d="M583.97,496.15c15.863-7.211,34.099,9.044,51.524,8.841c15.548-0.181,31.966-5.122,46.647,0
			c12.271,4.281,28.31,19.86,37.499,10.671"/>
		<path fill="none" stroke="#000000" stroke-width="2" stroke-linejoin="round" stroke-miterlimit="10" d="M583.97,496.15
			c15.863-7.211,34.099,9.044,51.524,8.841c15.548-0.181,31.966-5.122,46.647,0c12.271,4.281,28.31,19.86,37.499,10.671"/>
		<path fill-opacity="0" d="M581.837,517.492c8.813-1.156,18.368-6.278,26.524-2.745c5.54,2.4,4.687,13.829,10.671,14.635
			c19.66,2.651,39.686-1.04,59.451-2.745c14.179-1.223,28.146,5.183,42.378,5.183"/>
		<path fill="none" stroke="#000000" stroke-width="2" stroke-linejoin="round" stroke-miterlimit="10" d="M581.837,517.492
			c8.813-1.156,18.368-6.278,26.524-2.745c5.54,2.4,4.687,13.829,10.671,14.635c19.66,2.651,39.686-1.04,59.451-2.745
			c14.179-1.223,28.146,5.183,42.378,5.183"/>
		<path fill-opacity="0" d="M581.226,535.175c9.342-0.631,18.983-3.865,28.049-1.525c7.251,1.872,13.902,6.172,21.343,7.012
			c14.53,1.64,29.359,1.541,43.596,4.878c7.678,1.8,14.021,3.775,18.903,3.963c8.941,0.344,18.827-4.918,26.829-0.914"/>
		<path fill="none" stroke="#000000" stroke-width="2" stroke-linejoin="round" stroke-miterlimit="10" d="M581.226,535.175
			c9.342-0.631,18.983-3.865,28.049-1.525c7.251,1.872,13.902,6.172,21.343,7.012c14.53,1.64,29.359,1.541,43.596,4.878
			c7.678,1.8,14.021,3.775,18.903,3.963c8.941,0.344,18.827-4.918,26.829-0.914"/>
		<path fill-opacity="0" d="M581.226,581.821c5.853,8.041,20.552,8.151,29.573,3.963c6.563-3.047,11.667-10.671,18.903-10.671
			c5.881,0,11.897,0.916,17.378,3.048c4.098,1.594,2.933,10.633,7.317,10.977c21.229,1.663,43.061,0.595,63.719-4.574"/>
		<path fill="none" stroke="#000000" stroke-width="2" stroke-linejoin="round" stroke-miterlimit="10" d="M581.226,581.821
			c5.853,8.041,20.552,8.151,29.573,3.963c6.563-3.047,11.667-10.671,18.903-10.671c5.881,0,11.897,0.916,17.378,3.048
			c4.098,1.594,2.933,10.633,7.317,10.977c21.229,1.663,43.061,0.595,63.719-4.574"/>
		<path fill-opacity="0" d="M584.58,559.261c29.903-5.538,61.393,3.797,90.244,13.413c5.778,1.926,10.389-7.476,16.463-7.926
			c9.243-0.684,18.476,1.829,27.744,1.829"/>
		<path fill="none" stroke="#000000" stroke-width="2" stroke-linejoin="round" stroke-miterlimit="10" d="M584.58,559.261
			c29.903-5.538,61.393,3.797,90.244,13.413c5.778,1.926,10.389-7.476,16.463-7.926c9.243-0.684,18.476,1.829,27.744,1.829"/>
	</g>
</g>
<g>
	<path d="M325.308,303.917V278.31h5.428v2.037h-2.967v21.533h2.967v2.037H325.308z"/>
	<path d="M338.446,298.353v-17.678h-6.604v-2.365h15.887v2.365h-6.631v17.678H338.446z"/>
	<path d="M350.505,298.353V278.31h14.492v2.365h-11.84v6.139h11.088v2.352h-11.088v6.822h12.305v2.365H350.505z"/>
	<path d="M367.089,298.353l7.752-10.445l-6.836-9.598h3.158l3.637,5.141c0.757,1.066,1.294,1.887,1.613,2.461
		c0.446-0.729,0.976-1.49,1.586-2.283l4.033-5.318h2.885l-7.041,9.447l7.588,10.596h-3.281l-5.045-7.15
		c-0.282-0.41-0.574-0.856-0.875-1.34c-0.446,0.729-0.766,1.23-0.957,1.504l-5.031,6.986H367.089z"/>
	<path d="M392.901,298.353v-17.678h-6.604v-2.365h15.887v2.365h-6.631v17.678H392.901z"/>
	<path d="M404.96,298.353V278.31h14.492v2.365h-11.84v6.139H418.7v2.352h-11.088v6.822h12.305v2.365H404.96z"/>
	<path d="M427.382,303.917h-5.428v-2.037h2.967v-21.533h-2.967v-2.037h5.428V303.917z"/>
</g>
</svg>
