<?xml version="1.0" encoding="utf-8"?>
<!-- Generator: Adobe Illustrator 17.0.0, SVG Export Plug-In . SVG Version: 6.00 Build 0)  -->
<!DOCTYPE svg PUBLIC "-//W3C//DTD SVG 1.1//EN" "http://www.w3.org/Graphics/SVG/1.1/DTD/svg11.dtd">
<svg version="1.1" id="Layer_1" xmlns="http://www.w3.org/2000/svg" xmlns:xlink="http://www.w3.org/1999/xlink" x="0px" y="0px"
	 width="800px" height="800px" viewBox="0 0 800 800" enable-background="new 0 0 800 800" xml:space="preserve">
<g>
	<defs>
		<rect id="SVGID_1_" width="800" height="800"/>
	</defs>
	<clipPath id="SVGID_2_">
		<use xlink:href="#SVGID_1_"  overflow="visible"/>
	</clipPath>
	<g clip-path="url(#SVGID_2_)">
		<path fill-opacity="0" d="M0,0h800v800H0V0z"/>
		<path fill="#FFFFFF" d="M-13.793,0h800v799.928h-800V0z"/>
		<path fill-opacity="0" d="M11.675,13.278h774.513v776.251H11.675L11.675,13.278z"/>
		<path fill="none" stroke="#000000" stroke-width="2" stroke-linejoin="round" stroke-miterlimit="10" d="M11.675,13.278h774.513
			v776.251H11.675L11.675,13.278z"/>
		<path fill="#FFFFFF" d="M39.165,163.628h518.128v541.008H39.165L39.165,163.628z"/>
		<path fill="none" stroke="#000000" stroke-width="2" stroke-linejoin="round" stroke-miterlimit="10" d="M39.165,163.628h518.128
			v541.008H39.165L39.165,163.628z"/>
		<path d="M628.635,252.783h106.363v451.878H628.635V252.783z"/>
		<path fill="none" stroke="#000000" stroke-width="2" stroke-linejoin="round" stroke-miterlimit="10" d="M628.635,252.783h106.363
			v451.878H628.635V252.783z"/>
		<path fill="#FFFFFF" d="M649.964,93.227L649.964,93.227c0-19.254,16.014-34.863,35.768-34.863l0,0
			c9.486,0,18.584,3.673,25.292,10.211c6.708,6.538,10.476,15.406,10.476,24.652l0,0c0,19.254-16.014,34.863-35.768,34.863l0,0
			C665.978,128.09,649.964,112.482,649.964,93.227z"/>
		<path fill="none" stroke="#000000" stroke-width="2" stroke-linejoin="round" stroke-miterlimit="10" d="M649.964,93.227
			L649.964,93.227c0-19.254,16.014-34.863,35.768-34.863l0,0c9.486,0,18.584,3.673,25.292,10.211
			c6.708,6.538,10.476,15.406,10.476,24.652l0,0c0,19.254-16.014,34.863-35.768,34.863l0,0
			C665.978,128.09,649.964,112.482,649.964,93.227z"/>
		<path fill="#FFFFFF" d="M72.544,434.133L72.544,434.133c0-126.322,101.043-228.727,225.686-228.727l0,0
			c59.856,0,117.26,24.098,159.584,66.992s66.102,101.072,66.102,161.734l0,0c0,126.322-101.043,228.727-225.686,228.727l0,0
			C173.586,662.859,72.544,560.455,72.544,434.133z"/>
		<path fill="none" stroke="#000000" stroke-width="2" stroke-linejoin="round" stroke-miterlimit="10" d="M72.544,434.133
			L72.544,434.133c0-126.322,101.043-228.727,225.686-228.727l0,0c59.856,0,117.26,24.098,159.584,66.992
			s66.102,101.072,66.102,161.734l0,0c0,126.322-101.043,228.727-225.686,228.727l0,0
			C173.586,662.859,72.544,560.455,72.544,434.133z"/>
		<path fill-opacity="0" d="M104.42,352.837h465.562v162.476H104.42L104.42,352.837z"/>
		<path fill-opacity="0" d="M94.184,220.684h409.014v426.898H94.184L94.184,220.684z"/>
		<path fill="none" stroke="#000000" stroke-linejoin="round" stroke-miterlimit="10" d="M94.184,220.684h409.014v426.898H94.184
			L94.184,220.684z"/>
		<path fill-opacity="0" d="M40.71,167.575l53.942,53"/>
		<path fill="none" stroke="#000000" stroke-linejoin="round" stroke-miterlimit="10" d="M40.71,167.575l53.942,53"/>
		<path fill-opacity="0" d="M503.672,647.576l53.073,55.824"/>
		<path fill="none" stroke="#000000" stroke-linejoin="round" stroke-miterlimit="10" d="M503.672,647.576l53.073,55.824"/>
		<path fill-opacity="0" d="M556.684,167.575l-52.059,53"/>
		<path fill="none" stroke="#000000" stroke-linejoin="round" stroke-miterlimit="10" d="M556.684,167.575l-52.059,53"/>
		<path fill-opacity="0" d="M93.71,647.588l-52.059,53"/>
		<path fill="none" stroke="#000000" stroke-linejoin="round" stroke-miterlimit="10" d="M93.71,647.588l-52.059,53"/>
		<path fill-opacity="0" d="M126.865,135.385h59.661v28.238h-59.661V135.385z"/>
		<path fill="none" stroke="#000000" stroke-width="2" stroke-linejoin="round" stroke-miterlimit="10" d="M126.865,135.385h59.661
			v28.238h-59.661V135.385z"/>
		<path fill-opacity="0" d="M414.565,135.385h59.662v28.238h-59.662V135.385z"/>
		<path fill="none" stroke="#000000" stroke-width="2" stroke-linejoin="round" stroke-miterlimit="10" d="M414.565,135.385h59.662
			v28.238h-59.662V135.385z"/>
		<path fill-opacity="0" d="M193.429,145.799h212.073v17.812H193.429V145.799z"/>
		<path fill="none" stroke="#000000" stroke-width="2" stroke-linejoin="round" stroke-miterlimit="10" d="M193.429,145.799h212.073
			v17.812H193.429V145.799z"/>
	</g>
</g>
<g>
	<path d="M117.625,483.907v-87.671h20.13v6.051h-12.65v75.57h12.65v6.05H117.625z"/>
	<path d="M181.095,405.587h-22.55v-8.141h54.89v8.141h-22.66v66h-9.68V405.587z"/>
	<path d="M260.075,436.827h-28.82v26.729h32.12v8.03h-41.69v-74.141h40.041v8.03h-30.47v23.431h28.82V436.827z"/>
	<path d="M316.394,471.587l-9.46-16.39c-3.85-6.271-6.27-10.34-8.58-14.63h-0.22c-2.09,4.29-4.18,8.25-8.03,14.739l-8.91,16.28h-11
		l22.66-37.51l-21.78-36.631h11.11l9.79,17.381c2.75,4.84,4.84,8.58,6.82,12.54h0.33c2.09-4.4,3.96-7.811,6.71-12.54l10.12-17.381
		h11l-22.55,36.081l23.1,38.06H316.394z"/>
	<path d="M353.573,405.587h-22.55v-8.141h54.89v8.141h-22.66v66h-9.68V405.587z"/>
	<path d="M432.553,436.827h-28.82v26.729h32.12v8.03h-41.69v-74.141h40.04v8.03h-30.47v23.431h28.82V436.827z"/>
	<path d="M485.46,396.126v87.781h-20.131v-6.05h12.65v-75.681h-12.65v-6.05H485.46z"/>
</g>
</svg>
