<?xml version="1.0" standalone="yes"?>

<svg version="1.1" viewBox="0.0 0.0 203.0 100.0" fill="none" stroke="none" stroke-linecap="square" stroke-miterlimit="10" xmlns="http://www.w3.org/2000/svg" xmlns:xlink="http://www.w3.org/1999/xlink"><clipPath id="p.0"><path d="m0 0l203.0 0l0 100.0l-203.0 0l0 -100.0z" clip-rule="nonzero"></path></clipPath><g clip-path="url(#p.0)"><path fill="#000000" fill-opacity="0.0" d="m0 0l203.71129 0l0 100.0l-203.71129 0z" fill-rule="nonzero"></path><path fill="#ffffff" d="m7.195538 45.020996l0 0c0 -3.8181572 3.0952287 -6.9133835 6.913386 -6.9133835l0 0c1.8335438 0 3.5919905 0.72837067 4.888503 2.0248833c1.2965107 1.2965126 2.0248833 3.0549583 2.0248833 4.8885l0 0c0 3.818161 -3.0952282 6.9133873 -6.9133863 6.9133873l0 0c-3.8181572 0 -6.913386 -3.0952263 -6.913386 -6.9133873z" fill-rule="nonzero"></path><path stroke="#000000" stroke-width="2.0" stroke-linejoin="round" stroke-linecap="butt" d="m7.195538 45.020996l0 0c0 -3.8181572 3.0952287 -6.9133835 6.913386 -6.9133835l0 0c1.8335438 0 3.5919905 0.72837067 4.888503 2.0248833c1.2965107 1.2965126 2.0248833 3.0549583 2.0248833 4.8885l0 0c0 3.818161 -3.0952282 6.9133873 -6.9133863 6.9133873l0 0c-3.8181572 0 -6.913386 -3.0952263 -6.913386 -6.9133873z" fill-rule="nonzero"></path><path fill="#ffffff" d="m181.02493 45.020996l0 0c0 -3.8181572 3.09523 -6.9133835 6.913391 -6.9133835l0 0c1.8335419 0 3.59198 0.72837067 4.888504 2.0248833c1.2965088 1.2965126 2.0248718 3.0549583 2.0248718 4.8885l0 0c0 3.818161 -3.0952148 6.9133873 -6.913376 6.9133873l0 0c-3.818161 0 -6.913391 -3.0952263 -6.913391 -6.9133873z" fill-rule="nonzero"></path><path stroke="#000000" stroke-width="2.0" stroke-linejoin="round" stroke-linecap="butt" d="m181.02493 45.020996l0 0c0 -3.8181572 3.09523 -6.9133835 6.913391 -6.9133835l0 0c1.8335419 0 3.59198 0.72837067 4.888504 2.0248833c1.2965088 1.2965126 2.0248718 3.0549583 2.0248718 4.8885l0 0c0 3.818161 -3.0952148 6.9133873 -6.913376 6.9133873l0 0c-3.818161 0 -6.913391 -3.0952263 -6.913391 -6.9133873z" fill-rule="nonzero"></path><path fill="#ffffff" d="m21.023623 22.863518l11.220472 44.88189l140.23622 0l11.220474 -44.88189z" fill-rule="nonzero"></path><path stroke="#000000" stroke-width="2.0" stroke-linejoin="round" stroke-linecap="butt" d="m21.023623 22.863518l11.220472 44.88189l140.23622 0l11.220474 -44.88189z" fill-rule="nonzero"></path><path fill="#ffffff" d="m44.46982 30.816322l6.047241 0l0 6.2992134l-6.047241 0z" fill-rule="nonzero"></path><path stroke="#000000" stroke-width="2.0" stroke-linejoin="round" stroke-linecap="butt" d="m44.46982 30.816322l6.047241 0l0 6.2992134l-6.047241 0z" fill-rule="nonzero"></path><path fill="#ffffff" d="m53.519527 30.816322l6.047241 0l0 6.2992134l-6.047241 0z" fill-rule="nonzero"></path><path stroke="#000000" stroke-width="2.0" stroke-linejoin="round" stroke-linecap="butt" d="m53.519527 30.816322l6.047241 0l0 6.2992134l-6.047241 0z" fill-rule="nonzero"></path><path fill="#ffffff" d="m71.61895 30.816322l6.047249 0l0 6.2992134l-6.047249 0z" fill-rule="nonzero"></path><path stroke="#000000" stroke-width="2.0" stroke-linejoin="round" stroke-linecap="butt" d="m71.61895 30.816322l6.047249 0l0 6.2992134l-6.047249 0z" fill-rule="nonzero"></path><path fill="#ffffff" d="m89.71837 30.816322l6.047249 0l0 6.2992134l-6.047249 0z" fill-rule="nonzero"></path><path stroke="#000000" stroke-width="2.0" stroke-linejoin="round" stroke-linecap="butt" d="m89.71837 30.816322l6.047249 0l0 6.2992134l-6.047249 0z" fill-rule="nonzero"></path><path fill="#ffffff" d="m62.56924 30.816322l6.047245 0l0 6.2992134l-6.047245 0z" fill-rule="nonzero"></path><path stroke="#000000" stroke-width="2.0" stroke-linejoin="round" stroke-linecap="butt" d="m62.56924 30.816322l6.047245 0l0 6.2992134l-6.047245 0z" fill-rule="nonzero"></path><path fill="#ffffff" d="m80.66866 30.816322l6.047241 0l0 6.2992134l-6.047241 0z" fill-rule="nonzero"></path><path stroke="#000000" stroke-width="2.0" stroke-linejoin="round" stroke-linecap="butt" d="m80.66866 30.816322l6.047241 0l0 6.2992134l-6.047241 0z" fill-rule="nonzero"></path><path fill="#ffffff" d="m98.76809 30.816322l6.047241 0l0 6.2992134l-6.047241 0z" fill-rule="nonzero"></path><path stroke="#000000" stroke-width="2.0" stroke-linejoin="round" stroke-linecap="butt" d="m98.76809 30.816322l6.047241 0l0 6.2992134l-6.047241 0z" fill-rule="nonzero"></path><path fill="#ffffff" d="m107.8178 30.816322l6.047241 0l0 6.2992134l-6.047241 0z" fill-rule="nonzero"></path><path stroke="#000000" stroke-width="2.0" stroke-linejoin="round" stroke-linecap="butt" d="m107.8178 30.816322l6.047241 0l0 6.2992134l-6.047241 0z" fill-rule="nonzero"></path><path fill="#ffffff" d="m44.46982 41.871883l6.047241 0l0 6.2992134l-6.047241 0z" fill-rule="nonzero"></path><path stroke="#000000" stroke-width="2.0" stroke-linejoin="round" stroke-linecap="butt" d="m44.46982 41.871883l6.047241 0l0 6.2992134l-6.047241 0z" fill-rule="nonzero"></path><path fill="#ffffff" d="m53.519527 41.871883l6.047241 0l0 6.2992134l-6.047241 0z" fill-rule="nonzero"></path><path stroke="#000000" stroke-width="2.0" stroke-linejoin="round" stroke-linecap="butt" d="m53.519527 41.871883l6.047241 0l0 6.2992134l-6.047241 0z" fill-rule="nonzero"></path><path fill="#ffffff" d="m71.61895 41.871883l6.047249 0l0 6.2992134l-6.047249 0z" fill-rule="nonzero"></path><path stroke="#000000" stroke-width="2.0" stroke-linejoin="round" stroke-linecap="butt" d="m71.61895 41.871883l6.047249 0l0 6.2992134l-6.047249 0z" fill-rule="nonzero"></path><path fill="#ffffff" d="m89.71837 41.871883l6.047249 0l0 6.2992134l-6.047249 0z" fill-rule="nonzero"></path><path stroke="#000000" stroke-width="2.0" stroke-linejoin="round" stroke-linecap="butt" d="m89.71837 41.871883l6.047249 0l0 6.2992134l-6.047249 0z" fill-rule="nonzero"></path><path fill="#ffffff" d="m62.56924 41.871883l6.047245 0l0 6.2992134l-6.047245 0z" fill-rule="nonzero"></path><path stroke="#000000" stroke-width="2.0" stroke-linejoin="round" stroke-linecap="butt" d="m62.56924 41.871883l6.047245 0l0 6.2992134l-6.047245 0z" fill-rule="nonzero"></path><path fill="#ffffff" d="m80.66866 41.871883l6.047241 0l0 6.2992134l-6.047241 0z" fill-rule="nonzero"></path><path stroke="#000000" stroke-width="2.0" stroke-linejoin="round" stroke-linecap="butt" d="m80.66866 41.871883l6.047241 0l0 6.2992134l-6.047241 0z" fill-rule="nonzero"></path><path fill="#ffffff" d="m98.76809 41.871883l6.047241 0l0 6.2992134l-6.047241 0z" fill-rule="nonzero"></path><path stroke="#000000" stroke-width="2.0" stroke-linejoin="round" stroke-linecap="butt" d="m98.76809 41.871883l6.047241 0l0 6.2992134l-6.047241 0z" fill-rule="nonzero"></path><path fill="#ffffff" d="m107.8178 41.871883l6.047241 0l0 6.2992134l-6.047241 0z" fill-rule="nonzero"></path><path stroke="#000000" stroke-width="2.0" stroke-linejoin="round" stroke-linecap="butt" d="m107.8178 41.871883l6.047241 0l0 6.2992134l-6.047241 0z" fill-rule="nonzero"></path><path fill="#ffffff" d="m44.46982 52.92745l6.047241 0l0 6.2992096l-6.047241 0z" fill-rule="nonzero"></path><path stroke="#000000" stroke-width="2.0" stroke-linejoin="round" stroke-linecap="butt" d="m44.46982 52.92745l6.047241 0l0 6.2992096l-6.047241 0z" fill-rule="nonzero"></path><path fill="#ffffff" d="m53.519527 52.92745l6.047241 0l0 6.2992096l-6.047241 0z" fill-rule="nonzero"></path><path stroke="#000000" stroke-width="2.0" stroke-linejoin="round" stroke-linecap="butt" d="m53.519527 52.92745l6.047241 0l0 6.2992096l-6.047241 0z" fill-rule="nonzero"></path><path fill="#ffffff" d="m71.61895 52.92745l6.047249 0l0 6.2992096l-6.047249 0z" fill-rule="nonzero"></path><path stroke="#000000" stroke-width="2.0" stroke-linejoin="round" stroke-linecap="butt" d="m71.61895 52.92745l6.047249 0l0 6.2992096l-6.047249 0z" fill-rule="nonzero"></path><path fill="#ffffff" d="m89.71837 52.92745l6.047249 0l0 6.2992096l-6.047249 0z" fill-rule="nonzero"></path><path stroke="#000000" stroke-width="2.0" stroke-linejoin="round" stroke-linecap="butt" d="m89.71837 52.92745l6.047249 0l0 6.2992096l-6.047249 0z" fill-rule="nonzero"></path><path fill="#ffffff" d="m62.56924 52.92745l6.047245 0l0 6.2992096l-6.047245 0z" fill-rule="nonzero"></path><path stroke="#000000" stroke-width="2.0" stroke-linejoin="round" stroke-linecap="butt" d="m62.56924 52.92745l6.047245 0l0 6.2992096l-6.047245 0z" fill-rule="nonzero"></path><path fill="#ffffff" d="m80.66866 52.92745l6.047241 0l0 6.2992096l-6.047241 0z" fill-rule="nonzero"></path><path stroke="#000000" stroke-width="2.0" stroke-linejoin="round" stroke-linecap="butt" d="m80.66866 52.92745l6.047241 0l0 6.2992096l-6.047241 0z" fill-rule="nonzero"></path><path fill="#ffffff" d="m98.76809 52.92745l6.047241 0l0 6.2992096l-6.047241 0z" fill-rule="nonzero"></path><path stroke="#000000" stroke-width="2.0" stroke-linejoin="round" stroke-linecap="butt" d="m98.76809 52.92745l6.047241 0l0 6.2992096l-6.047241 0z" fill-rule="nonzero"></path><path fill="#ffffff" d="m107.8178 52.92745l6.047241 0l0 6.2992096l-6.047241 0z" fill-rule="nonzero"></path><path stroke="#000000" stroke-width="2.0" stroke-linejoin="round" stroke-linecap="butt" d="m107.8178 52.92745l6.047241 0l0 6.2992096l-6.047241 0z" fill-rule="nonzero"></path><path fill="#000000" fill-opacity="0.0" d="m123.02362 28.677166l0 30.771652" fill-rule="nonzero"></path><path stroke="#000000" stroke-width="2.0" stroke-linejoin="round" stroke-linecap="butt" d="m123.02362 28.677166l0 30.771652" fill-rule="nonzero"></path><path fill="#000000" fill-opacity="0.0" d="m147.13124 44.472443l19.936996 0" fill-rule="nonzero"></path><path stroke="#000000" stroke-width="2.0" stroke-linejoin="round" stroke-linecap="butt" d="m147.13124 44.472443l19.936996 0" fill-rule="nonzero"></path></g></svg>

