<?xml version="1.0" standalone="yes"?>

<svg version="1.1" viewBox="0.0 0.0 288.0 115.0" fill="none" stroke="none" stroke-linecap="square" stroke-miterlimit="10" xmlns="http://www.w3.org/2000/svg" xmlns:xlink="http://www.w3.org/1999/xlink"><clipPath id="p.0"><path d="m0 0l288.0 0l0 115.0l-288.0 0l0 -115.0z" clip-rule="nonzero"></path></clipPath><g clip-path="url(#p.0)"><path fill="#000000" fill-opacity="0.0" d="m0 0l288.0 0l0 115.0l-288.0 0z" fill-rule="nonzero"></path><path fill="#ffffff" d="m12.0 8.503937l264.0 0l0 98.99213l-264.0 0z" fill-rule="nonzero"></path><path stroke="#000000" stroke-width="2.0" stroke-linejoin="round" stroke-linecap="butt" d="m12.0 8.503937l264.0 0l0 98.99213l-264.0 0z" fill-rule="nonzero"></path><path fill="#000000" d="m114.0 32.0l145.00787 0l0 53.984253l-145.00787 0z" fill-rule="nonzero"></path><path stroke="#000000" stroke-width="2.0" stroke-linejoin="round" stroke-linecap="butt" d="m114.0 32.0l145.00787 0l0 53.984253l-145.00787 0z" fill-rule="nonzero"></path><path fill="#ffffff" d="m149.56644 77.071495l0 -29.265621l6.203125 0l0 2.328125l-3.390625 0l0 24.609371l3.390625 0l0 2.328125l-6.203125 0zm15.015625 -6.359375l0 -20.203121l-7.546875 0l0 -2.703125l18.15625 0l0 2.703125l-7.578125 0l0 20.203121l-3.03125 0zm11.390625 0l8.859375 -11.937496l-7.8125 -10.96875l3.609375 0l4.15625 5.875q1.296875 1.828125 1.84375 2.8125q0.765625 -1.25 1.8125 -2.609375l4.609375 -6.078125l3.296875 0l-8.046875 10.796875l8.671875 12.109371l-3.75 0l-5.765625 -8.171871q-0.484375 -0.703125 -1.0 -1.53125q-0.765625 1.25 -1.09375 1.71875l-5.75 7.984371l-3.640625 0zm29.5 0l0 -20.203121l-7.546875 0l0 -2.703125l18.15625 0l0 2.703125l-7.578125 0l0 20.203121l-3.03125 0zm18.0625 6.359375l-6.203125 0l0 -2.328125l3.390625 0l0 -24.609371l-3.390625 0l0 -2.328125l6.203125 0l0 29.265621z" fill-rule="nonzero"></path><path fill="#ffffff" d="m36.0 58.0l0 0c0 -14.907341 12.084785 -26.992126 26.992126 -26.992126l0 0c7.15876 0 14.024307 2.8438072 19.086311 7.9058113c5.0620117 5.062004 7.905815 11.927559 7.905815 19.086315l0 0c0 14.907341 -12.084785 26.992126 -26.992126 26.992126l0 0c-14.907341 0 -26.992126 -12.084785 -26.992126 -26.992126z" fill-rule="nonzero"></path><path stroke="#000000" stroke-width="2.0" stroke-linejoin="round" stroke-linecap="butt" d="m36.0 58.0l0 0c0 -14.907341 12.084785 -26.992126 26.992126 -26.992126l0 0c7.15876 0 14.024307 2.8438072 19.086311 7.9058113c5.0620117 5.062004 7.905815 11.927559 7.905815 19.086315l0 0c0 14.907341 -12.084785 26.992126 -26.992126 26.992126l0 0c-14.907341 0 -26.992126 -12.084785 -26.992126 -26.992126z" fill-rule="nonzero"></path></g></svg>

