<?xml version="1.0" standalone="yes"?>

<svg version="1.1" viewBox="0.0 0.0 348.0 348.0" fill="none" stroke="none" stroke-linecap="square" stroke-miterlimit="10" xmlns="http://www.w3.org/2000/svg" xmlns:xlink="http://www.w3.org/1999/xlink"><clipPath id="p.0"><path d="m0 0l348.0 0l0 348.0l-348.0 0l0 -348.0z" clip-rule="nonzero"></path></clipPath><g clip-path="url(#p.0)"><path fill="#000000" fill-opacity="0.0" d="m0 0l348.0 0l0 348.0l-348.0 0z" fill-rule="nonzero"></path><path fill="#ffffff" d="m-6.0 0l348.0 0l0 347.9685l-348.0 0z" fill-rule="nonzero"></path><path fill="#000000" fill-opacity="0.0" d="m5.07874 5.7758217l336.9134 0l0 337.6693l-336.9134 0z" fill-rule="nonzero"></path><path stroke="#000000" stroke-width="2.0" stroke-linejoin="round" stroke-linecap="butt" d="m5.07874 5.7758217l336.9134 0l0 337.6693l-336.9134 0z" fill-rule="nonzero"></path><path fill="#ffffff" d="m282.73444 40.553925l0 0c0 -8.375591 6.966034 -15.165352 15.5590515 -15.165352l0 0c4.126526 0 8.084015 1.5977726 11.001923 4.441828c2.9178772 2.844057 4.557129 6.7014217 4.557129 10.723524l0 0c0 8.375595 -6.9660034 15.165356 -15.5590515 15.165356l0 0c-8.593018 0 -15.5590515 -6.7897606 -15.5590515 -15.165356z" fill-rule="nonzero"></path><path stroke="#000000" stroke-width="2.0" stroke-linejoin="round" stroke-linecap="butt" d="m282.73444 40.553925l0 0c0 -8.375591 6.966034 -15.165352 15.5590515 -15.165352l0 0c4.126526 0 8.084015 1.5977726 11.001923 4.441828c2.9178772 2.844057 4.557129 6.7014217 4.557129 10.723524l0 0c0 8.375595 -6.9660034 15.165356 -15.5590515 15.165356l0 0c-8.593018 0 -15.5590515 -6.7897606 -15.5590515 -15.165356z" fill-rule="nonzero"></path><path fill="#000000" fill-opacity="0.0" d="m38.37008 95.73661l107.21261 0l0 100.18897l-107.21261 0z" fill-rule="nonzero"></path><path stroke="#000000" stroke-width="1.0" stroke-linejoin="round" stroke-linecap="butt" d="m38.37008 95.73661l107.21261 0l0 100.18897l-107.21261 0z" fill-rule="nonzero"></path><path fill="#000000" d="m111.960754 161.6141l-0.65625 4.90625q-1.3125 0.15625 -2.34375 0.15625q-1.125 0 -2.4375 -0.1875q-7.75 -1.09375 -7.75 -8.65625q0 -0.96875 0.125 -1.875l2.03125 -14.8125l-23.8125 15.40625l-0.75 -0.09375l3.75 -26.59375q0.125 -0.875 0.125 -1.46875q0 -4.1562424 -4.1875 -4.1562424q-1.78125 0 -4.0625 0.375l0.71875 -4.90625q1.375 -0.15625 2.34375 -0.15625q1.0625 0 2.40625 0.1875q7.78125 1.09375 7.78125 8.656242q0 0.96875 -0.125 1.875l-2.125 15.15625l23.84375 -15.46875l0.71875 0.0625l-3.6875 26.3125q-0.125 0.90625 -0.125 1.46875q0 4.21875 4.1875 4.21875q1.84375 0 4.03125 -0.40625z" fill-rule="nonzero"></path><path fill="#000000" fill-opacity="0.0" d="m152.48032 95.73661l107.212585 0l0 100.18897l-107.212585 0z" fill-rule="nonzero"></path><path stroke="#000000" stroke-width="1.0" stroke-linejoin="round" stroke-linecap="butt" d="m152.48032 95.73661l107.212585 0l0 100.18897l-107.212585 0z" fill-rule="nonzero"></path><path fill="#000000" d="m229.14911 164.9891q-3.34375 1.96875 -7.53125 1.96875q-5.125 0 -9.09375 -1.8125q-4.0 1.8125 -9.125 1.8125q-9.8125 0 -14.875 -6.875q-4.59375 -6.25 -4.59375 -17.15625q0 -10.3125 4.5 -16.828117q4.5 -6.515625 11.6875 -6.515625q4.1875 0 6.90625 1.75l-2.5 4.53125q-1.8125 -1.09375 -4.40625 -1.09375q-4.46875 0 -7.28125 5.5624924q-2.65625 5.1875 -2.65625 12.5625q0 8.09375 2.90625 13.03125q3.40625 5.84375 10.3125 5.84375q2.0625 0 3.875 -0.4375q-5.59375 -6.09375 -5.59375 -18.0q0 -18.562492 11.28125 -18.562492q5.15625 0 8.03125 5.6249924q2.5625 5.09375 2.5625 12.9375q0 11.875 -5.71875 18.0q1.84375 0.4375 3.84375 0.4375q2.59375 0 4.96875 -1.5l2.5 4.71875zm-11.28125 -21.65625q0 -5.3125 -1.15625 -9.0q-1.34375 -4.28125 -3.75 -4.28125q-5.4375 0 -5.4375 13.0q0 10.9375 5.0625 15.5625q5.28125 -4.71875 5.28125 -15.28125z" fill-rule="nonzero"></path><path fill="#000000" fill-opacity="0.0" d="m38.37008 206.52081l107.21261 0l0 100.188965l-107.21261 0z" fill-rule="nonzero"></path><path stroke="#000000" stroke-width="1.0" stroke-linejoin="round" stroke-linecap="butt" d="m38.37008 206.52081l107.21261 0l0 100.188965l-107.21261 0z" fill-rule="nonzero"></path><path fill="#000000" d="m111.898254 254.39832q0 14.8125 -10.5 20.5625q-5.0625 2.78125 -11.125 2.78125q-6.78125 0 -11.5 -3.4375q-4.71875 -3.4375 -6.59375 -9.90625l5.96875 -1.40625q3.0625 9.5625 12.25 9.5625q10.65625 0 13.8125 -9.34375q1.4375 -4.28125 1.4375 -8.78125q0 -12.53125 -7.0 -16.71875q-3.59375 -2.15625 -7.78125 -2.15625q-10.875 0 -13.40625 11.65625l-6.0625 -1.53125q1.84375 -7.25 6.65625 -11.21875q4.9375 -4.09375 12.3125 -4.09375q14.15625 0 19.125 11.75q2.40625 5.6875 2.40625 12.28125zm-24.3125 -3.0625l6.40625 0l0 6.40625l-6.40625 0l0 -6.40625z" fill-rule="nonzero"></path><path fill="#000000" fill-opacity="0.0" d="m152.48032 206.52081l107.212585 0l0 100.188965l-107.212585 0z" fill-rule="nonzero"></path><path stroke="#000000" stroke-width="1.0" stroke-linejoin="round" stroke-linecap="butt" d="m152.48032 206.52081l107.212585 0l0 100.188965l-107.212585 0z" fill-rule="nonzero"></path><path fill="#000000" d="m210.47723 257.74207l-6.40625 0l0 -6.40625l6.40625 0l0 6.40625zm16.1875 4.6875q-1.84375 7.25 -6.65625 11.21875q-4.9375 4.09375 -12.3125 4.09375q-14.125 0 -19.09375 -11.75q-2.4375 -5.75 -2.4375 -12.28125q0 -14.8125 10.53125 -20.59375q5.03125 -2.75 11.09375 -2.75q6.78125 0 11.5 3.4375q4.71875 3.4375 6.59375 9.90625l-5.96875 1.40625q-3.0625 -9.5625 -12.25 -9.5625q-4.9375 0 -8.5 2.3125q-3.78125 2.46875 -5.3125 7.0q-1.4375 4.28125 -1.4375 8.8125q0 12.53125 7.0 16.71875q3.59375 2.15625 7.78125 2.15625q10.875 0 13.40625 -11.65625l6.0625 1.53125z" fill-rule="nonzero"></path><path fill="#000000" d="m82.10236 102.049866l19.748032 0l0 5.6377945l-19.748032 0z" fill-rule="nonzero"></path><path stroke="#000000" stroke-width="2.0" stroke-linejoin="round" stroke-linecap="butt" d="m82.10236 102.049866l19.748032 0l0 5.6377945l-19.748032 0z" fill-rule="nonzero"></path><path fill="#000000" d="m196.2126 102.049866l19.748032 0l0 5.6377945l-19.748032 0z" fill-rule="nonzero"></path><path stroke="#000000" stroke-width="2.0" stroke-linejoin="round" stroke-linecap="butt" d="m196.2126 102.049866l19.748032 0l0 5.6377945l-19.748032 0z" fill-rule="nonzero"></path><path fill="#000000" d="m82.10236 213.52493l19.748032 0l0 5.637802l-19.748032 0z" fill-rule="nonzero"></path><path stroke="#000000" stroke-width="2.0" stroke-linejoin="round" stroke-linecap="butt" d="m82.10236 213.52493l19.748032 0l0 5.637802l-19.748032 0z" fill-rule="nonzero"></path><path fill="#000000" d="m196.2126 213.52493l19.748032 0l0 5.637802l-19.748032 0z" fill-rule="nonzero"></path><path stroke="#000000" stroke-width="2.0" stroke-linejoin="round" stroke-linecap="butt" d="m196.2126 213.52493l19.748032 0l0 5.637802l-19.748032 0z" fill-rule="nonzero"></path></g></svg>

