<?xml version="1.0" encoding="utf-8"?><svg width="100%" height="100%" viewBox="0 0 300 300" preserveAspectRatio="xMidYMid meet" version="1.1" xmlns="http://www.w3.org/2000/svg"><circle cx="25" cy="25" r="3" stroke="black" fill="grey" stroke-width="1" /><line x1="0" x2="50" y1="0" y2="0" stroke="black" stroke-width="10" stroke-dasharray="" fill="none" /><line x1="0" x2="0" y1="0" y2="50" stroke="black" stroke-width="10" stroke-dasharray="" fill="none" /><circle cx="25" cy="75" r="3" stroke="black" fill="grey" stroke-width="1" /><line x1="0" x2="0" y1="50" y2="100" stroke="black" stroke-width="10" stroke-dasharray="" fill="none" /><circle cx="25" cy="125" r="3" stroke="black" fill="grey" stroke-width="1" /><line x1="0" x2="50" y1="100" y2="100" stroke="black" stroke-width="3" stroke-dasharray="" fill="none" /><line x1="0" x2="0" y1="100" y2="150" stroke="black" stroke-width="10" stroke-dasharray="" fill="none" /><circle cx="25" cy="175" r="3" stroke="black" fill="grey" stroke-width="1" /><line x1="0" x2="0" y1="150" y2="200" stroke="black" stroke-width="10" stroke-dasharray="" fill="none" /><circle cx="25" cy="225" r="3" stroke="black" fill="grey" stroke-width="1" /><line x1="0" x2="0" y1="200" y2="250" stroke="black" stroke-width="10" stroke-dasharray="" fill="none" /><circle cx="25" cy="275" r="3" stroke="black" fill="grey" stroke-width="1" /><line x1="0" x2="0" y1="250" y2="300" stroke="black" stroke-width="10" stroke-dasharray="" fill="none" /><line x1="0" x2="50" y1="300" y2="300" stroke="black" stroke-width="10" stroke-dasharray="" fill="none" /><circle cx="75" cy="25" r="3" stroke="black" fill="grey" stroke-width="1" /><line x1="50" x2="100" y1="0" y2="0" stroke="black" stroke-width="10" stroke-dasharray="" fill="none" /><circle cx="75" cy="75" r="3" stroke="black" fill="grey" stroke-width="1" /><line x1="50" x2="100" y1="50" y2="50" stroke="black" stroke-width="3" stroke-dasharray="" fill="none" /><line x1="50" x2="50" y1="50" y2="100" stroke="black" stroke-width="3" stroke-dasharray="" fill="none" /><circle cx="75" cy="125" r="3" stroke="black" fill="grey" stroke-width="1" /><circle cx="75" cy="175" r="3" stroke="black" fill="grey" stroke-width="1" /><line x1="50" x2="50" y1="150" y2="200" stroke="black" stroke-width="3" stroke-dasharray="" fill="none" /><circle cx="75" cy="225" r="3" stroke="black" fill="grey" stroke-width="1" /><line x1="50" x2="50" y1="200" y2="250" stroke="black" stroke-width="3" stroke-dasharray="" fill="none" /><circle cx="75" cy="275" r="3" stroke="black" fill="grey" stroke-width="1" /><line x1="50" x2="100" y1="250" y2="250" stroke="black" stroke-width="3" stroke-dasharray="" fill="none" /><line x1="50" x2="100" y1="300" y2="300" stroke="black" stroke-width="10" stroke-dasharray="" fill="none" /><circle cx="125" cy="25" r="3" stroke="black" fill="grey" stroke-width="1" /><line x1="100" x2="150" y1="0" y2="0" stroke="black" stroke-width="10" stroke-dasharray="" fill="none" /><circle cx="125" cy="75" r="3" stroke="black" fill="grey" stroke-width="1" /><line x1="100" x2="100" y1="50" y2="100" stroke="black" stroke-width="3" stroke-dasharray="" fill="none" /><circle cx="125" cy="125" r="3" stroke="black" fill="grey" stroke-width="1" /><line x1="100" x2="100" y1="100" y2="150" stroke="black" stroke-width="3" stroke-dasharray="" fill="none" /><circle cx="125" cy="175" r="3" stroke="black" fill="grey" stroke-width="1" /><line x1="100" x2="100" y1="150" y2="200" stroke="black" stroke-width="3" stroke-dasharray="" fill="none" /><circle cx="125" cy="225" r="3" stroke="black" fill="grey" stroke-width="1" /><circle cx="125" cy="275" r="3" stroke="black" fill="grey" stroke-width="1" /><line x1="100" x2="150" y1="250" y2="250" stroke="black" stroke-width="3" stroke-dasharray="" fill="none" /><line x1="100" x2="150" y1="300" y2="300" stroke="black" stroke-width="10" stroke-dasharray="" fill="none" /><circle cx="175" cy="25" r="3" stroke="black" fill="grey" stroke-width="1" /><line x1="150" x2="200" y1="0" y2="0" stroke="black" stroke-width="10" stroke-dasharray="" fill="none" /><line x1="150" x2="150" y1="0" y2="50" stroke="black" stroke-width="3" stroke-dasharray="" fill="none" /><circle cx="175" cy="75" r="3" stroke="black" fill="grey" stroke-width="1" /><line x1="150" x2="150" y1="50" y2="100" stroke="black" stroke-width="3" stroke-dasharray="" fill="none" /><circle cx="175" cy="125" r="3" stroke="black" fill="grey" stroke-width="1" /><line x1="150" x2="200" y1="100" y2="100" stroke="black" stroke-width="3" stroke-dasharray="" fill="none" /><line x1="150" x2="150" y1="100" y2="150" stroke="black" stroke-width="3" stroke-dasharray="" fill="none" /><circle cx="175" cy="175" r="3" stroke="black" fill="grey" stroke-width="1" /><circle cx="175" cy="175" r="15" stroke="black" fill="none" stroke-width="1" /><line x1="150" x2="150" y1="150" y2="200" stroke="black" stroke-width="3" stroke-dasharray="" fill="none" /><circle cx="175" cy="225" r="3" stroke="black" fill="grey" stroke-width="1" /><line x1="150" x2="150" y1="200" y2="250" stroke="black" stroke-width="3" stroke-dasharray="" fill="none" /><circle cx="175" cy="275" r="3" stroke="black" fill="grey" stroke-width="1" /><line x1="150" x2="200" y1="300" y2="300" stroke="black" stroke-width="10" stroke-dasharray="" fill="none" /><circle cx="225" cy="25" r="3" stroke="black" fill="grey" stroke-width="1" /><line x1="200" x2="250" y1="0" y2="0" stroke="black" stroke-width="10" stroke-dasharray="" fill="none" /><line x1="200" x2="200" y1="0" y2="50" stroke="black" stroke-width="3" stroke-dasharray="" fill="none" /><circle cx="225" cy="75" r="3" stroke="black" fill="grey" stroke-width="1" /><circle cx="225" cy="125" r="3" stroke="black" fill="grey" stroke-width="1" /><line x1="200" x2="250" y1="100" y2="100" stroke="black" stroke-width="3" stroke-dasharray="" fill="none" /><circle cx="225" cy="175" r="3" stroke="black" fill="grey" stroke-width="1" /><line x1="200" x2="200" y1="150" y2="200" stroke="black" stroke-width="3" stroke-dasharray="" fill="none" /><circle cx="225" cy="225" r="3" stroke="black" fill="grey" stroke-width="1" /><line x1="200" x2="200" y1="200" y2="250" stroke="black" stroke-width="3" stroke-dasharray="" fill="none" /><circle cx="225" cy="275" r="3" stroke="black" fill="grey" stroke-width="1" /><line x1="200" x2="200" y1="250" y2="300" stroke="black" stroke-width="3" stroke-dasharray="" fill="none" /><line x1="200" x2="250" y1="300" y2="300" stroke="black" stroke-width="10" stroke-dasharray="" fill="none" /><circle cx="275" cy="25" r="3" stroke="black" fill="grey" stroke-width="1" /><line x1="250" x2="300" y1="0" y2="0" stroke="black" stroke-width="10" stroke-dasharray="" fill="none" /><line x1="300" x2="300" y1="0" y2="50" stroke="black" stroke-width="10" stroke-dasharray="" fill="none" /><circle cx="275" cy="75" r="3" stroke="black" fill="grey" stroke-width="1" /><line x1="250" x2="250" y1="50" y2="100" stroke="black" stroke-width="3" stroke-dasharray="" fill="none" /><line x1="300" x2="300" y1="50" y2="100" stroke="black" stroke-width="10" stroke-dasharray="" fill="none" /><circle cx="275" cy="125" r="3" stroke="black" fill="grey" stroke-width="1" /><line x1="250" x2="250" y1="100" y2="150" stroke="black" stroke-width="3" stroke-dasharray="" fill="none" /><line x1="300" x2="300" y1="100" y2="150" stroke="black" stroke-width="10" stroke-dasharray="" fill="none" /><circle cx="275" cy="175" r="3" stroke="black" fill="grey" stroke-width="1" /><circle cx="275" cy="175" r="15" stroke="black" fill="none" stroke-width="1" /><line x1="250" x2="250" y1="150" y2="200" stroke="black" stroke-width="3" stroke-dasharray="" fill="none" /><line x1="300" x2="300" y1="150" y2="200" stroke="black" stroke-width="10" stroke-dasharray="" fill="none" /><circle cx="275" cy="225" r="3" stroke="black" fill="grey" stroke-width="1" /><line x1="250" x2="250" y1="200" y2="250" stroke="black" stroke-width="3" stroke-dasharray="" fill="none" /><line x1="300" x2="300" y1="200" y2="250" stroke="black" stroke-width="10" stroke-dasharray="" fill="none" /><circle cx="275" cy="275" r="3" stroke="black" fill="grey" stroke-width="1" /><line x1="300" x2="300" y1="250" y2="300" stroke="black" stroke-width="10" stroke-dasharray="" fill="none" /><line x1="250" x2="300" y1="300" y2="300" stroke="black" stroke-width="10" stroke-dasharray="" fill="none" /></svg>