<?xml version="1.0" standalone="yes"?>

<svg version="1.1" viewBox="0.0 0.0 348.0 348.0" fill="none" stroke="none" stroke-linecap="square" stroke-miterlimit="10" xmlns="http://www.w3.org/2000/svg" xmlns:xlink="http://www.w3.org/1999/xlink"><clipPath id="p.0"><path d="m0 0l348.0 0l0 348.0l-348.0 0l0 -348.0z" clip-rule="nonzero"></path></clipPath><g clip-path="url(#p.0)"><path fill="#000000" fill-opacity="0.0" d="m0 0l348.0 0l0 348.0l-348.0 0z" fill-rule="nonzero"></path><path fill="#ffffff" d="m-6.0 0l348.0 0l0 347.9685l-348.0 0z" fill-rule="nonzero"></path><path fill="#000000" fill-opacity="0.0" d="m5.07874 5.7758217l336.9134 0l0 337.6693l-336.9134 0z" fill-rule="nonzero"></path><path stroke="#000000" stroke-width="2.0" stroke-linejoin="round" stroke-linecap="butt" d="m5.07874 5.7758217l336.9134 0l0 337.6693l-336.9134 0z" fill-rule="nonzero"></path><path fill="#ffffff" d="m282.73444 40.553925l0 0c0 -8.375591 6.966034 -15.165352 15.5590515 -15.165352l0 0c4.126526 0 8.084015 1.5977726 11.001923 4.441828c2.9178772 2.844057 4.557129 6.7014217 4.557129 10.723524l0 0c0 8.375595 -6.9660034 15.165356 -15.5590515 15.165356l0 0c-8.593018 0 -15.5590515 -6.7897606 -15.5590515 -15.165356z" fill-rule="nonzero"></path><path stroke="#000000" stroke-width="2.0" stroke-linejoin="round" stroke-linecap="butt" d="m282.73444 40.553925l0 0c0 -8.375591 6.966034 -15.165352 15.5590515 -15.165352l0 0c4.126526 0 8.084015 1.5977726 11.001923 4.441828c2.9178772 2.844057 4.557129 6.7014217 4.557129 10.723524l0 0c0 8.375595 -6.9660034 15.165356 -15.5590515 15.165356l0 0c-8.593018 0 -15.5590515 -6.7897606 -15.5590515 -15.165356z" fill-rule="nonzero"></path><path fill="#ffffff" d="m117.83202 290.61154l87.90551 0l0 34.80316l-87.90551 0z" fill-rule="nonzero"></path><path stroke="#000000" stroke-width="2.0" stroke-linejoin="round" stroke-linecap="butt" d="m117.83202 290.61154l87.90551 0l0 34.80316l-87.90551 0z" fill-rule="nonzero"></path><path fill="#000000" d="m154.78688 314.93314l0 -12.0l-4.46875 0l0 -1.59375l10.765625 0l0 1.59375l-4.5 0l0 12.0l-1.796875 0zm6.552231 0l5.265625 -7.09375l-4.640625 -6.5l2.140625 0l2.46875 3.484375q0.78125 1.078125 1.09375 1.671875q0.453125 -0.75 1.078125 -1.546875l2.734375 -3.609375l1.96875 0l-4.78125 6.40625l5.140625 7.1875l-2.21875 0l-3.421875 -4.859375q-0.296875 -0.40625 -0.59375 -0.90625q-0.453125 0.75 -0.65625 1.03125l-3.40625 4.734375l-2.171875 0z" fill-rule="nonzero"></path><path fill="#ffffff" d="m16.482939 118.44095l302.83466 0l0 157.5433l-302.83466 0z" fill-rule="nonzero"></path><path stroke="#000000" stroke-width="2.0" stroke-linejoin="round" stroke-linecap="butt" d="m16.482939 118.44095l302.83466 0l0 157.5433l-302.83466 0z" fill-rule="nonzero"></path><path fill="#000000" d="m58.66142 187.43045l218.67717 0l0 72.031494l-218.67717 0z" fill-rule="nonzero"></path><path fill="#ffffff" d="m72.978516 230.28369l3.515625 -0.46875q0.59375 2.984375 2.046875 4.3125q1.46875 1.3125 3.546875 1.3125q2.484375 0 4.1875 -1.71875q1.71875 -1.71875 1.71875 -4.25q0 -2.421875 -1.59375 -4.0q-1.578125 -1.578125 -4.015625 -1.578125q-1.0 0 -2.484375 0.390625l0.390625 -3.078125q0.359375 0.03125 0.578125 0.03125q2.234375 0 4.03125 -1.171875q1.796875 -1.171875 1.796875 -3.609375q0 -1.9375 -1.3125 -3.203125q-1.296875 -1.265625 -3.375 -1.265625q-2.046875 0 -3.421875 1.296875q-1.359375 1.28125 -1.75 3.859375l-3.515625 -0.625q0.640625 -3.53125 2.921875 -5.46875q2.296875 -1.953125 5.6875 -1.953125q2.34375 0 4.3125 1.015625q1.984375 1.0 3.03125 2.734375q1.046875 1.734375 1.046875 3.6875q0 1.859375 -1.0 3.390625q-1.0 1.515625 -2.953125 2.40625q2.546875 0.59375 3.953125 2.4375q1.40625 1.84375 1.40625 4.625q0 3.75 -2.734375 6.359375q-2.734375 2.609375 -6.921875 2.609375q-3.765625 0 -6.265625 -2.25q-2.484375 -2.25 -2.828125 -5.828125zm24.199219 7.5625l0 -4.0l4.0 0l0 4.0l-4.0 0zm9.128906 -7.5l3.703125 -0.3125q0.40625 2.6875 1.890625 4.046875q1.5 1.359375 3.609375 1.359375q2.546875 0 4.296875 -1.90625q1.765625 -1.921875 1.765625 -5.078125q0 -3.015625 -1.703125 -4.75q-1.6875 -1.734375 -4.421875 -1.734375q-1.6875 0 -3.0625 0.765625q-1.359375 0.765625 -2.140625 2.0l-3.3125 -0.421875l2.78125 -14.71875l14.234375 0l0 3.359375l-11.421875 0l-1.546875 7.703125q2.578125 -1.796875 5.40625 -1.796875q3.75 0 6.328125 2.59375q2.578125 2.59375 2.578125 6.6875q0 3.875 -2.265625 6.71875q-2.75 3.46875 -7.515625 3.46875q-3.90625 0 -6.375 -2.1875q-2.46875 -2.1875 -2.828125 -5.796875zm22.246094 -6.625q0 -5.078125 1.046875 -8.171875q1.046875 -3.09375 3.109375 -4.765625q2.0625 -1.6875 5.1875 -1.6875q2.296875 0 4.03125 0.9375q1.75 0.921875 2.875 2.671875q1.140625 1.734375 1.78125 4.25q0.640625 2.515625 0.640625 6.765625q0 5.046875 -1.03125 8.140625q-1.03125 3.09375 -3.09375 4.78125q-2.0625 1.6875 -5.203125 1.6875q-4.140625 0 -6.5 -2.96875q-2.84375 -3.578125 -2.84375 -11.640625zm3.625 0q0 7.046875 1.640625 9.390625q1.65625 2.328125 4.078125 2.328125q2.421875 0 4.0625 -2.34375q1.65625 -2.34375 1.65625 -9.375q0 -7.0625 -1.65625 -9.390625q-1.640625 -2.328125 -4.109375 -2.328125q-2.421875 0 -3.859375 2.046875q-1.8125 2.625 -1.8125 9.671875zm18.621094 0q0 -5.078125 1.046875 -8.171875q1.046875 -3.09375 3.109375 -4.765625q2.0625 -1.6875 5.1875 -1.6875q2.296875 0 4.03125 0.9375q1.75 0.921875 2.875 2.671875q1.140625 1.734375 1.78125 4.25q0.640625 2.515625 0.640625 6.765625q0 5.046875 -1.03125 8.140625q-1.03125 3.09375 -3.09375 4.78125q-2.0625 1.6875 -5.203125 1.6875q-4.140625 0 -6.5 -2.96875q-2.84375 -3.578125 -2.84375 -11.640625zm3.625 0q0 7.046875 1.640625 9.390625q1.65625 2.328125 4.078125 2.328125q2.421875 0 4.0625 -2.34375q1.65625 -2.34375 1.65625 -9.375q0 -7.0625 -1.65625 -9.390625q-1.640625 -2.328125 -4.109375 -2.328125q-2.421875 0 -3.859375 2.046875q-1.8125 2.625 -1.8125 9.671875zm31.046875 14.125l0 -28.640625l5.7031403 0l6.78125 20.28125q0.9375 2.828125 1.359375 4.234375q0.5 -1.5625 1.53125 -4.59375l6.859375 -19.921875l5.09375 0l0 28.640625l-3.65625 0l0 -23.96875l-8.3125 23.96875l-3.421875 0l-8.28125 -24.375l0 24.375l-3.6562653 0zm33.554703 0l0 -28.640625l3.796875 0l0 11.765625l14.875 0l0 -11.765625l3.796875 0l0 28.640625l-3.796875 0l0 -13.5l-14.875 0l0 13.5l-3.796875 0zm26.464844 0l0 -2.859375l13.20311 -15.15625q-2.25 0.125 -3.9687347 0.125l-8.453125 0l0 -2.859375l16.95311 0l0 2.328125l-11.23436 13.171875l-2.15625 2.390625q2.359375 -0.171875 4.421875 -0.171875l9.593735 0l0 3.03125l-18.35936 0z" fill-rule="nonzero"></path><path fill="#000000" d="m48.307087 196.76903l-22.866142 26.67717l22.866142 26.677155z" fill-rule="nonzero"></path><path stroke="#000000" stroke-width="2.0" stroke-linejoin="round" stroke-linecap="butt" d="m48.307087 196.76903l-22.866142 26.67717l22.866142 26.677155z" fill-rule="nonzero"></path><path fill="#000000" d="m287.6929 196.76903l22.86615 26.67717l-22.86615 26.677155z" fill-rule="nonzero"></path><path stroke="#000000" stroke-width="2.0" stroke-linejoin="round" stroke-linecap="butt" d="m287.6929 196.76903l22.86615 26.67717l-22.86615 26.677155z" fill-rule="nonzero"></path><path fill="#ffffff" d="m36.632545 50.574802l0 0c0 -8.375591 26.376423 -15.165352 58.913383 -15.165352l0 0c32.536972 0 58.91339 6.7897606 58.91339 15.165352l0 0c0 8.375595 -26.37642 15.165356 -58.91339 15.165356l0 0c-32.53696 0 -58.913383 -6.7897606 -58.913383 -15.165356z" fill-rule="nonzero"></path><path stroke="#000000" stroke-width="2.0" stroke-linejoin="round" stroke-linecap="butt" d="m36.632545 50.574802l0 0c0 -8.375591 26.376423 -15.165352 58.913383 -15.165352l0 0c32.536972 0 58.91339 6.7897606 58.91339 15.165352l0 0c0 8.375595 -26.37642 15.165356 -58.91339 15.165356l0 0c-32.53696 0 -58.913383 -6.7897606 -58.913383 -15.165356z" fill-rule="nonzero"></path><path fill="#000000" fill-opacity="0.0" d="m154.45932 50.574802l119.055115 0.09449005" fill-rule="nonzero"></path><path stroke="#000000" stroke-width="2.0" stroke-linejoin="round" stroke-linecap="butt" d="m154.45932 50.574802l119.055115 0.09449005" fill-rule="nonzero"></path><path fill="#000000" fill-opacity="0.0" d="m36.632545 50.574802l-30.519684 -43.874016" fill-rule="nonzero"></path><path stroke="#000000" stroke-width="2.0" stroke-linejoin="round" stroke-linecap="butt" d="m36.632545 50.574802l-30.519684 -43.874016" fill-rule="nonzero"></path><path fill="#000000" d="m45.790028 23.199474l12.881889 0l0 53.35433l-12.881889 0z" fill-rule="nonzero"></path><path stroke="#000000" stroke-width="2.0" stroke-linejoin="round" stroke-linecap="butt" d="m45.790028 23.199474l12.881889 0l0 53.35433l-12.881889 0z" fill-rule="nonzero"></path><path fill="#000000" d="m132.35695 23.199474l12.881897 0l0 53.35433l-12.881897 0z" fill-rule="nonzero"></path><path stroke="#000000" stroke-width="2.0" stroke-linejoin="round" stroke-linecap="butt" d="m132.35695 23.199474l12.881897 0l0 53.35433l-12.881897 0z" fill-rule="nonzero"></path><path fill="#ffffff" d="m43.34646 139.81102l252.75589 0l0 30.330719l-252.75589 0z" fill-rule="nonzero"></path><path stroke="#000000" stroke-width="2.0" stroke-linejoin="round" stroke-linecap="butt" d="m43.34646 139.81102l252.75589 0l0 30.330719l-252.75589 0z" fill-rule="nonzero"></path><path fill="#000000" fill-opacity="0.0" d="m59.220474 170.94751l0 -9.763779" fill-rule="nonzero"></path><path stroke="#000000" stroke-width="2.0" stroke-linejoin="round" stroke-linecap="butt" d="m59.220474 170.94751l0 -9.763779" fill-rule="nonzero"></path><path fill="#000000" fill-opacity="0.0" d="m84.05541 139.81102l0 12.818909" fill-rule="nonzero"></path><path stroke="#000000" stroke-width="2.0" stroke-linejoin="round" stroke-linecap="butt" d="m84.05541 139.81102l0 12.818909" fill-rule="nonzero"></path><path fill="#000000" fill-opacity="0.0" d="m133.72528 139.40814l0 12.818893" fill-rule="nonzero"></path><path stroke="#000000" stroke-width="2.0" stroke-linejoin="round" stroke-linecap="butt" d="m133.72528 139.40814l0 12.818893" fill-rule="nonzero"></path><path fill="#000000" fill-opacity="0.0" d="m108.89035 170.54462l0 -9.763779" fill-rule="nonzero"></path><path stroke="#000000" stroke-width="2.0" stroke-linejoin="round" stroke-linecap="butt" d="m108.89035 170.54462l0 -9.763779" fill-rule="nonzero"></path><path fill="#000000" fill-opacity="0.0" d="m233.06503 139.40683l0 12.818893" fill-rule="nonzero"></path><path stroke="#000000" stroke-width="2.0" stroke-linejoin="round" stroke-linecap="butt" d="m233.06503 139.40683l0 12.818893" fill-rule="nonzero"></path><path fill="#000000" fill-opacity="0.0" d="m208.2301 170.5433l0 -9.763779" fill-rule="nonzero"></path><path stroke="#000000" stroke-width="2.0" stroke-linejoin="round" stroke-linecap="butt" d="m208.2301 170.5433l0 -9.763779" fill-rule="nonzero"></path><path fill="#000000" fill-opacity="0.0" d="m282.7349 139.40683l0 12.818893" fill-rule="nonzero"></path><path stroke="#000000" stroke-width="2.0" stroke-linejoin="round" stroke-linecap="butt" d="m282.7349 139.40683l0 12.818893" fill-rule="nonzero"></path><path fill="#000000" fill-opacity="0.0" d="m257.89996 170.5433l0 -9.763779" fill-rule="nonzero"></path><path stroke="#000000" stroke-width="2.0" stroke-linejoin="round" stroke-linecap="butt" d="m257.89996 170.5433l0 -9.763779" fill-rule="nonzero"></path><path fill="#000000" fill-opacity="0.0" d="m158.56023 170.54462l0 -9.763779" fill-rule="nonzero"></path><path stroke="#000000" stroke-width="2.0" stroke-linejoin="round" stroke-linecap="butt" d="m158.56023 170.54462l0 -9.763779" fill-rule="nonzero"></path><path fill="#000000" fill-opacity="0.0" d="m183.39516 139.40814l0 12.818893" fill-rule="nonzero"></path><path stroke="#000000" stroke-width="2.0" stroke-linejoin="round" stroke-linecap="butt" d="m183.39516 139.40814l0 12.818893" fill-rule="nonzero"></path><path fill="#000000" d="m64.10499 136.14699l8.535431 0l0 40.283463l-8.535431 0z" fill-rule="nonzero"></path><path stroke="#000000" stroke-width="2.0" stroke-linejoin="round" stroke-linecap="butt" d="m64.10499 136.14699l8.535431 0l0 40.283463l-8.535431 0z" fill-rule="nonzero"></path></g></svg>

