<?xml version="1.0" standalone="yes"?>

<svg version="1.1" viewBox="0.0 0.0 348.0 348.0" fill="none" stroke="none" stroke-linecap="square" stroke-miterlimit="10" xmlns="http://www.w3.org/2000/svg" xmlns:xlink="http://www.w3.org/1999/xlink"><clipPath id="p.0"><path d="m0 0l348.0 0l0 348.0l-348.0 0l0 -348.0z" clip-rule="nonzero"></path></clipPath><g clip-path="url(#p.0)"><path fill="#000000" fill-opacity="0.0" d="m0 0l348.0 0l0 348.0l-348.0 0z" fill-rule="nonzero"></path><path fill="#ffffff" d="m-6.0 0l354.01575 0l0 347.9685l-354.01575 0z" fill-rule="nonzero"></path><path fill="#000000" fill-opacity="0.0" d="m5.07874 5.7758217l336.9134 0l0 337.6693l-336.9134 0z" fill-rule="nonzero"></path><path stroke="#000000" stroke-width="2.0" stroke-linejoin="round" stroke-linecap="butt" d="m5.07874 5.7758217l336.9134 0l0 337.6693l-336.9134 0z" fill-rule="nonzero"></path><path fill="#000000" d="m133.84251 15.666667l74.33072 0l0 56.881886l-74.33072 0z" fill-rule="nonzero"></path><path fill="#ffffff" d="m154.53912 44.089794q0 -4.0625 0.828125 -6.53125q0.84375 -2.484375 2.484375 -3.828125q1.65625 -1.34375 4.15625 -1.34375q1.84375 0 3.234375 0.75q1.390625 0.734375 2.296875 2.140625q0.90625 1.390625 1.421875 3.40625q0.515625 2.0 0.515625 5.40625q0 4.03125 -0.828125 6.515625q-0.828125 2.46875 -2.484375 3.828125q-1.640625 1.34375 -4.15625 1.34375q-3.3125 0 -5.203125 -2.375q-2.265625 -2.859375 -2.265625 -9.3125zm2.890625 0q0 5.640625 1.3125 7.515625q1.328125 1.859375 3.265625 1.859375q1.9375 0 3.25 -1.875q1.328125 -1.875 1.328125 -7.5q0 -5.65625 -1.328125 -7.515625q-1.3125 -1.859375 -3.28125 -1.859375q-1.9375 0 -3.09375 1.640625q-1.453125 2.09375 -1.453125 7.734375zm14.90625 0q0 -4.0625 0.828125 -6.53125q0.84375 -2.484375 2.484375 -3.828125q1.65625 -1.34375 4.15625 -1.34375q1.84375 0 3.234375 0.75q1.390625 0.734375 2.296875 2.140625q0.90625 1.390625 1.421875 3.40625q0.515625 2.0 0.515625 5.40625q0 4.03125 -0.828125 6.515625q-0.828125 2.46875 -2.484375 3.828125q-1.640625 1.34375 -4.15625 1.34375q-3.3125 0 -5.203125 -2.375q-2.265625 -2.859375 -2.265625 -9.3125zm2.890625 0q0 5.640625 1.3125 7.515625q1.328125 1.859375 3.265625 1.859375q1.9375 0 3.25 -1.875q1.328125 -1.875 1.328125 -7.5q0 -5.65625 -1.328125 -7.515625q-1.3125 -1.859375 -3.28125 -1.859375q-1.9375 0 -3.09375 1.640625q-1.453125 2.09375 -1.453125 7.734375z" fill-rule="nonzero"></path><path fill="#ffffff" d="m145.80315 164.96063l0 0c0 -15.707504 12.416168 -28.440948 27.732285 -28.440948l0 0c7.355057 0 14.4088745 2.9964447 19.609695 8.330154c5.2008057 5.333725 8.122589 12.56778 8.122589 20.110794l0 0c0 15.707504 -12.416168 28.440948 -27.732285 28.440948l0 0c-15.316116 0 -27.732285 -12.733444 -27.732285 -28.440948z" fill-rule="nonzero"></path><path stroke="#000000" stroke-width="2.0" stroke-linejoin="round" stroke-linecap="butt" d="m145.80315 164.96063l0 0c0 -15.707504 12.416168 -28.440948 27.732285 -28.440948l0 0c7.355057 0 14.4088745 2.9964447 19.609695 8.330154c5.2008057 5.333725 8.122589 12.56778 8.122589 20.110794l0 0c0 15.707504 -12.416168 28.440948 -27.732285 28.440948l0 0c-15.316116 0 -27.732285 -12.733444 -27.732285 -28.440948z" fill-rule="nonzero"></path><path fill="#000000" fill-opacity="0.0" d="m148.85039 82.88714l52.409454 0l0 48.000008l-52.409454 0z" fill-rule="nonzero"></path><path fill="#000000" d="m168.24101 96.21339l1.796875 0l0 7.84375q0 2.0625 -0.46875 3.265625q-0.453125 1.203125 -1.671875 1.96875q-1.203125 0.75 -3.171875 0.75q-1.90625 0 -3.125 -0.65625q-1.21875 -0.65625 -1.734375 -1.90625q-0.515625 -1.25 -0.515625 -3.421875l0 -7.84375l1.796875 0l0 7.84375q0 1.765625 0.328125 2.609375q0.328125 0.84375 1.125 1.296875q0.8125 0.453125 1.96875 0.453125q1.984375 0 2.828125 -0.890625q0.84375 -0.90625 0.84375 -3.46875l0 -7.84375zm4.551071 13.59375l0 -13.59375l5.125 0q1.359375 0 2.078125 0.125q1.0 0.171875 1.671875 0.640625q0.671875 0.46875 1.078125 1.3125q0.421875 0.84375 0.421875 1.84375q0 1.734375 -1.109375 2.9375q-1.09375 1.203125 -3.984375 1.203125l-3.484375 0l0 5.53125l-1.796875 0zm1.796875 -7.140625l3.515625 0q1.75 0 2.46875 -0.640625q0.734375 -0.65625 0.734375 -1.828125q0 -0.859375 -0.4375 -1.46875q-0.421875 -0.609375 -1.125 -0.796875q-0.453125 -0.125 -1.671875 -0.125l-3.484375 0l0 4.859375z" fill-rule="nonzero"></path><path fill="#ffffff" d="m39.766403 202.43307l0 0c0 -8.018997 6.7897606 -14.519684 15.165356 -14.519684l0 0c4.0221024 0 7.879467 1.5297394 10.723522 4.252716c2.8440552 2.7229614 4.4418335 6.416107 4.4418335 10.266968l0 0c0 8.018997 -6.7897606 14.519684 -15.165356 14.519684l0 0c-8.375595 0 -15.165356 -6.5006866 -15.165356 -14.519684z" fill-rule="nonzero"></path><path stroke="#000000" stroke-width="2.0" stroke-linejoin="round" stroke-linecap="butt" d="m39.766403 202.43307l0 0c0 -8.018997 6.7897606 -14.519684 15.165356 -14.519684l0 0c4.0221024 0 7.879467 1.5297394 10.723522 4.252716c2.8440552 2.7229614 4.4418335 6.416107 4.4418335 10.266968l0 0c0 8.018997 -6.7897606 14.519684 -15.165356 14.519684l0 0c-8.375595 0 -15.165356 -6.5006866 -15.165356 -14.519684z" fill-rule="nonzero"></path><path fill="#ffffff" d="m85.020996 242.1378l0 0c0 -8.019012 6.7897644 -14.519699 15.165352 -14.519699l0 0c4.0221024 0 7.879471 1.5297546 10.723526 4.2527313c2.8440552 2.7229614 4.4418335 6.416107 4.4418335 10.266968l0 0c0 8.018997 -6.7897644 14.519669 -15.1653595 14.519669l0 0c-8.375587 0 -15.165352 -6.5006714 -15.165352 -14.519669z" fill-rule="nonzero"></path><path stroke="#000000" stroke-width="2.0" stroke-linejoin="round" stroke-linecap="butt" d="m85.020996 242.1378l0 0c0 -8.019012 6.7897644 -14.519699 15.165352 -14.519699l0 0c4.0221024 0 7.879471 1.5297546 10.723526 4.2527313c2.8440552 2.7229614 4.4418335 6.416107 4.4418335 10.266968l0 0c0 8.018997 -6.7897644 14.519669 -15.1653595 14.519669l0 0c-8.375587 0 -15.165352 -6.5006714 -15.165352 -14.519669z" fill-rule="nonzero"></path><path fill="#ffffff" d="m132.69423 280.22964l0 0c0 -8.018982 6.7897644 -14.519684 15.165344 -14.519684l0 0c4.02211 0 7.879471 1.5297546 10.723526 4.252716c2.8440552 2.722992 4.4418335 6.416107 4.4418335 10.266968l0 0c0 8.019012 -6.7897644 14.519714 -15.1653595 14.519714l0 0c-8.37558 0 -15.165344 -6.500702 -15.165344 -14.519714z" fill-rule="nonzero"></path><path stroke="#000000" stroke-width="2.0" stroke-linejoin="round" stroke-linecap="butt" d="m132.69423 280.22964l0 0c0 -8.018982 6.7897644 -14.519684 15.165344 -14.519684l0 0c4.02211 0 7.879471 1.5297546 10.723526 4.252716c2.8440552 2.722992 4.4418335 6.416107 4.4418335 10.266968l0 0c0 8.019012 -6.7897644 14.519714 -15.1653595 14.519714l0 0c-8.37558 0 -15.165344 -6.500702 -15.165344 -14.519714z" fill-rule="nonzero"></path><path fill="#ffffff" d="m41.597115 247.71391l0 0c0 -8.018997 6.789757 -14.519684 15.165352 -14.519684l0 0c4.0221024 0 7.879471 1.5297394 10.723526 4.252716c2.8440552 2.7229614 4.441826 6.416107 4.441826 10.266968l0 0c0 8.018997 -6.789757 14.519699 -15.165352 14.519699l0 0c-8.375595 0 -15.165352 -6.500702 -15.165352 -14.519699z" fill-rule="nonzero"></path><path stroke="#000000" stroke-width="2.0" stroke-linejoin="round" stroke-linecap="butt" d="m41.597115 247.71391l0 0c0 -8.018997 6.789757 -14.519684 15.165352 -14.519684l0 0c4.0221024 0 7.879471 1.5297394 10.723526 4.252716c2.8440552 2.7229614 4.441826 6.416107 4.441826 10.266968l0 0c0 8.018997 -6.789757 14.519699 -15.165352 14.519699l0 0c-8.375595 0 -15.165352 -6.500702 -15.165352 -14.519699z" fill-rule="nonzero"></path><path fill="#ffffff" d="m86.85171 287.41864l0 0c0 -8.019012 6.789757 -14.519684 15.165352 -14.519684l0 0c4.0221024 0 7.879471 1.5297546 10.723526 4.252716c2.8440552 2.7229614 4.441826 6.416107 4.441826 10.266968l0 0c0 8.018982 -6.789757 14.519684 -15.165352 14.519684l0 0c-8.375595 0 -15.165352 -6.500702 -15.165352 -14.519684z" fill-rule="nonzero"></path><path stroke="#000000" stroke-width="2.0" stroke-linejoin="round" stroke-linecap="butt" d="m86.85171 287.41864l0 0c0 -8.019012 6.789757 -14.519684 15.165352 -14.519684l0 0c4.0221024 0 7.879471 1.5297546 10.723526 4.252716c2.8440552 2.7229614 4.441826 6.416107 4.441826 10.266968l0 0c0 8.018982 -6.789757 14.519684 -15.165352 14.519684l0 0c-8.375595 0 -15.165352 -6.500702 -15.165352 -14.519684z" fill-rule="nonzero"></path><path fill="#ffffff" d="m134.52493 325.5105l0 0c0 -8.019012 6.7897644 -14.519684 15.1653595 -14.519684l0 0c4.0220947 0 7.879471 1.5297546 10.723526 4.252716c2.8440552 2.7229614 4.441818 6.416107 4.441818 10.266968l0 0c0 8.019012 -6.789749 14.519684 -15.165344 14.519684l0 0c-8.375595 0 -15.1653595 -6.5006714 -15.1653595 -14.519684z" fill-rule="nonzero"></path><path stroke="#000000" stroke-width="2.0" stroke-linejoin="round" stroke-linecap="butt" d="m134.52493 325.5105l0 0c0 -8.019012 6.7897644 -14.519684 15.1653595 -14.519684l0 0c4.0220947 0 7.879471 1.5297546 10.723526 4.252716c2.8440552 2.7229614 4.441818 6.416107 4.441818 10.266968l0 0c0 8.019012 -6.789749 14.519684 -15.165344 14.519684l0 0c-8.375595 0 -15.1653595 -6.5006714 -15.1653595 -14.519684z" fill-rule="nonzero"></path><path fill="#ffffff" d="m182.21391 280.22964l0 0c0 -8.018982 6.7897644 -14.519684 15.1653595 -14.519684l0 0c4.0220947 0 7.8794556 1.5297546 10.723511 4.252716c2.8440552 2.722992 4.4418335 6.416107 4.4418335 10.266968l0 0c0 8.019012 -6.7897644 14.519714 -15.165344 14.519714l0 0c-8.375595 0 -15.1653595 -6.500702 -15.1653595 -14.519714z" fill-rule="nonzero"></path><path stroke="#000000" stroke-width="2.0" stroke-linejoin="round" stroke-linecap="butt" d="m182.21391 280.22964l0 0c0 -8.018982 6.7897644 -14.519684 15.1653595 -14.519684l0 0c4.0220947 0 7.8794556 1.5297546 10.723511 4.252716c2.8440552 2.722992 4.4418335 6.416107 4.4418335 10.266968l0 0c0 8.019012 -6.7897644 14.519714 -15.165344 14.519714l0 0c-8.375595 0 -15.1653595 -6.500702 -15.1653595 -14.519714z" fill-rule="nonzero"></path><path fill="#ffffff" d="m184.04462 325.5105l0 0c0 -8.019012 6.7897644 -14.519684 15.1653595 -14.519684l0 0c4.0220947 0 7.879471 1.5297546 10.723526 4.252716c2.8440552 2.7229614 4.441818 6.416107 4.441818 10.266968l0 0c0 8.019012 -6.789749 14.519684 -15.165344 14.519684l0 0c-8.375595 0 -15.1653595 -6.5006714 -15.1653595 -14.519684z" fill-rule="nonzero"></path><path stroke="#000000" stroke-width="2.0" stroke-linejoin="round" stroke-linecap="butt" d="m184.04462 325.5105l0 0c0 -8.019012 6.7897644 -14.519684 15.1653595 -14.519684l0 0c4.0220947 0 7.879471 1.5297546 10.723526 4.252716c2.8440552 2.7229614 4.441818 6.416107 4.441818 10.266968l0 0c0 8.019012 -6.789749 14.519684 -15.165344 14.519684l0 0c-8.375595 0 -15.1653595 -6.5006714 -15.1653595 -14.519684z" fill-rule="nonzero"></path><path fill="#ffffff" d="m226.04199 242.1378l0 0c0 -8.019012 6.7897644 -14.519699 15.1653595 -14.519699l0 0c4.0220947 0 7.879471 1.5297546 10.723526 4.2527313c2.8440552 2.7229614 4.4418335 6.416107 4.4418335 10.266968l0 0c0 8.018997 -6.7897644 14.519669 -15.1653595 14.519669l0 0c-8.375595 0 -15.1653595 -6.5006714 -15.1653595 -14.519669z" fill-rule="nonzero"></path><path stroke="#000000" stroke-width="2.0" stroke-linejoin="round" stroke-linecap="butt" d="m226.04199 242.1378l0 0c0 -8.019012 6.7897644 -14.519699 15.1653595 -14.519699l0 0c4.0220947 0 7.879471 1.5297546 10.723526 4.2527313c2.8440552 2.7229614 4.4418335 6.416107 4.4418335 10.266968l0 0c0 8.018997 -6.7897644 14.519669 -15.1653595 14.519669l0 0c-8.375595 0 -15.1653595 -6.5006714 -15.1653595 -14.519669z" fill-rule="nonzero"></path><path fill="#ffffff" d="m227.8727 287.41864l0 0c0 -8.019012 6.7897644 -14.519684 15.1653595 -14.519684l0 0c4.02211 0 7.879471 1.5297546 10.723526 4.252716c2.8440704 2.7229614 4.441818 6.416107 4.441818 10.266968l0 0c0 8.018982 -6.789749 14.519684 -15.165344 14.519684l0 0c-8.375595 0 -15.1653595 -6.500702 -15.1653595 -14.519684z" fill-rule="nonzero"></path><path stroke="#000000" stroke-width="2.0" stroke-linejoin="round" stroke-linecap="butt" d="m227.8727 287.41864l0 0c0 -8.019012 6.7897644 -14.519684 15.1653595 -14.519684l0 0c4.02211 0 7.879471 1.5297546 10.723526 4.252716c2.8440704 2.7229614 4.441818 6.416107 4.441818 10.266968l0 0c0 8.018982 -6.789749 14.519684 -15.165344 14.519684l0 0c-8.375595 0 -15.1653595 -6.500702 -15.1653595 -14.519684z" fill-rule="nonzero"></path><path fill="#ffffff" d="m272.41733 202.43307l0 0c0 -8.018997 6.7897644 -14.519684 15.165344 -14.519684l0 0c4.0220947 0 7.879486 1.5297394 10.723541 4.252716c2.8440552 2.7229614 4.441803 6.416107 4.441803 10.266968l0 0c0 8.018997 -6.789734 14.519684 -15.165344 14.519684l0 0c-8.37558 0 -15.165344 -6.5006866 -15.165344 -14.519684z" fill-rule="nonzero"></path><path stroke="#000000" stroke-width="2.0" stroke-linejoin="round" stroke-linecap="butt" d="m272.41733 202.43307l0 0c0 -8.018997 6.7897644 -14.519684 15.165344 -14.519684l0 0c4.0220947 0 7.879486 1.5297394 10.723541 4.252716c2.8440552 2.7229614 4.441803 6.416107 4.441803 10.266968l0 0c0 8.018997 -6.789734 14.519684 -15.165344 14.519684l0 0c-8.37558 0 -15.165344 -6.5006866 -15.165344 -14.519684z" fill-rule="nonzero"></path><path fill="#ffffff" d="m274.24802 247.71391l0 0c0 -8.018997 6.7897644 -14.519684 15.165375 -14.519684l0 0c4.0220947 0 7.8794556 1.5297394 10.723511 4.252716c2.8440552 2.7229614 4.4418335 6.416107 4.4418335 10.266968l0 0c0 8.018997 -6.7897644 14.519699 -15.165344 14.519699l0 0c-8.37561 0 -15.165375 -6.500702 -15.165375 -14.519699z" fill-rule="nonzero"></path><path stroke="#000000" stroke-width="2.0" stroke-linejoin="round" stroke-linecap="butt" d="m274.24802 247.71391l0 0c0 -8.018997 6.7897644 -14.519684 15.165375 -14.519684l0 0c4.0220947 0 7.8794556 1.5297394 10.723511 4.252716c2.8440552 2.7229614 4.4418335 6.416107 4.4418335 10.266968l0 0c0 8.018997 -6.7897644 14.519699 -15.165344 14.519699l0 0c-8.37561 0 -15.165375 -6.500702 -15.165375 -14.519699z" fill-rule="nonzero"></path><path fill="#ffffff" d="m195.9685 149.79527l31.905502 15.1653595l-31.905502 15.165344z" fill-rule="nonzero"></path><path stroke="#000000" stroke-width="2.0" stroke-linejoin="round" stroke-linecap="butt" d="m195.9685 149.79527l31.905502 15.1653595l-31.905502 15.165344z" fill-rule="nonzero"></path><path fill="#000000" fill-opacity="0.0" d="m101.35433 159.3832l0 0c0 -40.764694 32.99697 -73.81101 73.70078 -73.81101l0 0c19.546661 0 38.292755 7.7764893 52.114334 21.618744c13.821579 13.842255 21.586456 32.61637 21.586456 52.19227l0 0c0 40.76471 -32.996964 73.811035 -73.70079 73.811035l0 0c-40.70381 0 -73.70078 -33.046326 -73.70078 -73.811035z" fill-rule="nonzero"></path><path stroke="#000000" stroke-width="2.0" stroke-linejoin="round" stroke-linecap="butt" d="m101.35433 159.3832l0 0c0 -40.764694 32.99697 -73.81101 73.70078 -73.81101l0 0c19.546661 0 38.292755 7.7764893 52.114334 21.618744c13.821579 13.842255 21.586456 32.61637 21.586456 52.19227l0 0c0 40.76471 -32.996964 73.811035 -73.70079 73.811035l0 0c-40.70381 0 -73.70078 -33.046326 -73.70078 -73.811035z" fill-rule="nonzero"></path><path fill="#ffffff" d="m15.262467 17.706038l109.88976 0l0 54.83464l-109.88976 0z" fill-rule="nonzero"></path><path stroke="#000000" stroke-width="2.0" stroke-linejoin="round" stroke-linecap="butt" d="m15.262467 17.706038l109.88976 0l0 54.83464l-109.88976 0z" fill-rule="nonzero"></path><path fill="#000000" fill-opacity="0.0" d="m15.262467 72.65354l39.68504 -54.07874" fill-rule="nonzero"></path><path stroke="#000000" stroke-width="2.0" stroke-linejoin="round" stroke-linecap="butt" d="m15.262467 72.65354l39.68504 -54.07874" fill-rule="nonzero"></path><path fill="#000000" fill-opacity="0.0" d="m37.56649 72.65354l39.685043 -54.07874" fill-rule="nonzero"></path><path stroke="#000000" stroke-width="2.0" stroke-linejoin="round" stroke-linecap="butt" d="m37.56649 72.65354l39.685043 -54.07874" fill-rule="nonzero"></path><path fill="#000000" fill-opacity="0.0" d="m59.870514 72.65354l39.685043 -54.07874" fill-rule="nonzero"></path><path stroke="#000000" stroke-width="2.0" stroke-linejoin="round" stroke-linecap="butt" d="m59.870514 72.65354l39.685043 -54.07874" fill-rule="nonzero"></path><path fill="#000000" fill-opacity="0.0" d="m82.17454 72.65354l39.685043 -54.07874" fill-rule="nonzero"></path><path stroke="#000000" stroke-width="2.0" stroke-linejoin="round" stroke-linecap="butt" d="m82.17454 72.65354l39.685043 -54.07874" fill-rule="nonzero"></path><path fill="#ffffff" d="m216.86351 16.633858l109.889755 0l0 54.83465l-109.889755 0z" fill-rule="nonzero"></path><path stroke="#000000" stroke-width="2.0" stroke-linejoin="round" stroke-linecap="butt" d="m216.86351 16.633858l109.889755 0l0 54.83465l-109.889755 0z" fill-rule="nonzero"></path><path fill="#000000" fill-opacity="0.0" d="m216.86351 71.58137l39.685043 -54.078743" fill-rule="nonzero"></path><path stroke="#000000" stroke-width="2.0" stroke-linejoin="round" stroke-linecap="butt" d="m216.86351 71.58137l39.685043 -54.078743" fill-rule="nonzero"></path><path fill="#000000" fill-opacity="0.0" d="m239.16754 71.58137l39.685028 -54.078743" fill-rule="nonzero"></path><path stroke="#000000" stroke-width="2.0" stroke-linejoin="round" stroke-linecap="butt" d="m239.16754 71.58137l39.685028 -54.078743" fill-rule="nonzero"></path><path fill="#000000" fill-opacity="0.0" d="m261.47156 71.58137l39.68506 -54.078743" fill-rule="nonzero"></path><path stroke="#000000" stroke-width="2.0" stroke-linejoin="round" stroke-linecap="butt" d="m261.47156 71.58137l39.68506 -54.078743" fill-rule="nonzero"></path><path fill="#000000" fill-opacity="0.0" d="m283.7756 71.58137l39.685028 -54.078743" fill-rule="nonzero"></path><path stroke="#000000" stroke-width="2.0" stroke-linejoin="round" stroke-linecap="butt" d="m283.7756 71.58137l39.685028 -54.078743" fill-rule="nonzero"></path></g></svg>

