<?xml version="1.0" encoding="utf-8"?>
<!-- Generator: Adobe Illustrator 17.0.0, SVG Export Plug-In . SVG Version: 6.00 Build 0)  -->
<!DOCTYPE svg PUBLIC "-//W3C//DTD SVG 1.1//EN" "http://www.w3.org/Graphics/SVG/1.1/DTD/svg11.dtd">
<svg version="1.1" id="Layer_1" xmlns="http://www.w3.org/2000/svg" xmlns:xlink="http://www.w3.org/1999/xlink" x="0px" y="0px"
	 width="800px" height="800px" viewBox="0 0 800 800" enable-background="new 0 0 800 800" xml:space="preserve">
<g>
	<defs>
		<rect id="SVGID_1_" width="800" height="800"/>
	</defs>
	<clipPath id="SVGID_2_">
		<use xlink:href="#SVGID_1_"  overflow="visible"/>
	</clipPath>
	<g clip-path="url(#SVGID_2_)">
		<path fill-opacity="0" d="M0,0h800v800H0V0z"/>
		<path fill="#FFFFFF" d="M-13.793,0h813.829v799.928H-13.793V0z"/>
		<path fill-opacity="0" d="M11.675,13.278h774.513v776.251H11.675L11.675,13.278z"/>
		<path fill="none" stroke="#000000" stroke-width="2" stroke-linejoin="round" stroke-miterlimit="10" d="M11.675,13.278h774.513
			v776.251H11.675L11.675,13.278z"/>
		<path d="M307.684,36.015h170.875v130.763H307.684V36.015z"/>
		<path fill="#FFFFFF" d="M355.262,101.356c0-6.226,0.635-11.231,1.904-15.014c1.293-3.807,3.197-6.741,5.711-8.8
			c2.538-2.059,5.723-3.089,9.555-3.089c2.826,0,5.304,0.575,7.435,1.724c2.131,1.125,3.891,2.766,5.28,4.921
			c1.389,2.131,2.478,4.741,3.269,7.83c0.79,3.065,1.185,7.208,1.185,12.428c0,6.178-0.635,11.171-1.904,14.978
			c-1.269,3.784-3.173,6.717-5.711,8.8c-2.514,2.059-5.699,3.089-9.555,3.089c-5.077,0-9.064-1.82-11.961-5.46
			C356.998,118.382,355.262,111.246,355.262,101.356z M361.907,101.356c0,8.645,1.006,14.404,3.017,17.277
			c2.035,2.85,4.538,4.274,7.507,4.274s5.46-1.437,7.471-4.31c2.035-2.874,3.053-8.621,3.053-17.241
			c0-8.669-1.018-14.428-3.053-17.277c-2.011-2.85-4.526-4.274-7.543-4.274c-2.969,0-5.34,1.257-7.112,3.772
			C363.021,86.784,361.907,92.711,361.907,101.356z M396.175,101.356c0-6.226,0.635-11.231,1.904-15.014
			c1.293-3.807,3.197-6.741,5.711-8.8c2.538-2.059,5.723-3.089,9.555-3.089c2.826,0,5.304,0.575,7.435,1.724
			c2.131,1.125,3.891,2.766,5.28,4.921c1.389,2.131,2.478,4.741,3.269,7.83c0.79,3.065,1.185,7.208,1.185,12.428
			c0,6.178-0.635,11.171-1.904,14.978c-1.269,3.784-3.173,6.717-5.711,8.8c-2.514,2.059-5.699,3.089-9.555,3.089
			c-5.077,0-9.064-1.82-11.961-5.46C397.911,118.382,396.175,111.246,396.175,101.356z M402.82,101.356
			c0,8.645,1.006,14.404,3.017,17.277c2.035,2.85,4.538,4.274,7.507,4.274s5.46-1.437,7.471-4.31
			c2.035-2.874,3.053-8.621,3.053-17.241c0-8.669-1.018-14.428-3.053-17.277c-2.012-2.85-4.526-4.274-7.543-4.274
			c-2.969,0-5.34,1.257-7.112,3.772C403.933,86.784,402.82,92.711,402.82,101.356z"/>
		<path fill="#FFFFFF" d="M35.086,40.704h252.62V166.76H35.086L35.086,40.704z"/>
		<path fill="none" stroke="#000000" stroke-width="2" stroke-linejoin="round" stroke-miterlimit="10" d="M35.086,40.704h252.62
			V166.76H35.086L35.086,40.704z"/>
		<path fill-opacity="0" d="M35.086,167.02l91.23-124.319"/>
		<path fill="none" stroke="#000000" stroke-width="2" stroke-linejoin="round" stroke-miterlimit="10" d="M35.086,167.02
			l91.23-124.319"/>
		<path fill-opacity="0" d="M86.36,167.02l91.23-124.319"/>
		<path fill="none" stroke="#000000" stroke-width="2" stroke-linejoin="round" stroke-miterlimit="10" d="M86.36,167.02
			l91.23-124.319"/>
		<path fill-opacity="0" d="M137.633,167.02l91.23-124.319"/>
		<path fill="none" stroke="#000000" stroke-width="2" stroke-linejoin="round" stroke-miterlimit="10" d="M137.633,167.02
			l91.23-124.319"/>
		<path fill-opacity="0" d="M188.907,167.02l91.23-124.319"/>
		<path fill="none" stroke="#000000" stroke-width="2" stroke-linejoin="round" stroke-miterlimit="10" d="M188.907,167.02
			l91.23-124.319"/>
		<path fill="#FFFFFF" d="M75.808,190.877h648.384v557.154H75.808V190.877z"/>
		<path fill="none" stroke="#000000" stroke-width="2" stroke-linejoin="round" stroke-miterlimit="10" d="M75.808,190.877h648.384
			v557.154H75.808V190.877z"/>
		<path fill="#FFFFFF" d="M498.537,38.239h252.62v126.057h-252.62V38.239z"/>
		<path fill="none" stroke="#000000" stroke-width="2" stroke-linejoin="round" stroke-miterlimit="10" d="M498.537,38.239h252.62
			v126.057h-252.62V38.239z"/>
		<path fill-opacity="0" d="M498.537,164.555l91.23-124.319"/>
		<path fill="none" stroke="#000000" stroke-width="2" stroke-linejoin="round" stroke-miterlimit="10" d="M498.537,164.555
			l91.23-124.319"/>
		<path fill-opacity="0" d="M549.81,164.555l91.23-124.319"/>
		<path fill="none" stroke="#000000" stroke-width="2" stroke-linejoin="round" stroke-miterlimit="10" d="M549.81,164.555
			l91.23-124.319"/>
		<path fill-opacity="0" d="M601.084,164.555l91.23-124.319"/>
		<path fill="none" stroke="#000000" stroke-width="2" stroke-linejoin="round" stroke-miterlimit="10" d="M601.084,164.555
			l91.23-124.319"/>
		<path fill-opacity="0" d="M652.358,164.555l91.23-124.319"/>
		<path fill="none" stroke="#000000" stroke-width="2" stroke-linejoin="round" stroke-miterlimit="10" d="M652.358,164.555
			l91.23-124.319"/>
		<path d="M102.278,202.57h595.384v376.867H102.278V202.57z"/>
		<path fill-opacity="0" d="M261.544,614.982h113.241v104.552H261.544V614.982z"/>
		<path fill="none" stroke="#000000" stroke-linejoin="round" stroke-miterlimit="10" d="M261.544,614.982h113.241v104.552H261.544
			V614.982z"/>
		<path d="M316.038,676.867v-13.254l-12.033-17.996h5.029l6.142,9.411c1.149,1.772,2.215,3.532,3.197,5.28
			c0.934-1.628,2.071-3.472,3.412-5.532l6.034-9.159h4.849l-12.5,17.996v13.254H316.038z"/>
		<path fill-opacity="0" d="M420.219,614.982H533.46v104.552H420.219V614.982z"/>
		<path fill="none" stroke="#000000" stroke-linejoin="round" stroke-miterlimit="10" d="M420.219,614.982H533.46v104.552H420.219
			V614.982z"/>
		<path d="M464.694,676.867v-31.25h4.239l16.415,24.533v-24.533h3.951v31.25h-4.238l-16.415-24.569v24.569H464.694z"/>
		<path fill="#FFFFFF" d="M597.888,622.391h84.424v58.938h-84.424V622.391z"/>
		<path fill="none" stroke="#000000" stroke-width="2" stroke-linejoin="round" stroke-miterlimit="10" d="M597.888,622.391h84.424
			v58.938h-84.424V622.391z"/>
		<path fill="#FFFFFF" d="M610.263,702.314L610.263,702.314c0-5.418,4.392-9.811,9.811-9.811l0,0c2.602,0,5.097,1.034,6.937,2.874
			c1.84,1.84,2.874,4.335,2.874,6.937l0,0c0,5.418-4.393,9.811-9.811,9.811l0,0C614.656,712.125,610.263,707.732,610.263,702.314z"
			/>
		<path fill="none" stroke="#000000" stroke-width="2" stroke-linejoin="round" stroke-miterlimit="10" d="M610.263,702.314
			L610.263,702.314c0-5.418,4.392-9.811,9.811-9.811l0,0c2.602,0,5.097,1.034,6.937,2.874c1.84,1.84,2.874,4.335,2.874,6.937l0,0
			c0,5.418-4.393,9.811-9.811,9.811l0,0C614.656,712.125,610.263,707.732,610.263,702.314z"/>
		<path fill="#FFFFFF" d="M650.134,702.314L650.134,702.314c0-5.418,4.392-9.811,9.811-9.811l0,0c2.602,0,5.097,1.034,6.937,2.874
			c1.84,1.84,2.874,4.335,2.874,6.937l0,0c0,5.418-4.392,9.811-9.811,9.811l0,0C654.527,712.125,650.134,707.732,650.134,702.314z"
			/>
		<path fill="none" stroke="#000000" stroke-width="2" stroke-linejoin="round" stroke-miterlimit="10" d="M650.134,702.314
			L650.134,702.314c0-5.418,4.392-9.811,9.811-9.811l0,0c2.602,0,5.097,1.034,6.937,2.874c1.84,1.84,2.874,4.335,2.874,6.937l0,0
			c0,5.418-4.392,9.811-9.811,9.811l0,0C654.527,712.125,650.134,707.732,650.134,702.314z"/>
	</g>
</g>
<g>
	<path fill="#FFFFFF" d="M210.966,342.36V241.76h21.323v8.003h-11.655v84.595h11.655v8.003H210.966z"/>
	<path fill="#FFFFFF" d="M291.156,320.5v-69.448h-25.942v-9.292h62.412v9.292h-26.05V320.5H291.156z"/>
	<path fill="#FFFFFF" d="M363.935,302.131l9.99,1.235c-1.576,5.837-4.494,10.366-8.755,13.589
		c-4.262,3.223-9.704,4.834-16.328,4.834c-8.344,0-14.958-2.569-19.846-7.708c-4.888-5.138-7.332-12.344-7.332-21.619
		c0-9.596,2.471-17.044,7.412-22.344c4.941-5.299,11.351-7.949,19.229-7.949c7.627,0,13.857,2.597,18.691,7.788
		c4.834,5.192,7.251,12.497,7.251,21.914c0,0.573-0.019,1.433-0.054,2.578h-42.539c0.357,6.267,2.13,11.064,5.317,14.395
		c3.187,3.33,7.161,4.995,11.924,4.995c3.545,0,6.57-0.931,9.077-2.793C360.479,309.186,362.466,306.213,363.935,302.131z
		 M332.191,286.501h31.851c-0.43-4.798-1.647-8.396-3.652-10.796c-3.08-3.724-7.072-5.586-11.978-5.586
		c-4.44,0-8.173,1.486-11.199,4.458C334.187,277.55,332.514,281.524,332.191,286.501z"/>
	<path fill="#FFFFFF" d="M379.618,320.5l20.84-29.648l-19.282-27.393h12.085l8.755,13.374c1.646,2.543,2.972,4.673,3.975,6.392
		c1.575-2.363,3.025-4.458,4.351-6.284l9.614-13.481h11.548l-19.712,26.855l21.216,30.186h-11.87l-11.709-17.725l-3.115-4.78
		L391.327,320.5H379.618z"/>
	<path fill="#FFFFFF" d="M462.172,311.853l1.396,8.54c-2.722,0.572-5.156,0.859-7.305,0.859c-3.51,0-6.23-0.556-8.164-1.665
		s-3.295-2.569-4.082-4.377c-0.788-1.808-1.182-5.613-1.182-11.414v-32.817h-7.09v-7.52h7.09v-14.126l9.614-5.801v19.927h9.722v7.52
		h-9.722v33.354c0,2.758,0.169,4.53,0.511,5.317c0.34,0.788,0.895,1.415,1.664,1.88c0.77,0.466,1.871,0.698,3.304,0.698
		C459.003,312.229,460.417,312.104,462.172,311.853z"/>
	<path fill="#FFFFFF" d="M510.673,302.131l9.99,1.235c-1.576,5.837-4.494,10.366-8.755,13.589
		c-4.262,3.223-9.704,4.834-16.328,4.834c-8.344,0-14.959-2.569-19.846-7.708c-4.889-5.138-7.332-12.344-7.332-21.619
		c0-9.596,2.471-17.044,7.412-22.344c4.941-5.299,11.351-7.949,19.229-7.949c7.627,0,13.857,2.597,18.691,7.788
		c4.834,5.192,7.251,12.497,7.251,21.914c0,0.573-0.019,1.433-0.054,2.578h-42.539c0.357,6.267,2.13,11.064,5.317,14.395
		c3.187,3.33,7.161,4.995,11.924,4.995c3.545,0,6.57-0.931,9.077-2.793C507.217,309.186,509.204,306.213,510.673,302.131z
		 M478.93,286.501h31.851c-0.43-4.798-1.647-8.396-3.652-10.796c-3.08-3.724-7.072-5.586-11.978-5.586
		c-4.44,0-8.174,1.486-11.199,4.458C480.926,277.55,479.252,281.524,478.93,286.501z"/>
	<path fill="#FFFFFF" d="M579.53,342.36h-21.323v-8.003h11.655v-84.595h-11.655v-8.003h21.323V342.36z"/>
</g>
</svg>
