<?xml version="1.0" standalone="yes"?>

<svg version="1.1" viewBox="0.0 0.0 346.0 347.0" fill="none" stroke="none" stroke-linecap="square" stroke-miterlimit="10" xmlns="http://www.w3.org/2000/svg" xmlns:xlink="http://www.w3.org/1999/xlink"><clipPath id="p.0"><path d="m0 0l346.0 0l0 347.0l-346.0 0l0 -347.0z" clip-rule="nonzero"></path></clipPath><g clip-path="url(#p.0)"><path fill="#000000" fill-opacity="0.0" d="m0 0l346.10498 0l0 347.36746l-346.10498 0z" fill-rule="nonzero"></path><path fill="#ffffff" d="m-6.0 0l354.01575 0l0 347.9685l-354.01575 0z" fill-rule="nonzero"></path><path fill="#000000" fill-opacity="0.0" d="m5.07874 5.7758217l336.9134 0l0 337.66928l-336.9134 0z" fill-rule="nonzero"></path><path stroke="#000000" stroke-width="2.0" stroke-linejoin="round" stroke-linecap="butt" d="m5.07874 5.7758217l336.9134 0l0 337.66928l-336.9134 0z" fill-rule="nonzero"></path><path fill="#000000" d="m133.84251 15.666667l74.33072 0l0 56.881886l-74.33072 0z" fill-rule="nonzero"></path><path fill="#ffffff" d="m154.53912 44.089794q0 -4.0625 0.828125 -6.53125q0.84375 -2.484375 2.484375 -3.828125q1.65625 -1.34375 4.15625 -1.34375q1.84375 0 3.234375 0.75q1.390625 0.734375 2.296875 2.140625q0.90625 1.390625 1.421875 3.40625q0.515625 2.0 0.515625 5.40625q0 4.03125 -0.828125 6.515625q-0.828125 2.46875 -2.484375 3.828125q-1.640625 1.34375 -4.15625 1.34375q-3.3125 0 -5.203125 -2.375q-2.265625 -2.859375 -2.265625 -9.3125zm2.890625 0q0 5.640625 1.3125 7.515625q1.328125 1.859375 3.265625 1.859375q1.9375 0 3.25 -1.875q1.328125 -1.875 1.328125 -7.5q0 -5.65625 -1.328125 -7.515625q-1.3125 -1.859375 -3.28125 -1.859375q-1.9375 0 -3.09375 1.640625q-1.453125 2.09375 -1.453125 7.734375zm14.90625 0q0 -4.0625 0.828125 -6.53125q0.84375 -2.484375 2.484375 -3.828125q1.65625 -1.34375 4.15625 -1.34375q1.84375 0 3.234375 0.75q1.390625 0.734375 2.296875 2.140625q0.90625 1.390625 1.421875 3.40625q0.515625 2.0 0.515625 5.40625q0 4.03125 -0.828125 6.515625q-0.828125 2.46875 -2.484375 3.828125q-1.640625 1.34375 -4.15625 1.34375q-3.3125 0 -5.203125 -2.375q-2.265625 -2.859375 -2.265625 -9.3125zm2.890625 0q0 5.640625 1.3125 7.515625q1.328125 1.859375 3.265625 1.859375q1.9375 0 3.25 -1.875q1.328125 -1.875 1.328125 -7.5q0 -5.65625 -1.328125 -7.515625q-1.3125 -1.859375 -3.28125 -1.859375q-1.9375 0 -3.09375 1.640625q-1.453125 2.09375 -1.453125 7.734375z" fill-rule="nonzero"></path><path fill="#ffffff" d="m216.86351 16.633858l109.889786 0l0 54.83465l-109.889786 0z" fill-rule="nonzero"></path><path stroke="#000000" stroke-width="2.0" stroke-linejoin="round" stroke-linecap="butt" d="m216.86351 16.633858l109.889786 0l0 54.83465l-109.889786 0z" fill-rule="nonzero"></path><path fill="#000000" fill-opacity="0.0" d="m216.86351 71.58137l39.685043 -54.078743" fill-rule="nonzero"></path><path stroke="#000000" stroke-width="2.0" stroke-linejoin="round" stroke-linecap="butt" d="m216.86351 71.58137l39.685043 -54.078743" fill-rule="nonzero"></path><path fill="#000000" fill-opacity="0.0" d="m239.16754 71.58137l39.685028 -54.078743" fill-rule="nonzero"></path><path stroke="#000000" stroke-width="2.0" stroke-linejoin="round" stroke-linecap="butt" d="m239.16754 71.58137l39.685028 -54.078743" fill-rule="nonzero"></path><path fill="#000000" fill-opacity="0.0" d="m261.47156 71.58137l39.68506 -54.078743" fill-rule="nonzero"></path><path stroke="#000000" stroke-width="2.0" stroke-linejoin="round" stroke-linecap="butt" d="m261.47156 71.58137l39.68506 -54.078743" fill-rule="nonzero"></path><path fill="#000000" fill-opacity="0.0" d="m283.7756 71.58137l39.685028 -54.078743" fill-rule="nonzero"></path><path stroke="#000000" stroke-width="2.0" stroke-linejoin="round" stroke-linecap="butt" d="m283.7756 71.58137l39.685028 -54.078743" fill-rule="nonzero"></path><path fill="#ffffff" d="m22.17323 18.503937l85.41733 0l0 51.2126l-85.41733 0z" fill-rule="nonzero"></path><path stroke="#000000" stroke-width="2.0" stroke-linejoin="round" stroke-linecap="butt" d="m22.17323 18.503937l85.41733 0l0 51.2126l-85.41733 0z" fill-rule="nonzero"></path><path fill="#ffffff" d="m47.795277 44.110237l0 0c0 -9.436676 7.6499367 -17.086615 17.086613 -17.086615l0 0c4.5316544 0 8.877701 1.8001919 12.082062 5.004553c3.204361 3.204361 5.0045547 7.5504074 5.0045547 12.082062l0 0c0 9.436676 -7.6499405 17.086613 -17.086617 17.086613l0 0c-9.436676 0 -17.086613 -7.6499367 -17.086613 -17.086613z" fill-rule="nonzero"></path><path stroke="#000000" stroke-width="2.0" stroke-linejoin="round" stroke-linecap="butt" d="m47.795277 44.110237l0 0c0 -9.436676 7.6499367 -17.086615 17.086613 -17.086615l0 0c4.5316544 0 8.877701 1.8001919 12.082062 5.004553c3.204361 3.204361 5.0045547 7.5504074 5.0045547 12.082062l0 0c0 9.436676 -7.6499405 17.086613 -17.086617 17.086613l0 0c-9.436676 0 -17.086613 -7.6499367 -17.086613 -17.086613z" fill-rule="nonzero"></path><path fill="#ffffff" d="m241.06824 84.15223l67.07086 0l0 235.37534l-67.07086 0z" fill-rule="nonzero"></path><path stroke="#000000" stroke-width="2.0" stroke-linejoin="round" stroke-linecap="butt" d="m241.06824 84.15223l67.07086 0l0 235.37534l-67.07086 0z" fill-rule="nonzero"></path><path fill="#000000" d="m258.15222 84.784775l34.17325 0l0 234.11024l-34.17325 0z" fill-rule="nonzero"></path><path stroke="#000000" stroke-width="2.0" stroke-linejoin="round" stroke-linecap="butt" d="m258.15222 84.784775l34.17325 0l0 234.11024l-34.17325 0z" fill-rule="nonzero"></path><path fill="#ffffff" d="m243.60104 105.666664l60.740173 0l0 18.981628l-60.740173 0z" fill-rule="nonzero"></path><path stroke="#000000" stroke-width="2.0" stroke-linejoin="round" stroke-linecap="butt" d="m243.60104 105.666664l60.740173 0l0 18.981628l-60.740173 0z" fill-rule="nonzero"></path><path fill="#000000" fill-opacity="0.0" d="m77.82415 69.71654l0 62.015747" fill-rule="nonzero"></path><path stroke="#000000" stroke-width="2.0" stroke-linejoin="round" stroke-linecap="butt" d="m77.82415 69.71654l0 62.015747" fill-rule="nonzero"></path><path fill="#000000" fill-opacity="0.0" d="m78.45932 131.6063l60.094482 0.6299286" fill-rule="nonzero"></path><path stroke="#000000" stroke-width="2.0" stroke-linejoin="round" stroke-linecap="butt" d="m78.45932 131.6063l60.094482 0.6299286" fill-rule="nonzero"></path><path fill="#000000" fill-opacity="0.0" d="m138.55905 130.97375l0 49.354324" fill-rule="nonzero"></path><path stroke="#000000" stroke-width="2.0" stroke-linejoin="round" stroke-linecap="butt" d="m138.55905 130.97375l0 49.354324" fill-rule="nonzero"></path><path fill="#000000" fill-opacity="0.0" d="m139.20998 179.69817l101.85826 22.141724" fill-rule="nonzero"></path><path stroke="#000000" stroke-width="2.0" stroke-linejoin="round" stroke-linecap="butt" d="m139.20998 179.69817l101.85826 22.141724" fill-rule="nonzero"></path><path fill="#000000" fill-opacity="0.0" d="m92.37795 123.38058l54.3937 1.1023636" fill-rule="nonzero"></path><path stroke="#000000" stroke-width="2.0" stroke-linejoin="round" stroke-linecap="butt" d="m92.37795 123.38058l54.3937 1.1023636" fill-rule="nonzero"></path><path fill="#000000" fill-opacity="0.0" d="m146.80403 123.381485l0 43.181107" fill-rule="nonzero"></path><path stroke="#000000" stroke-width="2.0" stroke-linejoin="round" stroke-linecap="butt" d="m146.80403 123.381485l0 43.181107" fill-rule="nonzero"></path><path fill="#000000" fill-opacity="0.0" d="m147.4027 166.01555l93.66928 19.370071" fill-rule="nonzero"></path><path stroke="#000000" stroke-width="2.0" stroke-linejoin="round" stroke-linecap="butt" d="m147.4027 166.01555l93.66928 19.370071" fill-rule="nonzero"></path><path fill="#000000" fill-opacity="0.0" d="m92.519684 69.71654l0 54.267715" fill-rule="nonzero"></path><path stroke="#000000" stroke-width="2.0" stroke-linejoin="round" stroke-linecap="butt" d="m92.519684 69.71654l0 54.267715" fill-rule="nonzero"></path><path fill="#ffffff" d="m231.57742 161.34645l10.123367 0l0 56.881897l-10.123367 0z" fill-rule="nonzero"></path><path stroke="#000000" stroke-width="2.0" stroke-linejoin="round" stroke-linecap="butt" d="m231.57742 161.34645l10.123367 0l0 56.881897l-10.123367 0z" fill-rule="nonzero"></path><path fill="#000000" fill-opacity="0.0" d="m231.57742 205.00262l-80.97638 -5.7007904" fill-rule="nonzero"></path><path stroke="#000000" stroke-width="2.0" stroke-linejoin="round" stroke-linecap="butt" d="m231.57742 205.00262l-80.97638 -5.7007904" fill-rule="nonzero"></path><path fill="#000000" fill-opacity="0.0" d="m232.21654 211.88715l-67.71654 -1.1968536" fill-rule="nonzero"></path><path stroke="#000000" stroke-width="2.0" stroke-linejoin="round" stroke-linecap="butt" d="m232.21654 211.88715l-67.71654 -1.1968536" fill-rule="nonzero"></path><path fill="#000000" fill-opacity="0.0" d="m150.59842 198.6273l-17.732285 61.417313" fill-rule="nonzero"></path><path stroke="#000000" stroke-width="2.0" stroke-linejoin="round" stroke-linecap="butt" d="m150.59842 198.6273l-17.732285 61.417313" fill-rule="nonzero"></path><path fill="#000000" fill-opacity="0.0" d="m165.77428 210.69817l-16.472443 49.354324" fill-rule="nonzero"></path><path stroke="#000000" stroke-width="2.0" stroke-linejoin="round" stroke-linecap="butt" d="m165.77428 210.69817l-16.472443 49.354324" fill-rule="nonzero"></path><path fill="#000000" fill-opacity="0.0" d="m110.09449 260.04987l85.41732 0l0 51.212616l-85.41732 0z" fill-rule="nonzero"></path><path stroke="#000000" stroke-width="2.0" stroke-linejoin="round" stroke-linecap="butt" d="m110.09449 260.04987l85.41732 0l0 51.212616l-85.41732 0z" fill-rule="nonzero"></path><path fill="#000000" fill-opacity="0.0" d="m116.968506 285.65616l0 0c0 -11.924133 9.66642 -21.590546 21.590546 -21.590546l0 0c5.726181 0 11.217819 2.2747192 15.26683 6.3237305c4.049011 4.049011 6.3237305 9.540649 6.3237305 15.266815l0 0c0 11.924133 -9.666428 21.590546 -21.59056 21.590546l0 0c-11.924126 0 -21.590546 -9.666412 -21.590546 -21.590546z" fill-rule="nonzero"></path><path stroke="#000000" stroke-width="2.0" stroke-linejoin="round" stroke-linecap="butt" d="m116.968506 285.65616l0 0c0 -11.924133 9.66642 -21.590546 21.590546 -21.590546l0 0c5.726181 0 11.217819 2.2747192 15.26683 6.3237305c4.049011 4.049011 6.3237305 9.540649 6.3237305 15.266815l0 0c0 11.924133 -9.666428 21.590546 -21.59056 21.590546l0 0c-11.924126 0 -21.590546 -9.666412 -21.590546 -21.590546z" fill-rule="nonzero"></path><path fill="#000000" fill-opacity="0.0" d="m22.165354 105.666664l41.10499 0l0 207.49344l-41.10499 0z" fill-rule="nonzero"></path><path stroke="#000000" stroke-width="2.0" stroke-linejoin="round" stroke-linecap="butt" d="m22.165354 105.666664l41.10499 0l0 207.49344l-41.10499 0z" fill-rule="nonzero"></path><path fill="#000000" d="m23.412073 260.68503l39.85827 0l0 51.212616l-39.85827 0z" fill-rule="nonzero"></path><path stroke="#000000" stroke-width="2.0" stroke-linejoin="round" stroke-linecap="butt" d="m23.412073 260.68503l39.85827 0l0 51.212616l-39.85827 0z" fill-rule="nonzero"></path><path fill="#000000" fill-opacity="0.0" d="m62.64042 246.13124l-13.921257 0" fill-rule="nonzero"></path><path stroke="#000000" stroke-width="2.0" stroke-linejoin="round" stroke-linecap="butt" d="m62.64042 246.13124l-13.921257 0" fill-rule="nonzero"></path><path fill="#000000" fill-opacity="0.0" d="m62.64042 230.31984l-18.362206 0" fill-rule="nonzero"></path><path stroke="#000000" stroke-width="2.0" stroke-linejoin="round" stroke-linecap="butt" d="m62.64042 230.31984l-18.362206 0" fill-rule="nonzero"></path><path fill="#000000" fill-opacity="0.0" d="m62.64042 214.50844l-13.921257 0" fill-rule="nonzero"></path><path stroke="#000000" stroke-width="2.0" stroke-linejoin="round" stroke-linecap="butt" d="m62.64042 214.50844l-13.921257 0" fill-rule="nonzero"></path><path fill="#000000" fill-opacity="0.0" d="m62.64042 198.69704l-18.362206 0" fill-rule="nonzero"></path><path stroke="#000000" stroke-width="2.0" stroke-linejoin="round" stroke-linecap="butt" d="m62.64042 198.69704l-18.362206 0" fill-rule="nonzero"></path><path fill="#000000" fill-opacity="0.0" d="m62.64042 182.88564l-13.921257 0" fill-rule="nonzero"></path><path stroke="#000000" stroke-width="2.0" stroke-linejoin="round" stroke-linecap="butt" d="m62.64042 182.88564l-13.921257 0" fill-rule="nonzero"></path><path fill="#000000" fill-opacity="0.0" d="m62.64042 167.07423l-18.362206 0" fill-rule="nonzero"></path><path stroke="#000000" stroke-width="2.0" stroke-linejoin="round" stroke-linecap="butt" d="m62.64042 167.07423l-18.362206 0" fill-rule="nonzero"></path><path fill="#000000" fill-opacity="0.0" d="m62.64042 151.26285l-13.921257 0" fill-rule="nonzero"></path><path stroke="#000000" stroke-width="2.0" stroke-linejoin="round" stroke-linecap="butt" d="m62.64042 151.26285l-13.921257 0" fill-rule="nonzero"></path><path fill="#000000" fill-opacity="0.0" d="m62.64042 135.45145l-18.362206 0" fill-rule="nonzero"></path><path stroke="#000000" stroke-width="2.0" stroke-linejoin="round" stroke-linecap="butt" d="m62.64042 135.45145l-18.362206 0" fill-rule="nonzero"></path><path fill="#000000" fill-opacity="0.0" d="m63.12861 119.63911l-13.921261 0" fill-rule="nonzero"></path><path stroke="#000000" stroke-width="2.0" stroke-linejoin="round" stroke-linecap="butt" d="m63.12861 119.63911l-13.921261 0" fill-rule="nonzero"></path></g></svg>

