<?xml version="1.0" standalone="yes"?>

<svg version="1.1" viewBox="0.0 0.0 322.0 100.0" fill="none" stroke="none" stroke-linecap="square" stroke-miterlimit="10" xmlns="http://www.w3.org/2000/svg" xmlns:xlink="http://www.w3.org/1999/xlink"><clipPath id="p.0"><path d="m0 0l322.0 0l0 100.0l-322.0 0l0 -100.0z" clip-rule="nonzero"></path></clipPath><g clip-path="url(#p.0)"><path fill="#000000" fill-opacity="0.0" d="m0 0l322.5223 0l0 100.0l-322.5223 0z" fill-rule="nonzero"></path><path fill="#ffffff" d="m39.843834 36.170605l0 0c0 -2.9484177 2.3901634 -5.338583 5.338581 -5.338583l0 0c1.4158783 0 2.7737694 0.56245613 3.7749481 1.5636349c1.0011787 1.0011787 1.563633 2.359066 1.563633 3.7749481l0 0c0 2.9484177 -2.3901634 5.338581 -5.338581 5.338581l0 0c-2.9484177 0 -5.338581 -2.3901634 -5.338581 -5.338581z" fill-rule="nonzero"></path><path stroke="#000000" stroke-width="2.0" stroke-linejoin="round" stroke-linecap="butt" d="m39.843834 36.170605l0 0c0 -2.9484177 2.3901634 -5.338583 5.338581 -5.338583l0 0c1.4158783 0 2.7737694 0.56245613 3.7749481 1.5636349c1.0011787 1.0011787 1.563633 2.359066 1.563633 3.7749481l0 0c0 2.9484177 -2.3901634 5.338581 -5.338581 5.338581l0 0c-2.9484177 0 -5.338581 -2.3901634 -5.338581 -5.338581z" fill-rule="nonzero"></path><path fill="#ffffff" d="m59.466316 36.170605l0 0c0 -2.9484177 2.3901634 -5.338583 5.338585 -5.338583l0 0c1.4158783 0 2.7737656 0.56245613 3.7749481 1.5636349c1.0011749 1.0011787 1.5636292 2.359066 1.5636292 3.7749481l0 0c0 2.9484177 -2.3901596 5.338581 -5.3385773 5.338581l0 0c-2.9484215 0 -5.338585 -2.3901634 -5.338585 -5.338581z" fill-rule="nonzero"></path><path stroke="#000000" stroke-width="2.0" stroke-linejoin="round" stroke-linecap="butt" d="m59.466316 36.170605l0 0c0 -2.9484177 2.3901634 -5.338583 5.338585 -5.338583l0 0c1.4158783 0 2.7737656 0.56245613 3.7749481 1.5636349c1.0011749 1.0011787 1.5636292 2.359066 1.5636292 3.7749481l0 0c0 2.9484177 -2.3901596 5.338581 -5.3385773 5.338581l0 0c-2.9484215 0 -5.338585 -2.3901634 -5.338585 -5.338581z" fill-rule="nonzero"></path><path fill="#ffffff" d="m79.088806 36.170605l0 0c0 -2.9484177 2.3901596 -5.338583 5.3385773 -5.338583l0 0c1.4158859 0 2.7737732 0.56245613 3.7749481 1.5636349c1.0011826 1.0011787 1.5636368 2.359066 1.5636368 3.7749481l0 0c0 2.9484177 -2.3901672 5.338581 -5.338585 5.338581l0 0c-2.9484177 0 -5.3385773 -2.3901634 -5.3385773 -5.338581z" fill-rule="nonzero"></path><path stroke="#000000" stroke-width="2.0" stroke-linejoin="round" stroke-linecap="butt" d="m79.088806 36.170605l0 0c0 -2.9484177 2.3901596 -5.338583 5.3385773 -5.338583l0 0c1.4158859 0 2.7737732 0.56245613 3.7749481 1.5636349c1.0011826 1.0011787 1.5636368 2.359066 1.5636368 3.7749481l0 0c0 2.9484177 -2.3901672 5.338581 -5.338585 5.338581l0 0c-2.9484177 0 -5.3385773 -2.3901634 -5.3385773 -5.338581z" fill-rule="nonzero"></path><path fill="#ffffff" d="m98.71129 36.170605l0 0c0 -2.9484177 2.3901596 -5.338583 5.3385773 -5.338583l0 0c1.4158859 0 2.7737732 0.56245613 3.7749481 1.5636349c1.0011826 1.0011787 1.5636368 2.359066 1.5636368 3.7749481l0 0c0 2.9484177 -2.3901672 5.338581 -5.338585 5.338581l0 0c-2.9484177 0 -5.3385773 -2.3901634 -5.3385773 -5.338581z" fill-rule="nonzero"></path><path stroke="#000000" stroke-width="2.0" stroke-linejoin="round" stroke-linecap="butt" d="m98.71129 36.170605l0 0c0 -2.9484177 2.3901596 -5.338583 5.3385773 -5.338583l0 0c1.4158859 0 2.7737732 0.56245613 3.7749481 1.5636349c1.0011826 1.0011787 1.5636368 2.359066 1.5636368 3.7749481l0 0c0 2.9484177 -2.3901672 5.338581 -5.338585 5.338581l0 0c-2.9484177 0 -5.3385773 -2.3901634 -5.3385773 -5.338581z" fill-rule="nonzero"></path><path fill="#ffffff" d="m118.33377 36.170605l0 0c0 -2.9484177 2.3901672 -5.338583 5.338585 -5.338583l0 0c1.4158783 0 2.7737732 0.56245613 3.7749481 1.5636349c1.0011826 1.0011787 1.5636368 2.359066 1.5636368 3.7749481l0 0c0 2.9484177 -2.3901672 5.338581 -5.338585 5.338581l0 0c-2.9484177 0 -5.338585 -2.3901634 -5.338585 -5.338581z" fill-rule="nonzero"></path><path stroke="#000000" stroke-width="2.0" stroke-linejoin="round" stroke-linecap="butt" d="m118.33377 36.170605l0 0c0 -2.9484177 2.3901672 -5.338583 5.338585 -5.338583l0 0c1.4158783 0 2.7737732 0.56245613 3.7749481 1.5636349c1.0011826 1.0011787 1.5636368 2.359066 1.5636368 3.7749481l0 0c0 2.9484177 -2.3901672 5.338581 -5.338585 5.338581l0 0c-2.9484177 0 -5.338585 -2.3901634 -5.338585 -5.338581z" fill-rule="nonzero"></path><path fill="#ffffff" d="m137.95625 36.170605l0 0c0 -2.9484177 2.3901672 -5.338583 5.3385773 -5.338583l0 0c1.4158783 0 2.7737732 0.56245613 3.7749481 1.5636349c1.0011902 1.0011787 1.5636444 2.359066 1.5636444 3.7749481l0 0c0 2.9484177 -2.3901672 5.338581 -5.3385925 5.338581l0 0c-2.94841 0 -5.3385773 -2.3901634 -5.3385773 -5.338581z" fill-rule="nonzero"></path><path stroke="#000000" stroke-width="2.0" stroke-linejoin="round" stroke-linecap="butt" d="m137.95625 36.170605l0 0c0 -2.9484177 2.3901672 -5.338583 5.3385773 -5.338583l0 0c1.4158783 0 2.7737732 0.56245613 3.7749481 1.5636349c1.0011902 1.0011787 1.5636444 2.359066 1.5636444 3.7749481l0 0c0 2.9484177 -2.3901672 5.338581 -5.3385925 5.338581l0 0c-2.94841 0 -5.3385773 -2.3901634 -5.3385773 -5.338581z" fill-rule="nonzero"></path><path fill="#ffffff" d="m157.57874 36.170605l0 0c0 -2.9484177 2.3901672 -5.338583 5.3385925 -5.338583l0 0c1.4158783 0 2.773758 0.56245613 3.7749481 1.5636349c1.0011749 1.0011787 1.5636292 2.359066 1.5636292 3.7749481l0 0c0 2.9484177 -2.3901672 5.338581 -5.3385773 5.338581l0 0c-2.9484253 0 -5.3385925 -2.3901634 -5.3385925 -5.338581z" fill-rule="nonzero"></path><path stroke="#000000" stroke-width="2.0" stroke-linejoin="round" stroke-linecap="butt" d="m157.57874 36.170605l0 0c0 -2.9484177 2.3901672 -5.338583 5.3385925 -5.338583l0 0c1.4158783 0 2.773758 0.56245613 3.7749481 1.5636349c1.0011749 1.0011787 1.5636292 2.359066 1.5636292 3.7749481l0 0c0 2.9484177 -2.3901672 5.338581 -5.3385773 5.338581l0 0c-2.9484253 0 -5.3385925 -2.3901634 -5.3385925 -5.338581z" fill-rule="nonzero"></path><path fill="#ffffff" d="m177.20122 36.170605l0 0c0 -2.9484177 2.3901672 -5.338583 5.3385773 -5.338583l0 0c1.4158936 0 2.7737732 0.56245613 3.7749481 1.5636349c1.0011902 1.0011787 1.5636444 2.359066 1.5636444 3.7749481l0 0c0 2.9484177 -2.3901672 5.338581 -5.3385925 5.338581l0 0c-2.94841 0 -5.3385773 -2.3901634 -5.3385773 -5.338581z" fill-rule="nonzero"></path><path stroke="#000000" stroke-width="2.0" stroke-linejoin="round" stroke-linecap="butt" d="m177.20122 36.170605l0 0c0 -2.9484177 2.3901672 -5.338583 5.3385773 -5.338583l0 0c1.4158936 0 2.7737732 0.56245613 3.7749481 1.5636349c1.0011902 1.0011787 1.5636444 2.359066 1.5636444 3.7749481l0 0c0 2.9484177 -2.3901672 5.338581 -5.3385925 5.338581l0 0c-2.94841 0 -5.3385773 -2.3901634 -5.3385773 -5.338581z" fill-rule="nonzero"></path><path fill="#ffffff" d="m196.82372 36.170605l0 0c0 -2.9484177 2.3901672 -5.338583 5.3385773 -5.338583l0 0c1.4158936 0 2.7737732 0.56245613 3.7749481 1.5636349c1.0011902 1.0011787 1.5636444 2.359066 1.5636444 3.7749481l0 0c0 2.9484177 -2.3901672 5.338581 -5.3385925 5.338581l0 0c-2.94841 0 -5.3385773 -2.3901634 -5.3385773 -5.338581z" fill-rule="nonzero"></path><path stroke="#000000" stroke-width="2.0" stroke-linejoin="round" stroke-linecap="butt" d="m196.82372 36.170605l0 0c0 -2.9484177 2.3901672 -5.338583 5.3385773 -5.338583l0 0c1.4158936 0 2.7737732 0.56245613 3.7749481 1.5636349c1.0011902 1.0011787 1.5636444 2.359066 1.5636444 3.7749481l0 0c0 2.9484177 -2.3901672 5.338581 -5.3385925 5.338581l0 0c-2.94841 0 -5.3385773 -2.3901634 -5.3385773 -5.338581z" fill-rule="nonzero"></path><path fill="#ffffff" d="m216.4462 36.170605l0 0c0 -2.9484177 2.3901672 -5.338583 5.3385773 -5.338583l0 0c1.4158783 0 2.7737732 0.56245613 3.7749481 1.5636349c1.0011749 1.0011787 1.5636292 2.359066 1.5636292 3.7749481l0 0c0 2.9484177 -2.390152 5.338581 -5.3385773 5.338581l0 0c-2.94841 0 -5.3385773 -2.3901634 -5.3385773 -5.338581z" fill-rule="nonzero"></path><path stroke="#000000" stroke-width="2.0" stroke-linejoin="round" stroke-linecap="butt" d="m216.4462 36.170605l0 0c0 -2.9484177 2.3901672 -5.338583 5.3385773 -5.338583l0 0c1.4158783 0 2.7737732 0.56245613 3.7749481 1.5636349c1.0011749 1.0011787 1.5636292 2.359066 1.5636292 3.7749481l0 0c0 2.9484177 -2.390152 5.338581 -5.3385773 5.338581l0 0c-2.94841 0 -5.3385773 -2.3901634 -5.3385773 -5.338581z" fill-rule="nonzero"></path><path fill="#ffffff" d="m236.06866 36.170605l0 0c0 -2.9484177 2.3901672 -5.338583 5.3385925 -5.338583l0 0c1.4158783 0 2.7737732 0.56245613 3.7749481 1.5636349c1.0011749 1.0011787 1.5636292 2.359066 1.5636292 3.7749481l0 0c0 2.9484177 -2.3901672 5.338581 -5.3385773 5.338581l0 0c-2.9484253 0 -5.3385925 -2.3901634 -5.3385925 -5.338581z" fill-rule="nonzero"></path><path stroke="#000000" stroke-width="2.0" stroke-linejoin="round" stroke-linecap="butt" d="m236.06866 36.170605l0 0c0 -2.9484177 2.3901672 -5.338583 5.3385925 -5.338583l0 0c1.4158783 0 2.7737732 0.56245613 3.7749481 1.5636349c1.0011749 1.0011787 1.5636292 2.359066 1.5636292 3.7749481l0 0c0 2.9484177 -2.3901672 5.338581 -5.3385773 5.338581l0 0c-2.9484253 0 -5.3385925 -2.3901634 -5.3385925 -5.338581z" fill-rule="nonzero"></path><path fill="#ffffff" d="m255.69118 36.170605l0 0c0 -2.9484177 2.390152 -5.338583 5.3385773 -5.338583l0 0c1.4158936 0 2.7737732 0.56245613 3.7749329 1.5636349c1.0011902 1.0011787 1.5636597 2.359066 1.5636597 3.7749481l0 0c0 2.9484177 -2.3901672 5.338581 -5.3385925 5.338581l0 0c-2.9484253 0 -5.3385773 -2.3901634 -5.3385773 -5.338581z" fill-rule="nonzero"></path><path stroke="#000000" stroke-width="2.0" stroke-linejoin="round" stroke-linecap="butt" d="m255.69118 36.170605l0 0c0 -2.9484177 2.390152 -5.338583 5.3385773 -5.338583l0 0c1.4158936 0 2.7737732 0.56245613 3.7749329 1.5636349c1.0011902 1.0011787 1.5636597 2.359066 1.5636597 3.7749481l0 0c0 2.9484177 -2.3901672 5.338581 -5.3385925 5.338581l0 0c-2.9484253 0 -5.3385773 -2.3901634 -5.3385773 -5.338581z" fill-rule="nonzero"></path><path fill="#ffffff" d="m275.31366 36.170605l0 0c0 -2.9484177 2.3901672 -5.338583 5.338562 -5.338583l0 0c1.4158936 0 2.7737732 0.56245613 3.7749634 1.5636349c1.0011597 1.0011787 1.5636292 2.359066 1.5636292 3.7749481l0 0c0 2.9484177 -2.3901672 5.338581 -5.3385925 5.338581l0 0c-2.9483948 0 -5.338562 -2.3901634 -5.338562 -5.338581z" fill-rule="nonzero"></path><path stroke="#000000" stroke-width="2.0" stroke-linejoin="round" stroke-linecap="butt" d="m275.31366 36.170605l0 0c0 -2.9484177 2.3901672 -5.338583 5.338562 -5.338583l0 0c1.4158936 0 2.7737732 0.56245613 3.7749634 1.5636349c1.0011597 1.0011787 1.5636292 2.359066 1.5636292 3.7749481l0 0c0 2.9484177 -2.3901672 5.338581 -5.3385925 5.338581l0 0c-2.9483948 0 -5.338562 -2.3901634 -5.338562 -5.338581z" fill-rule="nonzero"></path><path fill="#ffffff" d="m49.181103 58.740158l0 0c0 -2.9484177 2.3901634 -5.338585 5.338581 -5.338585l0 0c1.4158821 0 2.7737694 0.56245804 3.7749481 1.5636368c1.0011787 1.0011787 1.5636368 2.359066 1.5636368 3.7749481l0 0c0 2.9484177 -2.3901672 5.338585 -5.338585 5.338585l0 0c-2.9484177 0 -5.338581 -2.3901672 -5.338581 -5.338585z" fill-rule="nonzero"></path><path stroke="#000000" stroke-width="2.0" stroke-linejoin="round" stroke-linecap="butt" d="m49.181103 58.740158l0 0c0 -2.9484177 2.3901634 -5.338585 5.338581 -5.338585l0 0c1.4158821 0 2.7737694 0.56245804 3.7749481 1.5636368c1.0011787 1.0011787 1.5636368 2.359066 1.5636368 3.7749481l0 0c0 2.9484177 -2.3901672 5.338585 -5.338585 5.338585l0 0c-2.9484177 0 -5.338581 -2.3901672 -5.338581 -5.338585z" fill-rule="nonzero"></path><path fill="#ffffff" d="m68.80359 58.740158l0 0c0 -2.9484177 2.3901596 -5.338585 5.3385773 -5.338585l0 0c1.4158783 0 2.7737732 0.56245804 3.7749481 1.5636368c1.0011826 1.0011787 1.5636368 2.359066 1.5636368 3.7749481l0 0c0 2.9484177 -2.3901672 5.338585 -5.338585 5.338585l0 0c-2.9484177 0 -5.3385773 -2.3901672 -5.3385773 -5.338585z" fill-rule="nonzero"></path><path stroke="#000000" stroke-width="2.0" stroke-linejoin="round" stroke-linecap="butt" d="m68.80359 58.740158l0 0c0 -2.9484177 2.3901596 -5.338585 5.3385773 -5.338585l0 0c1.4158783 0 2.7737732 0.56245804 3.7749481 1.5636368c1.0011826 1.0011787 1.5636368 2.359066 1.5636368 3.7749481l0 0c0 2.9484177 -2.3901672 5.338585 -5.338585 5.338585l0 0c-2.9484177 0 -5.3385773 -2.3901672 -5.3385773 -5.338585z" fill-rule="nonzero"></path><path fill="#ffffff" d="m88.42607 58.740158l0 0c0 -2.9484177 2.3901596 -5.338585 5.3385773 -5.338585l0 0c1.4158859 0 2.7737732 0.56245804 3.7749481 1.5636368c1.0011826 1.0011787 1.5636368 2.359066 1.5636368 3.7749481l0 0c0 2.9484177 -2.3901672 5.338585 -5.338585 5.338585l0 0c-2.9484177 0 -5.3385773 -2.3901672 -5.3385773 -5.338585z" fill-rule="nonzero"></path><path stroke="#000000" stroke-width="2.0" stroke-linejoin="round" stroke-linecap="butt" d="m88.42607 58.740158l0 0c0 -2.9484177 2.3901596 -5.338585 5.3385773 -5.338585l0 0c1.4158859 0 2.7737732 0.56245804 3.7749481 1.5636368c1.0011826 1.0011787 1.5636368 2.359066 1.5636368 3.7749481l0 0c0 2.9484177 -2.3901672 5.338585 -5.338585 5.338585l0 0c-2.9484177 0 -5.3385773 -2.3901672 -5.3385773 -5.338585z" fill-rule="nonzero"></path><path fill="#ffffff" d="m108.04855 58.740158l0 0c0 -2.9484177 2.3901672 -5.338585 5.338585 -5.338585l0 0c1.4158783 0 2.7737732 0.56245804 3.7749481 1.5636368c1.0011826 1.0011787 1.5636368 2.359066 1.5636368 3.7749481l0 0c0 2.9484177 -2.3901672 5.338585 -5.338585 5.338585l0 0c-2.9484177 0 -5.338585 -2.3901672 -5.338585 -5.338585z" fill-rule="nonzero"></path><path stroke="#000000" stroke-width="2.0" stroke-linejoin="round" stroke-linecap="butt" d="m108.04855 58.740158l0 0c0 -2.9484177 2.3901672 -5.338585 5.338585 -5.338585l0 0c1.4158783 0 2.7737732 0.56245804 3.7749481 1.5636368c1.0011826 1.0011787 1.5636368 2.359066 1.5636368 3.7749481l0 0c0 2.9484177 -2.3901672 5.338585 -5.338585 5.338585l0 0c-2.9484177 0 -5.338585 -2.3901672 -5.338585 -5.338585z" fill-rule="nonzero"></path><path fill="#ffffff" d="m127.67104 58.740158l0 0c0 -2.9484177 2.3901596 -5.338585 5.338585 -5.338585l0 0c1.4158783 0 2.7737732 0.56245804 3.7749481 1.5636368c1.0011749 1.0011787 1.5636292 2.359066 1.5636292 3.7749481l0 0c0 2.9484177 -2.3901672 5.338585 -5.3385773 5.338585l0 0c-2.9484253 0 -5.338585 -2.3901672 -5.338585 -5.338585z" fill-rule="nonzero"></path><path stroke="#000000" stroke-width="2.0" stroke-linejoin="round" stroke-linecap="butt" d="m127.67104 58.740158l0 0c0 -2.9484177 2.3901596 -5.338585 5.338585 -5.338585l0 0c1.4158783 0 2.7737732 0.56245804 3.7749481 1.5636368c1.0011749 1.0011787 1.5636292 2.359066 1.5636292 3.7749481l0 0c0 2.9484177 -2.3901672 5.338585 -5.3385773 5.338585l0 0c-2.9484253 0 -5.338585 -2.3901672 -5.338585 -5.338585z" fill-rule="nonzero"></path><path fill="#ffffff" d="m147.29352 58.740158l0 0c0 -2.9484177 2.3901672 -5.338585 5.3385925 -5.338585l0 0c1.4158783 0 2.773758 0.56245804 3.7749481 1.5636368c1.0011749 1.0011787 1.5636292 2.359066 1.5636292 3.7749481l0 0c0 2.9484177 -2.3901672 5.338585 -5.3385773 5.338585l0 0c-2.9484253 0 -5.3385925 -2.3901672 -5.3385925 -5.338585z" fill-rule="nonzero"></path><path stroke="#000000" stroke-width="2.0" stroke-linejoin="round" stroke-linecap="butt" d="m147.29352 58.740158l0 0c0 -2.9484177 2.3901672 -5.338585 5.3385925 -5.338585l0 0c1.4158783 0 2.773758 0.56245804 3.7749481 1.5636368c1.0011749 1.0011787 1.5636292 2.359066 1.5636292 3.7749481l0 0c0 2.9484177 -2.3901672 5.338585 -5.3385773 5.338585l0 0c-2.9484253 0 -5.3385925 -2.3901672 -5.3385925 -5.338585z" fill-rule="nonzero"></path><path fill="#ffffff" d="m166.91602 58.740158l0 0c0 -2.9484177 2.3901672 -5.338585 5.3385773 -5.338585l0 0c1.4158783 0 2.7737732 0.56245804 3.7749481 1.5636368c1.0011749 1.0011787 1.5636292 2.359066 1.5636292 3.7749481l0 0c0 2.9484177 -2.390152 5.338585 -5.3385773 5.338585l0 0c-2.94841 0 -5.3385773 -2.3901672 -5.3385773 -5.338585z" fill-rule="nonzero"></path><path stroke="#000000" stroke-width="2.0" stroke-linejoin="round" stroke-linecap="butt" d="m166.91602 58.740158l0 0c0 -2.9484177 2.3901672 -5.338585 5.3385773 -5.338585l0 0c1.4158783 0 2.7737732 0.56245804 3.7749481 1.5636368c1.0011749 1.0011787 1.5636292 2.359066 1.5636292 3.7749481l0 0c0 2.9484177 -2.390152 5.338585 -5.3385773 5.338585l0 0c-2.94841 0 -5.3385773 -2.3901672 -5.3385773 -5.338585z" fill-rule="nonzero"></path><path fill="#ffffff" d="m186.53848 58.740158l0 0c0 -2.9484177 2.3901672 -5.338585 5.3385925 -5.338585l0 0c1.4158783 0 2.773758 0.56245804 3.7749481 1.5636368c1.0011749 1.0011787 1.5636292 2.359066 1.5636292 3.7749481l0 0c0 2.9484177 -2.3901672 5.338585 -5.3385773 5.338585l0 0c-2.9484253 0 -5.3385925 -2.3901672 -5.3385925 -5.338585z" fill-rule="nonzero"></path><path stroke="#000000" stroke-width="2.0" stroke-linejoin="round" stroke-linecap="butt" d="m186.53848 58.740158l0 0c0 -2.9484177 2.3901672 -5.338585 5.3385925 -5.338585l0 0c1.4158783 0 2.773758 0.56245804 3.7749481 1.5636368c1.0011749 1.0011787 1.5636292 2.359066 1.5636292 3.7749481l0 0c0 2.9484177 -2.3901672 5.338585 -5.3385773 5.338585l0 0c-2.9484253 0 -5.3385925 -2.3901672 -5.3385925 -5.338585z" fill-rule="nonzero"></path><path fill="#ffffff" d="m206.16098 58.740158l0 0c0 -2.9484177 2.3901672 -5.338585 5.3385925 -5.338585l0 0c1.4158783 0 2.7737732 0.56245804 3.7749481 1.5636368c1.0011749 1.0011787 1.5636292 2.359066 1.5636292 3.7749481l0 0c0 2.9484177 -2.3901672 5.338585 -5.3385773 5.338585l0 0c-2.9484253 0 -5.3385925 -2.3901672 -5.3385925 -5.338585z" fill-rule="nonzero"></path><path stroke="#000000" stroke-width="2.0" stroke-linejoin="round" stroke-linecap="butt" d="m206.16098 58.740158l0 0c0 -2.9484177 2.3901672 -5.338585 5.3385925 -5.338585l0 0c1.4158783 0 2.7737732 0.56245804 3.7749481 1.5636368c1.0011749 1.0011787 1.5636292 2.359066 1.5636292 3.7749481l0 0c0 2.9484177 -2.3901672 5.338585 -5.3385773 5.338585l0 0c-2.9484253 0 -5.3385925 -2.3901672 -5.3385925 -5.338585z" fill-rule="nonzero"></path><path fill="#ffffff" d="m225.78346 58.740158l0 0c0 -2.9484177 2.3901672 -5.338585 5.3385773 -5.338585l0 0c1.4158936 0 2.7737732 0.56245804 3.7749481 1.5636368c1.0011902 1.0011787 1.5636444 2.359066 1.5636444 3.7749481l0 0c0 2.9484177 -2.3901672 5.338585 -5.3385925 5.338585l0 0c-2.94841 0 -5.3385773 -2.3901672 -5.3385773 -5.338585z" fill-rule="nonzero"></path><path stroke="#000000" stroke-width="2.0" stroke-linejoin="round" stroke-linecap="butt" d="m225.78346 58.740158l0 0c0 -2.9484177 2.3901672 -5.338585 5.3385773 -5.338585l0 0c1.4158936 0 2.7737732 0.56245804 3.7749481 1.5636368c1.0011902 1.0011787 1.5636444 2.359066 1.5636444 3.7749481l0 0c0 2.9484177 -2.3901672 5.338585 -5.3385925 5.338585l0 0c-2.94841 0 -5.3385773 -2.3901672 -5.3385773 -5.338585z" fill-rule="nonzero"></path><path fill="#ffffff" d="m245.40594 58.740158l0 0c0 -2.9484177 2.3901672 -5.338585 5.3385773 -5.338585l0 0c1.4158783 0 2.7737732 0.56245804 3.7749481 1.5636368c1.0011749 1.0011787 1.5636292 2.359066 1.5636292 3.7749481l0 0c0 2.9484177 -2.390152 5.338585 -5.3385773 5.338585l0 0c-2.94841 0 -5.3385773 -2.3901672 -5.3385773 -5.338585z" fill-rule="nonzero"></path><path stroke="#000000" stroke-width="2.0" stroke-linejoin="round" stroke-linecap="butt" d="m245.40594 58.740158l0 0c0 -2.9484177 2.3901672 -5.338585 5.3385773 -5.338585l0 0c1.4158783 0 2.7737732 0.56245804 3.7749481 1.5636368c1.0011749 1.0011787 1.5636292 2.359066 1.5636292 3.7749481l0 0c0 2.9484177 -2.390152 5.338585 -5.3385773 5.338585l0 0c-2.94841 0 -5.3385773 -2.3901672 -5.3385773 -5.338585z" fill-rule="nonzero"></path><path fill="#ffffff" d="m265.02844 58.740158l0 0c0 -2.9484177 2.3901672 -5.338585 5.3385925 -5.338585l0 0c1.415863 0 2.7737732 0.56245804 3.7749329 1.5636368c1.0011902 1.0011787 1.5636292 2.359066 1.5636292 3.7749481l0 0c0 2.9484177 -2.3901672 5.338585 -5.338562 5.338585l0 0c-2.9484253 0 -5.3385925 -2.3901672 -5.3385925 -5.338585z" fill-rule="nonzero"></path><path stroke="#000000" stroke-width="2.0" stroke-linejoin="round" stroke-linecap="butt" d="m265.02844 58.740158l0 0c0 -2.9484177 2.3901672 -5.338585 5.3385925 -5.338585l0 0c1.415863 0 2.7737732 0.56245804 3.7749329 1.5636368c1.0011902 1.0011787 1.5636292 2.359066 1.5636292 3.7749481l0 0c0 2.9484177 -2.3901672 5.338585 -5.338562 5.338585l0 0c-2.9484253 0 -5.3385925 -2.3901672 -5.3385925 -5.338585z" fill-rule="nonzero"></path><path fill="#ffffff" d="m7.195538 38.372704l0 0c0 -3.8181572 3.0952287 -6.9133854 6.913386 -6.9133854l0 0c1.8335438 0 3.5919905 0.7283726 4.888503 2.0248852c1.2965107 1.2965088 2.0248833 3.0549545 2.0248833 4.8885l0 0c0 3.8181572 -3.0952282 6.9133873 -6.9133863 6.9133873l0 0c-3.8181572 0 -6.913386 -3.09523 -6.913386 -6.9133873z" fill-rule="nonzero"></path><path stroke="#000000" stroke-width="2.0" stroke-linejoin="round" stroke-linecap="butt" d="m7.195538 38.372704l0 0c0 -3.8181572 3.0952287 -6.9133854 6.913386 -6.9133854l0 0c1.8335438 0 3.5919905 0.7283726 4.888503 2.0248852c1.2965107 1.2965088 2.0248833 3.0549545 2.0248833 4.8885l0 0c0 3.8181572 -3.0952282 6.9133873 -6.9133863 6.9133873l0 0c-3.8181572 0 -6.913386 -3.09523 -6.913386 -6.9133873z" fill-rule="nonzero"></path><path fill="#ffffff" d="m301.5 38.372704l0 0c0 -3.8181572 3.0952148 -6.9133854 6.913391 -6.9133854l0 0c1.8335266 0 3.59198 0.7283726 4.888489 2.0248852c1.2965088 1.2965088 2.0249023 3.0549545 2.0249023 4.8885l0 0c0 3.8181572 -3.0952454 6.9133873 -6.913391 6.9133873l0 0c-3.8181763 0 -6.913391 -3.09523 -6.913391 -6.9133873z" fill-rule="nonzero"></path><path stroke="#000000" stroke-width="2.0" stroke-linejoin="round" stroke-linecap="butt" d="m301.5 38.372704l0 0c0 -3.8181572 3.0952148 -6.9133854 6.913391 -6.9133854l0 0c1.8335266 0 3.59198 0.7283726 4.888489 2.0248852c1.2965088 1.2965088 2.0249023 3.0549545 2.0249023 4.8885l0 0c0 3.8181572 -3.0952454 6.9133873 -6.913391 6.9133873l0 0c-3.8181763 0 -6.913391 -3.09523 -6.913391 -6.9133873z" fill-rule="nonzero"></path><path fill="#000000" fill-opacity="0.0" d="m35.17323 18.939632l254.86613 0" fill-rule="nonzero"></path><path stroke="#000000" stroke-width="2.0" stroke-linejoin="round" stroke-linecap="butt" d="m35.17323 18.939632l254.86613 0" fill-rule="nonzero"></path><path fill="#000000" fill-opacity="0.0" d="m297.65222 26.515749l-7.8110046 29.102362" fill-rule="nonzero"></path><path stroke="#000000" stroke-width="2.0" stroke-linejoin="round" stroke-linecap="butt" d="m297.65222 26.515749l-7.8110046 29.102362" fill-rule="nonzero"></path><path fill="#000000" fill-opacity="0.0" d="m275.31497 72.514435l14.582672 -17.385826" fill-rule="nonzero"></path><path stroke="#000000" stroke-width="2.0" stroke-linejoin="round" stroke-linecap="butt" d="m275.31497 72.514435l14.582672 -17.385826" fill-rule="nonzero"></path><path fill="#000000" fill-opacity="0.0" d="m289.13123 18.895014l9.070862 8.787401" fill-rule="nonzero"></path><path stroke="#000000" stroke-width="2.0" stroke-linejoin="round" stroke-linecap="butt" d="m289.13123 18.895014l9.070862 8.787401" fill-rule="nonzero"></path><path fill="#000000" fill-opacity="0.0" d="m48.404198 72.73491l227.59055 -0.22047424" fill-rule="nonzero"></path><path stroke="#000000" stroke-width="2.0" stroke-linejoin="round" stroke-linecap="butt" d="m48.404198 72.73491l227.59055 -0.22047424" fill-rule="nonzero"></path><path fill="#000000" fill-opacity="0.0" d="m26.843832 26.515749l7.8110256 29.102362" fill-rule="nonzero"></path><path stroke="#000000" stroke-width="2.0" stroke-linejoin="round" stroke-linecap="butt" d="m26.843832 26.515749l7.8110256 29.102362" fill-rule="nonzero"></path><path fill="#000000" fill-opacity="0.0" d="m49.181103 72.514435l-14.58268 -17.385826" fill-rule="nonzero"></path><path stroke="#000000" stroke-width="2.0" stroke-linejoin="round" stroke-linecap="butt" d="m49.181103 72.514435l-14.58268 -17.385826" fill-rule="nonzero"></path><path fill="#000000" fill-opacity="0.0" d="m35.36483 18.895014l-9.070868 8.787401" fill-rule="nonzero"></path><path stroke="#000000" stroke-width="2.0" stroke-linejoin="round" stroke-linecap="butt" d="m35.36483 18.895014l-9.070868 8.787401" fill-rule="nonzero"></path><path fill="#000000" fill-opacity="0.0" d="m26.843832 26.560368l7.8110256 29.102364" fill-rule="nonzero"></path><path stroke="#000000" stroke-width="2.0" stroke-linejoin="round" stroke-linecap="butt" d="m26.843832 26.560368l7.8110256 29.102364" fill-rule="nonzero"></path><path fill="#000000" fill-opacity="0.0" d="m35.36483 18.939632l-9.070868 8.787401" fill-rule="nonzero"></path><path stroke="#000000" stroke-width="2.0" stroke-linejoin="round" stroke-linecap="butt" d="m35.36483 18.939632l-9.070868 8.787401" fill-rule="nonzero"></path><path fill="#000000" fill-opacity="0.0" d="m49.181103 72.55905l-14.58268 -17.385822" fill-rule="nonzero"></path><path stroke="#000000" stroke-width="2.0" stroke-linejoin="round" stroke-linecap="butt" d="m49.181103 72.55905l-14.58268 -17.385822" fill-rule="nonzero"></path></g></svg>

