<?xml version="1.0" standalone="yes"?>

<svg version="1.1" viewBox="0.0 0.0 348.0 348.0" fill="none" stroke="none" stroke-linecap="square" stroke-miterlimit="10" xmlns="http://www.w3.org/2000/svg" xmlns:xlink="http://www.w3.org/1999/xlink"><clipPath id="p.0"><path d="m0 0l348.0 0l0 348.0l-348.0 0l0 -348.0z" clip-rule="nonzero"></path></clipPath><g clip-path="url(#p.0)"><path fill="#000000" fill-opacity="0.0" d="m0 0l348.0 0l0 348.0l-348.0 0z" fill-rule="nonzero"></path><path fill="#ffffff" d="m-6.0 0l354.01575 0l0 347.9685l-354.01575 0z" fill-rule="nonzero"></path><path fill="#000000" fill-opacity="0.0" d="m5.07874 5.7758217l336.9134 0l0 337.6693l-336.9134 0z" fill-rule="nonzero"></path><path stroke="#000000" stroke-width="2.0" stroke-linejoin="round" stroke-linecap="butt" d="m5.07874 5.7758217l336.9134 0l0 337.6693l-336.9134 0z" fill-rule="nonzero"></path><path fill="#ffffff" d="m282.73444 40.553925l0 0c0 -8.375591 6.966034 -15.165352 15.5590515 -15.165352l0 0c4.126526 0 8.084015 1.5977726 11.001923 4.441828c2.9178772 2.844057 4.557129 6.7014217 4.557129 10.723524l0 0c0 8.375595 -6.9660034 15.165356 -15.5590515 15.165356l0 0c-8.593018 0 -15.5590515 -6.7897606 -15.5590515 -15.165356z" fill-rule="nonzero"></path><path stroke="#000000" stroke-width="2.0" stroke-linejoin="round" stroke-linecap="butt" d="m282.73444 40.553925l0 0c0 -8.375591 6.966034 -15.165352 15.5590515 -15.165352l0 0c4.126526 0 8.084015 1.5977726 11.001923 4.441828c2.9178772 2.844057 4.557129 6.7014217 4.557129 10.723524l0 0c0 8.375595 -6.9660034 15.165356 -15.5590515 15.165356l0 0c-8.593018 0 -15.5590515 -6.7897606 -15.5590515 -15.165356z" fill-rule="nonzero"></path><path fill="#000000" fill-opacity="0.0" d="m110.603676 279.34647l97.92126 0l0 41.88974l-97.92126 0z" fill-rule="nonzero"></path><path stroke="#000000" stroke-width="2.0" stroke-linejoin="round" stroke-linecap="butt" d="m110.603676 279.34647l97.92126 0l0 41.88974l-97.92126 0z" fill-rule="nonzero"></path><path fill="#000000" d="m125.183586 302.83633l1.6875 -0.140625q0.125 1.015625 0.5625 1.671875q0.4375 0.65625 1.3593826 1.0625q0.9375 0.40625 2.09375 0.40625q1.03125 0 1.8125 -0.3125q0.796875 -0.3125 1.1875 -0.84375q0.390625 -0.53125 0.390625 -1.15625q0 -0.640625 -0.375 -1.109375q-0.375 -0.484375 -1.234375 -0.8125q-0.546875 -0.21875 -2.421875 -0.65625q-1.875 -0.453125 -2.6250076 -0.859375q-0.96875 -0.515625 -1.453125 -1.265625q-0.46875 -0.75 -0.46875 -1.6875q0 -1.03125 0.578125 -1.921875q0.59375 -0.90625 1.703125 -1.359375q1.1250076 -0.46875 2.5000076 -0.46875q1.515625 0 2.671875 0.484375q1.15625 0.484375 1.765625 1.4375q0.625 0.9375 0.671875 2.140625l-1.71875 0.125q-0.140625 -1.28125 -0.953125 -1.9375q-0.796875 -0.671875 -2.359375 -0.671875q-1.625 0 -2.375 0.609375q-0.7500076 0.59375 -0.7500076 1.4375q0 0.734375 0.53125 1.203125q0.5156326 0.46875 2.7031326 0.96875q2.203125 0.5 3.015625 0.875q1.1875 0.546875 1.75 1.390625q0.578125 0.828125 0.578125 1.921875q0 1.09375 -0.625 2.0625q-0.625 0.953125 -1.796875 1.484375q-1.15625 0.53125 -2.609375 0.53125q-1.84375 0 -3.0937576 -0.53125q-1.25 -0.546875 -1.96875 -1.625q-0.703125 -1.078125 -0.734375 -2.453125zm21.97483 -9.21875l1.796875 0l0 7.84375q0 2.0625 -0.46875 3.265625q-0.453125 1.203125 -1.671875 1.96875q-1.203125 0.75 -3.171875 0.75q-1.90625 0 -3.125 -0.65625q-1.21875 -0.65625 -1.734375 -1.90625q-0.515625 -1.25 -0.515625 -3.421875l0 -7.84375l1.796875 0l0 7.84375q0 1.765625 0.328125 2.609375q0.328125 0.84375 1.125 1.296875q0.8125 0.453125 1.96875 0.453125q1.984375 0 2.828125 -0.890625q0.84375 -0.90625 0.84375 -3.46875l0 -7.84375zm4.472946 13.59375l0 -13.59375l5.109375 0q1.546875 0 2.484375 0.40625q0.953125 0.40625 1.484375 1.265625q0.53125 0.859375 0.53125 1.796875q0 0.875 -0.46875 1.65625q-0.46875 0.765625 -1.4375 1.234375q1.234375 0.359375 1.890625 1.234375q0.671875 0.875 0.671875 2.0625q0 0.953125 -0.40625 1.78125q-0.390625 0.8125 -0.984375 1.265625q-0.59375 0.4375 -1.5 0.671875q-0.890625 0.21875 -2.1875 0.21875l-5.1875 0zm1.796875 -7.890625l2.9375 0q1.203125 0 1.71875 -0.15625q0.6875 -0.203125 1.03125 -0.671875q0.359375 -0.46875 0.359375 -1.1875q0 -0.671875 -0.328125 -1.1875q-0.328125 -0.515625 -0.9375 -0.703125q-0.59375 -0.203125 -2.0625 -0.203125l-2.71875 0l0 4.109375zm0 6.28125l3.390625 0q0.875 0 1.21875 -0.0625q0.625 -0.109375 1.046875 -0.359375q0.421875 -0.265625 0.6875 -0.765625q0.265625 -0.5 0.265625 -1.140625q0 -0.765625 -0.390625 -1.328125q-0.390625 -0.5625 -1.078125 -0.78125q-0.6875 -0.234375 -1.984375 -0.234375l-3.15625 0l0 4.671875zm10.662323 1.609375l0 -13.59375l2.71875 0l3.21875 9.625q0.4375 1.34375 0.640625 2.015625q0.234375 -0.75 0.734375 -2.1875l3.2499847 -9.453125l2.421875 0l0 13.59375l-1.734375 0l0 -11.390625l-3.9531097 11.390625l-1.625 0l-3.9375 -11.578125l0 11.578125l-1.734375 0zm15.900162 0l0 -13.59375l1.8125 0l0 13.59375l-1.8125 0zm8.339554 0l0 -12.0l-4.46875 0l0 -1.59375l10.765625 0l0 1.59375l-4.5 0l0 12.0l-1.796875 0z" fill-rule="nonzero"></path><path fill="#ffffff" d="m50.50525 84.80578l0 0c0 -5.5663376 4.5124054 -10.078743 10.078739 -10.078743l0 0c2.67305 0 5.236614 1.0618591 7.126751 2.9519958c1.8901291 1.8901291 2.9519882 4.453697 2.9519882 7.126747l0 0c0 5.56633 -4.5124054 10.078735 -10.078739 10.078735l0 0c-5.566334 0 -10.078739 -4.5124054 -10.078739 -10.078735z" fill-rule="nonzero"></path><path stroke="#000000" stroke-width="2.0" stroke-linejoin="round" stroke-linecap="butt" d="m50.50525 84.80578l0 0c0 -5.5663376 4.5124054 -10.078743 10.078739 -10.078743l0 0c2.67305 0 5.236614 1.0618591 7.126751 2.9519958c1.8901291 1.8901291 2.9519882 4.453697 2.9519882 7.126747l0 0c0 5.56633 -4.5124054 10.078735 -10.078739 10.078735l0 0c-5.566334 0 -10.078739 -4.5124054 -10.078739 -10.078735z" fill-rule="nonzero"></path><path fill="#000000" d="m56.537144 88.511055l4.047245 -7.401573l4.047241 7.401573z" fill-rule="nonzero"></path><path stroke="#000000" stroke-width="2.0" stroke-linejoin="round" stroke-linecap="butt" d="m56.537144 88.511055l4.047245 -7.401573l4.047241 7.401573z" fill-rule="nonzero"></path><path fill="#ffffff" d="m99.99606 84.80578l0 0c0 -5.5663376 4.5124054 -10.078743 10.078743 -10.078743l0 0c2.6730423 0 5.2366104 1.0618591 7.1267395 2.9519958c1.8901367 1.8901291 2.9519958 4.453697 2.9519958 7.126747l0 0c0 5.56633 -4.5124054 10.078735 -10.078735 10.078735l0 0c-5.5663376 0 -10.078743 -4.5124054 -10.078743 -10.078735z" fill-rule="nonzero"></path><path stroke="#000000" stroke-width="2.0" stroke-linejoin="round" stroke-linecap="butt" d="m99.99606 84.80578l0 0c0 -5.5663376 4.5124054 -10.078743 10.078743 -10.078743l0 0c2.6730423 0 5.2366104 1.0618591 7.1267395 2.9519958c1.8901367 1.8901291 2.9519958 4.453697 2.9519958 7.126747l0 0c0 5.56633 -4.5124054 10.078735 -10.078735 10.078735l0 0c-5.5663376 0 -10.078743 -4.5124054 -10.078743 -10.078735z" fill-rule="nonzero"></path><path fill="#000000" d="m106.02796 88.511055l4.047241 -7.401573l4.047241 7.401573z" fill-rule="nonzero"></path><path stroke="#000000" stroke-width="2.0" stroke-linejoin="round" stroke-linecap="butt" d="m106.02796 88.511055l4.047241 -7.401573l4.047241 7.401573z" fill-rule="nonzero"></path><path fill="#ffffff" d="m149.48557 84.80578l0 0c0 -5.5663376 4.5124054 -10.078743 10.078735 -10.078743l0 0c2.67305 0 5.236618 1.0618591 7.1267548 2.9519958c1.8901215 1.8901291 2.9519958 4.453697 2.9519958 7.126747l0 0c0 5.56633 -4.5124054 10.078735 -10.078751 10.078735l0 0c-5.56633 0 -10.078735 -4.5124054 -10.078735 -10.078735z" fill-rule="nonzero"></path><path stroke="#000000" stroke-width="2.0" stroke-linejoin="round" stroke-linecap="butt" d="m149.48557 84.80578l0 0c0 -5.5663376 4.5124054 -10.078743 10.078735 -10.078743l0 0c2.67305 0 5.236618 1.0618591 7.1267548 2.9519958c1.8901215 1.8901291 2.9519958 4.453697 2.9519958 7.126747l0 0c0 5.56633 -4.5124054 10.078735 -10.078751 10.078735l0 0c-5.56633 0 -10.078735 -4.5124054 -10.078735 -10.078735z" fill-rule="nonzero"></path><path fill="#000000" d="m155.51746 88.511055l4.047241 -7.401573l4.0472565 7.401573z" fill-rule="nonzero"></path><path stroke="#000000" stroke-width="2.0" stroke-linejoin="round" stroke-linecap="butt" d="m155.51746 88.511055l4.047241 -7.401573l4.0472565 7.401573z" fill-rule="nonzero"></path><path fill="#ffffff" d="m198.89108 84.80578l0 0c0 -5.5663376 4.5124054 -10.078743 10.078735 -10.078743l0 0c2.67305 0 5.236618 1.0618591 7.1267395 2.9519958c1.8901367 1.8901291 2.9519958 4.453697 2.9519958 7.126747l0 0c0 5.56633 -4.5124054 10.078735 -10.078735 10.078735l0 0c-5.56633 0 -10.078735 -4.5124054 -10.078735 -10.078735z" fill-rule="nonzero"></path><path stroke="#000000" stroke-width="2.0" stroke-linejoin="round" stroke-linecap="butt" d="m198.89108 84.80578l0 0c0 -5.5663376 4.5124054 -10.078743 10.078735 -10.078743l0 0c2.67305 0 5.236618 1.0618591 7.1267395 2.9519958c1.8901367 1.8901291 2.9519958 4.453697 2.9519958 7.126747l0 0c0 5.56633 -4.5124054 10.078735 -10.078735 10.078735l0 0c-5.56633 0 -10.078735 -4.5124054 -10.078735 -10.078735z" fill-rule="nonzero"></path><path fill="#000000" d="m204.92297 88.511055l4.047241 -7.401573l4.047241 7.401573z" fill-rule="nonzero"></path><path stroke="#000000" stroke-width="2.0" stroke-linejoin="round" stroke-linecap="butt" d="m204.92297 88.511055l4.047241 -7.401573l4.047241 7.401573z" fill-rule="nonzero"></path><path fill="#ffffff" d="m248.46588 84.80578l0 0c0 -5.5663376 4.5124054 -10.078743 10.078735 -10.078743l0 0c2.6730652 0 5.2366333 1.0618591 7.1267395 2.9519958c1.8901367 1.8901291 2.9519958 4.453697 2.9519958 7.126747l0 0c0 5.56633 -4.51239 10.078735 -10.078735 10.078735l0 0c-5.56633 0 -10.078735 -4.5124054 -10.078735 -10.078735z" fill-rule="nonzero"></path><path stroke="#000000" stroke-width="2.0" stroke-linejoin="round" stroke-linecap="butt" d="m248.46588 84.80578l0 0c0 -5.5663376 4.5124054 -10.078743 10.078735 -10.078743l0 0c2.6730652 0 5.2366333 1.0618591 7.1267395 2.9519958c1.8901367 1.8901291 2.9519958 4.453697 2.9519958 7.126747l0 0c0 5.56633 -4.51239 10.078735 -10.078735 10.078735l0 0c-5.56633 0 -10.078735 -4.5124054 -10.078735 -10.078735z" fill-rule="nonzero"></path><path fill="#000000" d="m254.49777 88.511055l4.047241 -7.401573l4.047241 7.401573z" fill-rule="nonzero"></path><path stroke="#000000" stroke-width="2.0" stroke-linejoin="round" stroke-linecap="butt" d="m254.49777 88.511055l4.047241 -7.401573l4.047241 7.401573z" fill-rule="nonzero"></path><path fill="#ffffff" d="m50.503937 259.30185l0 0c0 5.5663147 4.5124054 10.078735 10.078739 10.078735l0 0c2.67305 0 5.236614 -1.0618591 7.126751 -2.9519958c1.8901291 -1.8901367 2.9519882 -4.453705 2.9519882 -7.1267395l0 0c0 -5.566345 -4.5124054 -10.078751 -10.078739 -10.078751l0 0c-5.566334 0 -10.078739 4.5124054 -10.078739 10.078751z" fill-rule="nonzero"></path><path stroke="#000000" stroke-width="2.0" stroke-linejoin="round" stroke-linecap="butt" d="m50.503937 259.30185l0 0c0 5.5663147 4.5124054 10.078735 10.078739 10.078735l0 0c2.67305 0 5.236614 -1.0618591 7.126751 -2.9519958c1.8901291 -1.8901367 2.9519882 -4.453705 2.9519882 -7.1267395l0 0c0 -5.566345 -4.5124054 -10.078751 -10.078739 -10.078751l0 0c-5.566334 0 -10.078739 4.5124054 -10.078739 10.078751z" fill-rule="nonzero"></path><path fill="#000000" d="m56.53583 255.59656l4.047245 7.401581l4.047241 -7.401581z" fill-rule="nonzero"></path><path stroke="#000000" stroke-width="2.0" stroke-linejoin="round" stroke-linecap="butt" d="m56.53583 255.59656l4.047245 7.401581l4.047241 -7.401581z" fill-rule="nonzero"></path><path fill="#ffffff" d="m99.99475 259.30185l0 0c0 5.5663147 4.5124054 10.078735 10.078743 10.078735l0 0c2.6730423 0 5.2366104 -1.0618591 7.1267395 -2.9519958c1.8901367 -1.8901367 2.9519958 -4.453705 2.9519958 -7.1267395l0 0c0 -5.566345 -4.5124054 -10.078751 -10.078735 -10.078751l0 0c-5.5663376 0 -10.078743 4.5124054 -10.078743 10.078751z" fill-rule="nonzero"></path><path stroke="#000000" stroke-width="2.0" stroke-linejoin="round" stroke-linecap="butt" d="m99.99475 259.30185l0 0c0 5.5663147 4.5124054 10.078735 10.078743 10.078735l0 0c2.6730423 0 5.2366104 -1.0618591 7.1267395 -2.9519958c1.8901367 -1.8901367 2.9519958 -4.453705 2.9519958 -7.1267395l0 0c0 -5.566345 -4.5124054 -10.078751 -10.078735 -10.078751l0 0c-5.5663376 0 -10.078743 4.5124054 -10.078743 10.078751z" fill-rule="nonzero"></path><path fill="#000000" d="m106.02665 255.59656l4.047241 7.401581l4.047241 -7.401581z" fill-rule="nonzero"></path><path stroke="#000000" stroke-width="2.0" stroke-linejoin="round" stroke-linecap="butt" d="m106.02665 255.59656l4.047241 7.401581l4.047241 -7.401581z" fill-rule="nonzero"></path><path fill="#ffffff" d="m149.48425 259.30185l0 0c0 5.5663147 4.5124054 10.078735 10.078735 10.078735l0 0c2.67305 0 5.236618 -1.0618591 7.1267548 -2.9519958c1.8901215 -1.8901367 2.9519958 -4.453705 2.9519958 -7.1267395l0 0c0 -5.566345 -4.5124054 -10.078751 -10.078751 -10.078751l0 0c-5.56633 0 -10.078735 4.5124054 -10.078735 10.078751z" fill-rule="nonzero"></path><path stroke="#000000" stroke-width="2.0" stroke-linejoin="round" stroke-linecap="butt" d="m149.48425 259.30185l0 0c0 5.5663147 4.5124054 10.078735 10.078735 10.078735l0 0c2.67305 0 5.236618 -1.0618591 7.1267548 -2.9519958c1.8901215 -1.8901367 2.9519958 -4.453705 2.9519958 -7.1267395l0 0c0 -5.566345 -4.5124054 -10.078751 -10.078751 -10.078751l0 0c-5.56633 0 -10.078735 4.5124054 -10.078735 10.078751z" fill-rule="nonzero"></path><path fill="#000000" d="m155.51614 255.59656l4.047241 7.401581l4.0472565 -7.401581z" fill-rule="nonzero"></path><path stroke="#000000" stroke-width="2.0" stroke-linejoin="round" stroke-linecap="butt" d="m155.51614 255.59656l4.047241 7.401581l4.0472565 -7.401581z" fill-rule="nonzero"></path><path fill="#000000" d="m29.517061 98.30446l260.09448 0l0 146.99213l-260.09448 0z" fill-rule="nonzero"></path><path stroke="#000000" stroke-width="2.0" stroke-linejoin="round" stroke-linecap="butt" d="m29.517061 98.30446l260.09448 0l0 146.99213l-260.09448 0z" fill-rule="nonzero"></path><path fill="#ffffff" d="m198.88977 259.30185l0 0c0 5.5663147 4.5124054 10.078735 10.078735 10.078735l0 0c2.67305 0 5.236618 -1.0618591 7.1267395 -2.9519958c1.8901367 -1.8901367 2.9519958 -4.453705 2.9519958 -7.1267395l0 0c0 -5.566345 -4.5124054 -10.078751 -10.078735 -10.078751l0 0c-5.56633 0 -10.078735 4.5124054 -10.078735 10.078751z" fill-rule="nonzero"></path><path stroke="#000000" stroke-width="2.0" stroke-linejoin="round" stroke-linecap="butt" d="m198.88977 259.30185l0 0c0 5.5663147 4.5124054 10.078735 10.078735 10.078735l0 0c2.67305 0 5.236618 -1.0618591 7.1267395 -2.9519958c1.8901367 -1.8901367 2.9519958 -4.453705 2.9519958 -7.1267395l0 0c0 -5.566345 -4.5124054 -10.078751 -10.078735 -10.078751l0 0c-5.56633 0 -10.078735 4.5124054 -10.078735 10.078751z" fill-rule="nonzero"></path><path fill="#000000" d="m204.92166 255.59656l4.047241 7.401581l4.047241 -7.401581z" fill-rule="nonzero"></path><path stroke="#000000" stroke-width="2.0" stroke-linejoin="round" stroke-linecap="butt" d="m204.92166 255.59656l4.047241 7.401581l4.047241 -7.401581z" fill-rule="nonzero"></path><path fill="#ffffff" d="m248.46457 259.30185l0 0c0 5.5663147 4.5124054 10.078735 10.078735 10.078735l0 0c2.6730652 0 5.2366333 -1.0618591 7.1267395 -2.9519958c1.8901367 -1.8901367 2.9519958 -4.453705 2.9519958 -7.1267395l0 0c0 -5.566345 -4.51239 -10.078751 -10.078735 -10.078751l0 0c-5.56633 0 -10.078735 4.5124054 -10.078735 10.078751z" fill-rule="nonzero"></path><path stroke="#000000" stroke-width="2.0" stroke-linejoin="round" stroke-linecap="butt" d="m248.46457 259.30185l0 0c0 5.5663147 4.5124054 10.078735 10.078735 10.078735l0 0c2.6730652 0 5.2366333 -1.0618591 7.1267395 -2.9519958c1.8901367 -1.8901367 2.9519958 -4.453705 2.9519958 -7.1267395l0 0c0 -5.566345 -4.51239 -10.078751 -10.078735 -10.078751l0 0c-5.56633 0 -10.078735 4.5124054 -10.078735 10.078751z" fill-rule="nonzero"></path><path fill="#000000" d="m254.49646 255.59656l4.047241 7.401581l4.047241 -7.401581z" fill-rule="nonzero"></path><path stroke="#000000" stroke-width="2.0" stroke-linejoin="round" stroke-linecap="butt" d="m254.49646 255.59656l4.047241 7.401581l4.047241 -7.401581z" fill-rule="nonzero"></path><path fill="#ffffff" d="m35.627296 105.07874l49.5748 0l0 132.56693l-49.5748 0z" fill-rule="nonzero"></path><path stroke="#000000" stroke-width="1.0" stroke-linejoin="round" stroke-linecap="butt" d="m35.627296 105.07874l49.5748 0l0 132.56693l-49.5748 0z" fill-rule="nonzero"></path><path fill="#000000" d="m47.012356 185.76219l11.0 -28.640625l4.078125 0l11.718746 28.640625l-4.3125 0l-3.34375 -8.671875l-11.968746 0l-3.140625 8.671875l-4.03125 0zm8.265625 -11.765625l9.703121 0l-2.9843712 -7.921875q-1.359375 -3.609375 -2.03125 -5.9375q-0.546875 2.75 -1.546875 5.46875l-3.140625 8.390625z" fill-rule="nonzero"></path><path fill="#ffffff" d="m85.20143 105.07874l49.5748 0l0 132.56693l-49.5748 0z" fill-rule="nonzero"></path><path stroke="#000000" stroke-width="1.0" stroke-linejoin="round" stroke-linecap="butt" d="m85.20143 105.07874l49.5748 0l0 132.56693l-49.5748 0z" fill-rule="nonzero"></path><path fill="#000000" d="m96.58649 185.76219l11.0 -28.640625l4.078125 0l11.71875 28.640625l-4.3125 0l-3.34375 -8.671875l-11.96875 0l-3.140625 8.671875l-4.03125 0zm8.265625 -11.765625l9.703125 0l-2.984375 -7.921875q-1.359375 -3.609375 -2.03125 -5.9375q-0.546875 2.75 -1.546875 5.46875l-3.140625 8.390625z" fill-rule="nonzero"></path><path fill="#ffffff" d="m134.77818 105.07874l49.5748 0l0 132.56693l-49.5748 0z" fill-rule="nonzero"></path><path stroke="#000000" stroke-width="1.0" stroke-linejoin="round" stroke-linecap="butt" d="m134.77818 105.07874l49.5748 0l0 132.56693l-49.5748 0z" fill-rule="nonzero"></path><path fill="#000000" d="m146.16324 185.76219l11.0 -28.640625l4.078125 0l11.71875 28.640625l-4.3125 0l-3.34375 -8.671875l-11.96875 0l-3.140625 8.671875l-4.03125 0zm8.265625 -11.765625l9.703125 0l-2.984375 -7.921875q-1.359375 -3.609375 -2.03125 -5.9375q-0.546875 2.75 -1.546875 5.46875l-3.140625 8.390625z" fill-rule="nonzero"></path><path fill="#ffffff" d="m184.35233 105.07874l49.5748 0l0 132.56693l-49.5748 0z" fill-rule="nonzero"></path><path stroke="#000000" stroke-width="1.0" stroke-linejoin="round" stroke-linecap="butt" d="m184.35233 105.07874l49.5748 0l0 132.56693l-49.5748 0z" fill-rule="nonzero"></path><path fill="#000000" d="m195.73738 185.76219l11.0 -28.640625l4.078125 0l11.71875 28.640625l-4.3125 0l-3.34375 -8.671875l-11.96875 0l-3.140625 8.671875l-4.03125 0zm8.265625 -11.765625l9.703125 0l-2.984375 -7.921875q-1.359375 -3.609375 -2.03125 -5.9375q-0.546875 2.75 -1.546875 5.46875l-3.140625 8.390625z" fill-rule="nonzero"></path><path fill="#ffffff" d="m233.92645 105.07874l49.5748 0l0 132.56693l-49.5748 0z" fill-rule="nonzero"></path><path stroke="#000000" stroke-width="1.0" stroke-linejoin="round" stroke-linecap="butt" d="m233.92645 105.07874l49.5748 0l0 132.56693l-49.5748 0z" fill-rule="nonzero"></path><path fill="#000000" d="m245.31151 185.76219l10.999985 -28.640625l4.078125 0l11.71875 28.640625l-4.3125 0l-3.34375 -8.671875l-11.968735 0l-3.140625 8.671875l-4.03125 0zm8.265625 -11.765625l9.70311 0l-2.984375 -7.921875q-1.359375 -3.609375 -2.03125 -5.9375q-0.546875 2.75 -1.546875 5.46875l-3.1406097 8.390625z" fill-rule="nonzero"></path></g></svg>

