<?xml version="1.0" standalone="yes"?>

<svg version="1.1" viewBox="0.0 0.0 111.0 100.0" fill="none" stroke="none" stroke-linecap="square" stroke-miterlimit="10" xmlns="http://www.w3.org/2000/svg" xmlns:xlink="http://www.w3.org/1999/xlink"><clipPath id="p.0"><path d="m0 0l111.0 0l0 100.0l-111.0 0l0 -100.0z" clip-rule="nonzero"></path></clipPath><g clip-path="url(#p.0)"><path fill="#000000" fill-opacity="0.0" d="m0 0l111.561676 0l0 100.0l-111.561676 0z" fill-rule="nonzero"></path><path fill="#ffffff" d="m21.960232 50.0l0 0c0 -16.498962 14.54546 -29.874016 32.48819 -29.874016l0 0c17.94273 0 32.488194 13.375053 32.488194 29.874016l0 0c0 16.498962 -14.545464 29.874016 -32.488194 29.874016l0 0c-17.94273 0 -32.48819 -13.375053 -32.48819 -29.874016z" fill-rule="nonzero"></path><path stroke="#000000" stroke-width="2.0" stroke-linejoin="round" stroke-linecap="butt" d="m21.960232 50.0l0 0c0 -16.498962 14.54546 -29.874016 32.48819 -29.874016l0 0c17.94273 0 32.488194 13.375053 32.488194 29.874016l0 0c0 16.498962 -14.545464 29.874016 -32.488194 29.874016l0 0c-17.94273 0 -32.48819 -13.375053 -32.48819 -29.874016z" fill-rule="nonzero"></path><path fill="#ffffff" d="m28.322758 50.0l0 0c0 -13.263531 11.697002 -24.015749 26.125984 -24.015749l0 0c14.428982 0 26.125988 10.752218 26.125988 24.015749l0 0c0 13.263531 -11.697006 24.015747 -26.125988 24.015747l0 0c-14.428982 0 -26.125984 -10.752216 -26.125984 -24.015747z" fill-rule="nonzero"></path><path stroke="#000000" stroke-width="2.0" stroke-linejoin="round" stroke-linecap="butt" d="m28.322758 50.0l0 0c0 -13.263531 11.697002 -24.015749 26.125984 -24.015749l0 0c14.428982 0 26.125988 10.752218 26.125988 24.015749l0 0c0 13.263531 -11.697006 24.015747 -26.125988 24.015747l0 0c-14.428982 0 -26.125984 -10.752216 -26.125984 -24.015747z" fill-rule="nonzero"></path><path fill="#000000" d="m43.40945 39.64042l0 0c0 -1.5133476 1.2268105 -2.740158 2.7401543 -2.740158l0 0c0.726738 0 1.423706 0.2886963 1.9375839 0.80257416c0.5138817 0.5138817 0.80257416 1.2108498 0.80257416 1.9375839l0 0c0 1.5133476 -1.2268105 2.740158 -2.740158 2.740158l0 0c-1.5133438 0 -2.7401543 -1.2268105 -2.7401543 -2.740158z" fill-rule="nonzero"></path><path stroke="#000000" stroke-width="2.0" stroke-linejoin="round" stroke-linecap="butt" d="m43.40945 39.64042l0 0c0 -1.5133476 1.2268105 -2.740158 2.7401543 -2.740158l0 0c0.726738 0 1.423706 0.2886963 1.9375839 0.80257416c0.5138817 0.5138817 0.80257416 1.2108498 0.80257416 1.9375839l0 0c0 1.5133476 -1.2268105 2.740158 -2.740158 2.740158l0 0c-1.5133438 0 -2.7401543 -1.2268105 -2.7401543 -2.740158z" fill-rule="nonzero"></path><path fill="#000000" d="m37.929134 49.727036l0 0c0 -1.5133476 1.2268105 -2.740158 2.740158 -2.740158l0 0c0.72673416 0 1.4237022 0.28869247 1.9375839 0.80257416c0.51387787 0.51387787 0.80257416 1.210846 0.80257416 1.9375839l0 0c0 1.5133476 -1.2268105 2.7401543 -2.740158 2.7401543l0 0c-1.5133476 0 -2.740158 -1.2268066 -2.740158 -2.7401543z" fill-rule="nonzero"></path><path stroke="#000000" stroke-width="2.0" stroke-linejoin="round" stroke-linecap="butt" d="m37.929134 49.727036l0 0c0 -1.5133476 1.2268105 -2.740158 2.740158 -2.740158l0 0c0.72673416 0 1.4237022 0.28869247 1.9375839 0.80257416c0.51387787 0.51387787 0.80257416 1.210846 0.80257416 1.9375839l0 0c0 1.5133476 -1.2268105 2.7401543 -2.740158 2.7401543l0 0c-1.5133476 0 -2.740158 -1.2268066 -2.740158 -2.7401543z" fill-rule="nonzero"></path><path fill="#000000" d="m43.40945 59.031498l0 0c0 -1.5133476 1.2268105 -2.740158 2.7401543 -2.740158l0 0c0.726738 0 1.423706 0.28869247 1.9375839 0.80257416c0.5138817 0.51387787 0.80257416 1.210846 0.80257416 1.9375839l0 0c0 1.5133438 -1.2268105 2.7401543 -2.740158 2.7401543l0 0c-1.5133438 0 -2.7401543 -1.2268105 -2.7401543 -2.7401543z" fill-rule="nonzero"></path><path stroke="#000000" stroke-width="2.0" stroke-linejoin="round" stroke-linecap="butt" d="m43.40945 59.031498l0 0c0 -1.5133476 1.2268105 -2.740158 2.7401543 -2.740158l0 0c0.726738 0 1.423706 0.28869247 1.9375839 0.80257416c0.5138817 0.51387787 0.80257416 1.210846 0.80257416 1.9375839l0 0c0 1.5133438 -1.2268105 2.7401543 -2.740158 2.7401543l0 0c-1.5133438 0 -2.7401543 -1.2268105 -2.7401543 -2.7401543z" fill-rule="nonzero"></path><path fill="#000000" d="m59.95538 59.031498l0 0c0 -1.5133476 1.2268105 -2.740158 2.740158 -2.740158l0 0c0.72673416 0 1.4237022 0.28869247 1.9375877 0.80257416c0.51387787 0.51387787 0.8025665 1.210846 0.8025665 1.9375839l0 0c0 1.5133438 -1.2268066 2.7401543 -2.7401543 2.7401543l0 0c-1.5133476 0 -2.740158 -1.2268105 -2.740158 -2.7401543z" fill-rule="nonzero"></path><path stroke="#000000" stroke-width="2.0" stroke-linejoin="round" stroke-linecap="butt" d="m59.95538 59.031498l0 0c0 -1.5133476 1.2268105 -2.740158 2.740158 -2.740158l0 0c0.72673416 0 1.4237022 0.28869247 1.9375877 0.80257416c0.51387787 0.51387787 0.8025665 1.210846 0.8025665 1.9375839l0 0c0 1.5133438 -1.2268066 2.7401543 -2.7401543 2.7401543l0 0c-1.5133476 0 -2.740158 -1.2268105 -2.740158 -2.7401543z" fill-rule="nonzero"></path><path fill="#000000" d="m63.929134 49.727036l0 0c0 -1.5133476 1.2268105 -2.740158 2.7401543 -2.740158l0 0c0.726738 0 1.423706 0.28869247 1.9375839 0.80257416c0.5138855 0.51387787 0.80257416 1.210846 0.80257416 1.9375839l0 0c0 1.5133476 -1.2268066 2.7401543 -2.740158 2.7401543l0 0c-1.5133438 0 -2.7401543 -1.2268066 -2.7401543 -2.7401543z" fill-rule="nonzero"></path><path stroke="#000000" stroke-width="2.0" stroke-linejoin="round" stroke-linecap="butt" d="m63.929134 49.727036l0 0c0 -1.5133476 1.2268105 -2.740158 2.7401543 -2.740158l0 0c0.726738 0 1.423706 0.28869247 1.9375839 0.80257416c0.5138855 0.51387787 0.80257416 1.210846 0.80257416 1.9375839l0 0c0 1.5133476 -1.2268066 2.7401543 -2.740158 2.7401543l0 0c-1.5133438 0 -2.7401543 -1.2268066 -2.7401543 -2.7401543z" fill-rule="nonzero"></path><path fill="#000000" d="m59.95538 39.64042l0 0c0 -1.5133476 1.2268105 -2.740158 2.740158 -2.740158l0 0c0.72673416 0 1.4237022 0.2886963 1.9375877 0.80257416c0.51387787 0.5138817 0.8025665 1.2108498 0.8025665 1.9375839l0 0c0 1.5133476 -1.2268066 2.740158 -2.7401543 2.740158l0 0c-1.5133476 0 -2.740158 -1.2268105 -2.740158 -2.740158z" fill-rule="nonzero"></path><path stroke="#000000" stroke-width="2.0" stroke-linejoin="round" stroke-linecap="butt" d="m59.95538 39.64042l0 0c0 -1.5133476 1.2268105 -2.740158 2.740158 -2.740158l0 0c0.72673416 0 1.4237022 0.2886963 1.9375877 0.80257416c0.51387787 0.5138817 0.8025665 1.2108498 0.8025665 1.9375839l0 0c0 1.5133476 -1.2268066 2.740158 -2.7401543 2.740158l0 0c-1.5133476 0 -2.740158 -1.2268105 -2.740158 -2.740158z" fill-rule="nonzero"></path><path fill="#000000" d="m50.45669 27.19685l6.4251976 0l0 3.275591l-6.4251976 0z" fill-rule="nonzero"></path><path stroke="#000000" stroke-width="2.0" stroke-linejoin="round" stroke-linecap="butt" d="m50.45669 27.19685l6.4251976 0l0 3.275591l-6.4251976 0z" fill-rule="nonzero"></path><path fill="#000000" d="m36.771652 66.149605l0 0c0 -1.5133438 1.2268105 -2.7401543 2.740158 -2.7401543l0 0c0.72673416 0 1.423706 0.28869247 1.9375839 0.80257034c0.5138817 0.51387787 0.80257416 1.2108536 0.80257416 1.9375839l0 0c0 1.5133514 -1.2268105 2.740158 -2.740158 2.740158l0 0c-1.5133476 0 -2.740158 -1.2268066 -2.740158 -2.740158z" fill-rule="nonzero"></path><path stroke="#000000" stroke-width="2.0" stroke-linejoin="round" stroke-linecap="butt" d="m36.771652 66.149605l0 0c0 -1.5133438 1.2268105 -2.7401543 2.740158 -2.7401543l0 0c0.72673416 0 1.423706 0.28869247 1.9375839 0.80257034c0.5138817 0.51387787 0.80257416 1.2108536 0.80257416 1.9375839l0 0c0 1.5133514 -1.2268105 2.740158 -2.740158 2.740158l0 0c-1.5133476 0 -2.740158 -1.2268066 -2.740158 -2.740158z" fill-rule="nonzero"></path><path fill="#000000" d="m66.215225 66.968506l0 0c0 -1.5133514 1.2268066 -2.740158 2.740158 -2.740158l0 0c0.72673035 0 1.4236984 0.2886963 1.9375839 0.80257416c0.51387787 0.51387787 0.80257416 1.210846 0.80257416 1.9375839l0 0c0 1.5133438 -1.2268143 2.740158 -2.740158 2.740158l0 0c-1.5133514 0 -2.740158 -1.2268143 -2.740158 -2.740158z" fill-rule="nonzero"></path><path stroke="#000000" stroke-width="2.0" stroke-linejoin="round" stroke-linecap="butt" d="m66.215225 66.968506l0 0c0 -1.5133514 1.2268066 -2.740158 2.740158 -2.740158l0 0c0.72673035 0 1.4236984 0.2886963 1.9375839 0.80257416c0.51387787 0.51387787 0.80257416 1.210846 0.80257416 1.9375839l0 0c0 1.5133438 -1.2268143 2.740158 -2.740158 2.740158l0 0c-1.5133514 0 -2.740158 -1.2268143 -2.740158 -2.740158z" fill-rule="nonzero"></path><path fill="#000000" d="m49.677166 44.750656l2.4015732 9.952755l4.80315 0l2.401577 -9.952755z" fill-rule="nonzero"></path><path stroke="#000000" stroke-width="2.0" stroke-linejoin="round" stroke-linecap="butt" d="m49.677166 44.750656l2.4015732 9.952755l4.80315 0l2.401577 -9.952755z" fill-rule="nonzero"></path></g></svg>

