<?xml version="1.0" standalone="yes"?>

<svg version="1.1" viewBox="0.0 0.0 104.0 100.0" fill="none" stroke="none" stroke-linecap="square" stroke-miterlimit="10" xmlns="http://www.w3.org/2000/svg" xmlns:xlink="http://www.w3.org/1999/xlink"><clipPath id="p.0"><path d="m0 0l104.0 0l0 100.0l-104.0 0l0 -100.0z" clip-rule="nonzero"></path></clipPath><g clip-path="url(#p.0)"><path fill="#000000" fill-opacity="0.0" d="m0 0l104.94226 0l0 100.0l-104.94226 0z" fill-rule="nonzero"></path><path fill="#ffffff" d="m18.585302 14.740157l70.519684 0l0 70.519684l-70.519684 0z" fill-rule="nonzero"></path><path stroke="#000000" stroke-width="2.0" stroke-linejoin="round" stroke-linecap="butt" d="m18.585302 14.740157l70.519684 0l0 70.519684l-70.519684 0z" fill-rule="nonzero"></path><path fill="#ffffff" d="m18.585302 77.62467l71.62205 0l0 7.6535416l-71.62205 0z" fill-rule="nonzero"></path><path stroke="#000000" stroke-width="2.0" stroke-linejoin="round" stroke-linecap="butt" d="m18.585302 77.62467l71.62205 0l0 7.6535416l-71.62205 0z" fill-rule="nonzero"></path><path fill="#000000" d="m27.879265 24.598425l53.039375 0l0 53.039368l-53.039375 0z" fill-rule="nonzero"></path><path stroke="#000000" stroke-width="2.0" stroke-linejoin="round" stroke-linecap="butt" d="m27.879265 24.598425l53.039375 0l0 53.039368l-53.039375 0z" fill-rule="nonzero"></path><path fill="#ffffff" d="m44.83727 61.24672l19.11811 0l0 16.377953l-19.11811 0z" fill-rule="nonzero"></path><path stroke="#000000" stroke-width="2.0" stroke-linejoin="round" stroke-linecap="butt" d="m44.83727 61.24672l19.11811 0l0 16.377953l-19.11811 0z" fill-rule="nonzero"></path></g></svg>

