<?xml version="1.0" standalone="yes"?>

<svg version="1.1" viewBox="0.0 0.0 167.0 100.0" fill="none" stroke="none" stroke-linecap="square" stroke-miterlimit="10" xmlns="http://www.w3.org/2000/svg" xmlns:xlink="http://www.w3.org/1999/xlink"><clipPath id="p.0"><path d="m0 0l167.0 0l0 100.0l-167.0 0l0 -100.0z" clip-rule="nonzero"></path></clipPath><g clip-path="url(#p.0)"><path fill="#000000" fill-opacity="0.0" d="m0 0l167.47244 0l0 100.0l-167.47244 0z" fill-rule="nonzero"></path><path fill="#ffffff" d="m13.704724 37.446194l0 0c0 -3.8181572 3.0952291 -6.9133854 6.9133863 -6.9133854l0 0c1.8335438 0 3.5919914 0.7283726 4.888502 2.0248852c1.2965107 1.2965088 2.0248833 3.0549583 2.0248833 4.8885l0 0c0 3.8181572 -3.0952282 6.9133873 -6.9133854 6.9133873l0 0c-3.8181572 0 -6.9133863 -3.09523 -6.9133863 -6.9133873z" fill-rule="nonzero"></path><path stroke="#000000" stroke-width="2.0" stroke-linejoin="round" stroke-linecap="butt" d="m13.704724 37.446194l0 0c0 -3.8181572 3.0952291 -6.9133854 6.9133863 -6.9133854l0 0c1.8335438 0 3.5919914 0.7283726 4.888502 2.0248852c1.2965107 1.2965088 2.0248833 3.0549583 2.0248833 4.8885l0 0c0 3.8181572 -3.0952282 6.9133873 -6.9133854 6.9133873l0 0c-3.8181572 0 -6.9133863 -3.09523 -6.9133863 -6.9133873z" fill-rule="nonzero"></path><path fill="#ffffff" d="m134.39764 37.446194l0 0c0 -3.8181572 3.0952148 -6.9133854 6.913376 -6.9133854l0 0c1.8335419 0 3.5919952 0.7283726 4.888504 2.0248852c1.2965088 1.2965088 2.024887 3.0549583 2.024887 4.8885l0 0c0 3.8181572 -3.09523 6.9133873 -6.913391 6.9133873l0 0c-3.818161 0 -6.913376 -3.09523 -6.913376 -6.9133873z" fill-rule="nonzero"></path><path stroke="#000000" stroke-width="2.0" stroke-linejoin="round" stroke-linecap="butt" d="m134.39764 37.446194l0 0c0 -3.8181572 3.0952148 -6.9133854 6.913376 -6.9133854l0 0c1.8335419 0 3.5919952 0.7283726 4.888504 2.0248852c1.2965088 1.2965088 2.024887 3.0549583 2.024887 4.8885l0 0c0 3.8181572 -3.09523 6.9133873 -6.913391 6.9133873l0 0c-3.818161 0 -6.913376 -3.09523 -6.913376 -6.9133873z" fill-rule="nonzero"></path><path fill="#ffffff" d="m40.816273 31.156204l0 0c0 -0.9973221 0.80849075 -1.8058109 1.805809 -1.8058109l7.2230263 0l0 0c0.47893143 0 0.9382477 0.19025421 1.2769012 0.5289097c0.33865356 0.33865547 0.5289078 0.7979698 0.5289078 1.2769012l0 7.2230263c0 0.99731827 -0.80848694 1.805809 -1.805809 1.805809l-7.2230263 0c-0.99731827 0 -1.805809 -0.80849075 -1.805809 -1.805809z" fill-rule="nonzero"></path><path stroke="#000000" stroke-width="2.0" stroke-linejoin="round" stroke-linecap="butt" d="m40.816273 31.156204l0 0c0 -0.9973221 0.80849075 -1.8058109 1.805809 -1.8058109l7.2230263 0l0 0c0.47893143 0 0.9382477 0.19025421 1.2769012 0.5289097c0.33865356 0.33865547 0.5289078 0.7979698 0.5289078 1.2769012l0 7.2230263c0 0.99731827 -0.80848694 1.805809 -1.805809 1.805809l-7.2230263 0c-0.99731827 0 -1.805809 -0.80849075 -1.805809 -1.805809z" fill-rule="nonzero"></path><path fill="#ffffff" d="m58.182415 31.156204l0 0c0 -0.9973221 0.80848694 -1.8058109 1.805809 -1.8058109l7.2230263 0l0 0c0.4789276 0 0.9382477 0.19025421 1.2769012 0.5289097c0.33865356 0.33865547 0.5289078 0.7979698 0.5289078 1.2769012l0 7.2230263c0 0.99731827 -0.80848694 1.805809 -1.805809 1.805809l-7.2230263 0c-0.9973221 0 -1.805809 -0.80849075 -1.805809 -1.805809z" fill-rule="nonzero"></path><path stroke="#000000" stroke-width="2.0" stroke-linejoin="round" stroke-linecap="butt" d="m58.182415 31.156204l0 0c0 -0.9973221 0.80848694 -1.8058109 1.805809 -1.8058109l7.2230263 0l0 0c0.4789276 0 0.9382477 0.19025421 1.2769012 0.5289097c0.33865356 0.33865547 0.5289078 0.7979698 0.5289078 1.2769012l0 7.2230263c0 0.99731827 -0.80848694 1.805809 -1.805809 1.805809l-7.2230263 0c-0.9973221 0 -1.805809 -0.80849075 -1.805809 -1.805809z" fill-rule="nonzero"></path><path fill="#ffffff" d="m75.54855 31.156204l0 0c0 -0.9973221 0.80849457 -1.8058109 1.8058167 -1.8058109l7.2230225 0l0 0c0.4789276 0 0.9382477 0.19025421 1.2769012 0.5289097c0.33865356 0.33865547 0.5289078 0.7979698 0.5289078 1.2769012l0 7.2230263c0 0.99731827 -0.80848694 1.805809 -1.805809 1.805809l-7.2230225 0c-0.9973221 0 -1.8058167 -0.80849075 -1.8058167 -1.805809z" fill-rule="nonzero"></path><path stroke="#000000" stroke-width="2.0" stroke-linejoin="round" stroke-linecap="butt" d="m75.54855 31.156204l0 0c0 -0.9973221 0.80849457 -1.8058109 1.8058167 -1.8058109l7.2230225 0l0 0c0.4789276 0 0.9382477 0.19025421 1.2769012 0.5289097c0.33865356 0.33865547 0.5289078 0.7979698 0.5289078 1.2769012l0 7.2230263c0 0.99731827 -0.80848694 1.805809 -1.805809 1.805809l-7.2230225 0c-0.9973221 0 -1.8058167 -0.80849075 -1.8058167 -1.805809z" fill-rule="nonzero"></path><path fill="#ffffff" d="m92.914696 31.156204l0 0c0 -0.9973221 0.80849457 -1.8058109 1.805809 -1.8058109l7.22303 0l0 0c0.4789276 0 0.9382477 0.19025421 1.2769012 0.5289097c0.33865356 0.33865547 0.5289078 0.7979698 0.5289078 1.2769012l0 7.2230263c0 0.99731827 -0.80848694 1.805809 -1.805809 1.805809l-7.22303 0c-0.99731445 0 -1.805809 -0.80849075 -1.805809 -1.805809z" fill-rule="nonzero"></path><path stroke="#000000" stroke-width="2.0" stroke-linejoin="round" stroke-linecap="butt" d="m92.914696 31.156204l0 0c0 -0.9973221 0.80849457 -1.8058109 1.805809 -1.8058109l7.22303 0l0 0c0.4789276 0 0.9382477 0.19025421 1.2769012 0.5289097c0.33865356 0.33865547 0.5289078 0.7979698 0.5289078 1.2769012l0 7.2230263c0 0.99731827 -0.80848694 1.805809 -1.805809 1.805809l-7.22303 0c-0.99731445 0 -1.805809 -0.80849075 -1.805809 -1.805809z" fill-rule="nonzero"></path><path fill="#ffffff" d="m110.28084 31.156204l0 0c0 -0.9973221 0.80848694 -1.8058109 1.805809 -1.8058109l7.22303 0l0 0c0.4789276 0 0.93824005 0.19025421 1.2769012 0.5289097c0.33865356 0.33865547 0.5289078 0.7979698 0.5289078 1.2769012l0 7.2230263c0 0.99731827 -0.80848694 1.805809 -1.805809 1.805809l-7.22303 0c-0.9973221 0 -1.805809 -0.80849075 -1.805809 -1.805809z" fill-rule="nonzero"></path><path stroke="#000000" stroke-width="2.0" stroke-linejoin="round" stroke-linecap="butt" d="m110.28084 31.156204l0 0c0 -0.9973221 0.80848694 -1.8058109 1.805809 -1.8058109l7.22303 0l0 0c0.4789276 0 0.93824005 0.19025421 1.2769012 0.5289097c0.33865356 0.33865547 0.5289078 0.7979698 0.5289078 1.2769012l0 7.2230263c0 0.99731827 -0.80848694 1.805809 -1.805809 1.805809l-7.22303 0c-0.9973221 0 -1.805809 -0.80849075 -1.805809 -1.805809z" fill-rule="nonzero"></path><path fill="#ffffff" d="m47.452755 53.07353l0 0c0 -0.9973221 0.80849075 -1.8058128 1.8058128 -1.8058128l7.2230225 0l0 0c0.47893143 0 0.9382477 0.19025421 1.2769012 0.5289116c0.33865738 0.33865356 0.5289116 0.7979698 0.5289116 1.2769012l0 7.2230225c0 0.9973221 -0.80849075 1.8058128 -1.8058128 1.8058128l-7.2230225 0c-0.9973221 0 -1.8058128 -0.80849075 -1.8058128 -1.8058128z" fill-rule="nonzero"></path><path stroke="#000000" stroke-width="2.0" stroke-linejoin="round" stroke-linecap="butt" d="m47.452755 53.07353l0 0c0 -0.9973221 0.80849075 -1.8058128 1.8058128 -1.8058128l7.2230225 0l0 0c0.47893143 0 0.9382477 0.19025421 1.2769012 0.5289116c0.33865738 0.33865356 0.5289116 0.7979698 0.5289116 1.2769012l0 7.2230225c0 0.9973221 -0.80849075 1.8058128 -1.8058128 1.8058128l-7.2230225 0c-0.9973221 0 -1.8058128 -0.80849075 -1.8058128 -1.8058128z" fill-rule="nonzero"></path><path fill="#ffffff" d="m64.8189 53.07353l0 0c0 -0.9973221 0.80848694 -1.8058128 1.805809 -1.8058128l7.2230225 0l0 0c0.4789276 0 0.9382477 0.19025421 1.2769012 0.5289116c0.33865356 0.33865356 0.5289078 0.7979698 0.5289078 1.2769012l0 7.2230225c0 0.9973221 -0.80848694 1.8058128 -1.805809 1.8058128l-7.2230225 0c-0.9973221 0 -1.805809 -0.80849075 -1.805809 -1.8058128z" fill-rule="nonzero"></path><path stroke="#000000" stroke-width="2.0" stroke-linejoin="round" stroke-linecap="butt" d="m64.8189 53.07353l0 0c0 -0.9973221 0.80848694 -1.8058128 1.805809 -1.8058128l7.2230225 0l0 0c0.4789276 0 0.9382477 0.19025421 1.2769012 0.5289116c0.33865356 0.33865356 0.5289078 0.7979698 0.5289078 1.2769012l0 7.2230225c0 0.9973221 -0.80848694 1.8058128 -1.805809 1.8058128l-7.2230225 0c-0.9973221 0 -1.805809 -0.80849075 -1.805809 -1.8058128z" fill-rule="nonzero"></path><path fill="#ffffff" d="m82.185036 53.07353l0 0c0 -0.9973221 0.80849457 -1.8058128 1.8058167 -1.8058128l7.2230225 0l0 0c0.4789276 0 0.9382477 0.19025421 1.2769012 0.5289116c0.33865356 0.33865356 0.5289078 0.7979698 0.5289078 1.2769012l0 7.2230225c0 0.9973221 -0.80848694 1.8058128 -1.805809 1.8058128l-7.2230225 0c-0.9973221 0 -1.8058167 -0.80849075 -1.8058167 -1.8058128z" fill-rule="nonzero"></path><path stroke="#000000" stroke-width="2.0" stroke-linejoin="round" stroke-linecap="butt" d="m82.185036 53.07353l0 0c0 -0.9973221 0.80849457 -1.8058128 1.8058167 -1.8058128l7.2230225 0l0 0c0.4789276 0 0.9382477 0.19025421 1.2769012 0.5289116c0.33865356 0.33865356 0.5289078 0.7979698 0.5289078 1.2769012l0 7.2230225c0 0.9973221 -0.80848694 1.8058128 -1.805809 1.8058128l-7.2230225 0c-0.9973221 0 -1.8058167 -0.80849075 -1.8058167 -1.8058128z" fill-rule="nonzero"></path><path fill="#ffffff" d="m99.55118 53.07353l0 0c0 -0.9973221 0.80849457 -1.8058128 1.8058167 -1.8058128l7.2230225 0l0 0c0.4789276 0 0.9382477 0.19025421 1.2769012 0.5289116c0.33865356 0.33865356 0.5289078 0.7979698 0.5289078 1.2769012l0 7.2230225c0 0.9973221 -0.80848694 1.8058128 -1.805809 1.8058128l-7.2230225 0c-0.9973221 0 -1.8058167 -0.80849075 -1.8058167 -1.8058128z" fill-rule="nonzero"></path><path stroke="#000000" stroke-width="2.0" stroke-linejoin="round" stroke-linecap="butt" d="m99.55118 53.07353l0 0c0 -0.9973221 0.80849457 -1.8058128 1.8058167 -1.8058128l7.2230225 0l0 0c0.4789276 0 0.9382477 0.19025421 1.2769012 0.5289116c0.33865356 0.33865356 0.5289078 0.7979698 0.5289078 1.2769012l0 7.2230225c0 0.9973221 -0.80848694 1.8058128 -1.805809 1.8058128l-7.2230225 0c-0.9973221 0 -1.8058167 -0.80849075 -1.8058167 -1.8058128z" fill-rule="nonzero"></path><path fill="#000000" fill-opacity="0.0" d="m37.66798 20.968504l86.97113 0l8.023628 8.026247l-8.233604 30.727036l-13.522308 13.522308l-58.745403 0l-15.396328 -15.396324l-7.4960613 -27.979004z" fill-rule="nonzero"></path><path stroke="#000000" stroke-width="2.0" stroke-linejoin="round" stroke-linecap="butt" d="m37.66798 20.968504l86.97113 0l8.023628 8.026247l-8.233604 30.727036l-13.522308 13.522308l-58.745403 0l-15.396328 -15.396324l-7.4960613 -27.979004z" fill-rule="nonzero"></path></g></svg>

