<?xml version="1.0" encoding="utf-8"?>
<!-- Generator: Adobe Illustrator 17.0.0, SVG Export Plug-In . SVG Version: 6.00 Build 0)  -->
<!DOCTYPE svg PUBLIC "-//W3C//DTD SVG 1.1//EN" "http://www.w3.org/Graphics/SVG/1.1/DTD/svg11.dtd">
<svg version="1.1" id="Layer_1" xmlns="http://www.w3.org/2000/svg" xmlns:xlink="http://www.w3.org/1999/xlink" x="0px" y="0px"
	 width="800px" height="517.474px" viewBox="0 143.103 800 517.474" enable-background="new 0 143.103 800 517.474"
	 xml:space="preserve">
<g>
	<defs>
		<rect id="SVGID_1_" x="14" y="169.536" width="800" height="460.927"/>
	</defs>
	<clipPath id="SVGID_2_">
		<use xlink:href="#SVGID_1_"  overflow="visible"/>
	</clipPath>
	<g clip-path="url(#SVGID_2_)">
		<path fill="#FFFFFF" d="M165.47,169.536h473.234v460.885H165.47V169.536z"/>
		<path fill-opacity="0" d="M180.143,177.187h446.243v447.244H180.143V177.187z"/>
		<path fill="none" stroke="#000000" stroke-width="2" stroke-linejoin="round" stroke-miterlimit="10" d="M180.143,177.187h446.243
			v447.244H180.143V177.187z"/>
		<path fill="#FFFFFF" d="M547.899,223.25L547.899,223.25c0-11.093,9.227-20.087,20.608-20.087l0,0
			c5.466,0,10.707,2.116,14.572,5.883c3.865,3.767,6.036,8.876,6.036,14.203l0,0c0,11.094-9.227,20.087-20.608,20.087l0,0
			C557.126,243.337,547.899,234.344,547.899,223.25z"/>
		<path fill="none" stroke="#000000" stroke-width="2" stroke-linejoin="round" stroke-miterlimit="10" d="M547.899,223.25
			L547.899,223.25c0-11.093,9.227-20.087,20.608-20.087l0,0c5.466,0,10.707,2.116,14.572,5.883
			c3.865,3.767,6.036,8.876,6.036,14.203l0,0c0,11.094-9.227,20.087-20.608,20.087l0,0
			C557.126,243.337,547.899,234.344,547.899,223.25z"/>
		<path fill-opacity="0" d="M334.029,331.185l69.625-69.625l69.625,69.625l-69.625,69.625L334.029,331.185z"/>
		<path fill="none" stroke="#000000" stroke-width="2" stroke-linejoin="round" stroke-miterlimit="10" d="M334.029,331.185
			l69.625-69.625l69.625,69.625l-69.625,69.625L334.029,331.185z"/>
		<path fill-opacity="0" d="M264.015,401.411l69.625-69.625l69.625,69.625l-69.625,69.625L264.015,401.411z"/>
		<path fill="none" stroke="#000000" stroke-width="2" stroke-linejoin="round" stroke-miterlimit="10" d="M264.015,401.411
			l69.625-69.625l69.625,69.625l-69.625,69.625L264.015,401.411z"/>
		<path fill-opacity="0" d="M334.029,470.435l69.625-69.625l69.625,69.625l-69.625,69.625L334.029,470.435z"/>
		<path fill="none" stroke="#000000" stroke-width="2" stroke-linejoin="round" stroke-miterlimit="10" d="M334.029,470.435
			l69.625-69.625l69.625,69.625l-69.625,69.625L334.029,470.435z"/>
		<path fill-opacity="0" d="M403.265,401.411l69.625-69.625l69.625,69.625l-69.625,69.625L403.265,401.411z"/>
		<path fill="none" stroke="#000000" stroke-width="2" stroke-linejoin="round" stroke-miterlimit="10" d="M403.265,401.411
			l69.625-69.625l69.625,69.625l-69.625,69.625L403.265,401.411z"/>
		<path d="M717.635,385.779c-0.055-0.055-0.124-0.11-0.207-0.166c-0.069-0.055-0.152-0.083-0.248-0.083
			c-0.069,0-0.131,0.035-0.186,0.103c-0.041,0.055-0.062,0.117-0.062,0.186l0.103,0.248c0.055,0.028,0.097,0.041,0.124,0.041
			c0.11,0,0.2-0.034,0.269-0.103C717.511,385.923,717.58,385.848,717.635,385.779z M718.877,391.532c0-0.11-0.034-0.221-0.103-0.331
			c-0.055-0.124-0.152-0.186-0.29-0.186c-0.041,0-0.09,0.007-0.145,0.021c-0.041,0.014-0.076,0.028-0.103,0.041v0.89
			c0.11,0.055,0.193,0.083,0.248,0.083c0.138,0,0.235-0.055,0.29-0.166C718.843,391.759,718.877,391.642,718.877,391.532z
			 M740.545,385.779c-0.055-0.055-0.124-0.11-0.207-0.166c-0.069-0.055-0.152-0.083-0.248-0.083c-0.069,0-0.131,0.035-0.186,0.103
			c-0.041,0.055-0.062,0.117-0.062,0.186l0.103,0.248c0.055,0.028,0.097,0.041,0.124,0.041c0.11,0,0.2-0.034,0.269-0.103
			C740.421,385.923,740.49,385.848,740.545,385.779z M741.787,391.532c0-0.11-0.034-0.221-0.104-0.331
			c-0.055-0.124-0.152-0.186-0.29-0.186c-0.041,0-0.09,0.007-0.145,0.021c-0.041,0.014-0.076,0.028-0.104,0.041v0.89
			c0.11,0.055,0.193,0.083,0.248,0.083c0.138,0,0.235-0.055,0.29-0.166C741.752,391.759,741.787,391.642,741.787,391.532z
			 M794.188,394.243c0-0.124-0.062-0.214-0.186-0.269c-0.11-0.069-0.214-0.117-0.31-0.145c-0.014,0.152-0.062,0.276-0.145,0.372
			c-0.069,0.083-0.117,0.186-0.145,0.31c0.028,0.028,0.041,0.076,0.041,0.145c0,0.028,0.035,0.041,0.104,0.041
			c0.083-0.014,0.172-0.034,0.269-0.062c0.097-0.041,0.179-0.097,0.248-0.166C794.146,394.402,794.188,394.326,794.188,394.243z"/>
		<path fill="none" d="M17,380.157h139.25v86.604H17L17,380.157z"/>
		<text transform="matrix(1 0 0 1 16.9998 411.182)" font-family="'SpecialElite-Regular'" font-size="45">Rouge</text>
		<path fill-opacity="0" d="M157.516,509.04h204.829"/>
		<path fill="none" stroke="#000000" stroke-width="2" stroke-linejoin="round" stroke-miterlimit="10" d="M157.516,509.04H346.45"
			/>
		<path stroke="#000000" stroke-width="2" stroke-miterlimit="10" d="M346.45,513.416l12.021-4.375l-12.021-4.375V513.416z"/>
		<path fill-opacity="0" d="M647.975,290.987H454.034"/>
		<path fill="none" stroke="#000000" stroke-width="2" stroke-linejoin="round" stroke-miterlimit="10" d="M647.975,290.987H469.928
			"/>
		<path stroke="#000000" stroke-width="2" stroke-miterlimit="10" d="M469.928,286.612l-12.021,4.375l12.021,4.375V286.612z"/>
		<path fill-opacity="0" d="M647.975,400.81h-90.692"/>
		<path fill="none" stroke="#000000" stroke-width="2" stroke-linejoin="round" stroke-miterlimit="10" d="M647.975,400.81h-74.798"
			/>
		<path stroke="#000000" stroke-width="2" stroke-miterlimit="10" d="M573.177,396.435l-12.021,4.375l12.021,4.375V396.435z"/>
		<path fill-opacity="0" d="M156.198,401.411h95.615"/>
		<path fill="none" stroke="#000000" stroke-width="2" stroke-linejoin="round" stroke-miterlimit="10" d="M156.198,401.411h79.72"
			/>
		<path stroke="#000000" stroke-width="2" stroke-miterlimit="10" d="M235.919,405.787l12.021-4.375l-12.021-4.375V405.787z"/>
		<path fill="none" d="M54,490.758h139.25v86.604H54L54,490.758z"/>
		<text transform="matrix(1 0 0 1 53.9998 521.7835)" font-family="'SpecialElite-Regular'" font-size="45">Vert</text>
		<path fill="none" d="M651,272.407h139.25v86.604H651V272.407z"/>
		<text transform="matrix(1 0 0 1 650.9998 303.4326)" font-family="'SpecialElite-Regular'" font-size="45">Bleu</text>
		<path fill="none" d="M654,382.157h139.25v86.604H654V382.157z"/>
		<text transform="matrix(1 0 0 1 653.9998 413.1821)" font-family="'SpecialElite-Regular'" font-size="45">Jaune</text>
	</g>
</g>
</svg>
