<?xml version="1.0" standalone="yes"?>

<svg version="1.1" viewBox="0.0 0.0 100.0 100.0" fill="none" stroke="none" stroke-linecap="square" stroke-miterlimit="10" xmlns="http://www.w3.org/2000/svg" xmlns:xlink="http://www.w3.org/1999/xlink"><clipPath id="p.0"><path d="m0 0l100.0 0l0 100.0l-100.0 0l0 -100.0z" clip-rule="nonzero"></path></clipPath><g clip-path="url(#p.0)"><path fill="#000000" fill-opacity="0.0" d="m0 0l100.0 0l0 100.0l-100.0 0z" fill-rule="nonzero"></path><path fill="#ffffff" d="m21.968487 25.92126l0 0c0 -9.541046 8.404354 -17.275593 18.771652 -17.275593l0 0c10.367298 0 18.771652 7.7345457 18.771652 17.275593l0 0c0 9.541046 -8.404354 17.275589 -18.771652 17.275589l0 0c-10.367298 0 -18.771652 -7.734543 -18.771652 -17.275589z" fill-rule="nonzero"></path><path stroke="#000000" stroke-width="2.0" stroke-linejoin="round" stroke-linecap="butt" d="m21.968487 25.92126l0 0c0 -9.541046 8.404354 -17.275593 18.771652 -17.275593l0 0c10.367298 0 18.771652 7.7345457 18.771652 17.275593l0 0c0 9.541046 -8.404354 17.275589 -18.771652 17.275589l0 0c-10.367298 0 -18.771652 -7.734543 -18.771652 -17.275589z" fill-rule="nonzero"></path><path fill="#ffffff" d="m27.897158 25.907364l0 0c0 -6.514351 5.753317 -11.795276 12.850393 -11.795276l0 0c7.09708 0 12.850395 5.280925 12.850395 11.795276l0 0c0 6.514351 -5.753315 11.795277 -12.850395 11.795277l0 0c-7.0970764 0 -12.850393 -5.2809258 -12.850393 -11.795277z" fill-rule="nonzero"></path><path stroke="#000000" stroke-width="2.0" stroke-linejoin="round" stroke-linecap="butt" d="m27.897158 25.907364l0 0c0 -6.514351 5.753317 -11.795276 12.850393 -11.795276l0 0c7.09708 0 12.850395 5.280925 12.850395 11.795276l0 0c0 6.514351 -5.753315 11.795277 -12.850395 11.795277l0 0c-7.0970764 0 -12.850393 -5.2809258 -12.850393 -11.795277z" fill-rule="nonzero"></path><path fill="#000000" d="m31.829168 25.915733l0 0c0 -4.522646 3.9906597 -8.188976 8.913385 -8.188976l0 0c4.9227257 0 8.913387 3.6663303 8.913387 8.188976l0 0c0 4.522648 -3.9906616 8.188976 -8.913387 8.188976l0 0c-4.9227257 0 -8.913385 -3.6663284 -8.913385 -8.188976z" fill-rule="nonzero"></path><path stroke="#000000" stroke-width="2.0" stroke-linejoin="round" stroke-linecap="butt" d="m31.829168 25.915733l0 0c0 -4.522646 3.9906597 -8.188976 8.913385 -8.188976l0 0c4.9227257 0 8.913387 3.6663303 8.913387 8.188976l0 0c0 4.522648 -3.9906616 8.188976 -8.913387 8.188976l0 0c-4.9227257 0 -8.913385 -3.6663284 -8.913385 -8.188976z" fill-rule="nonzero"></path><path fill="#ffffff" d="m21.968487 74.173225l0 0c0 -9.5410385 8.404354 -17.275589 18.771652 -17.275589l0 0c10.367298 0 18.771652 7.7345505 18.771652 17.275589l0 0c0 9.541046 -8.404354 17.275597 -18.771652 17.275597l0 0c-10.367298 0 -18.771652 -7.7345505 -18.771652 -17.275597z" fill-rule="nonzero"></path><path stroke="#000000" stroke-width="2.0" stroke-linejoin="round" stroke-linecap="butt" d="m21.968487 74.173225l0 0c0 -9.5410385 8.404354 -17.275589 18.771652 -17.275589l0 0c10.367298 0 18.771652 7.7345505 18.771652 17.275589l0 0c0 9.541046 -8.404354 17.275597 -18.771652 17.275597l0 0c-10.367298 0 -18.771652 -7.7345505 -18.771652 -17.275597z" fill-rule="nonzero"></path><path fill="#ffffff" d="m27.897158 74.15933l0 0c0 -6.514351 5.753317 -11.795277 12.850393 -11.795277l0 0c7.09708 0 12.850395 5.2809258 12.850395 11.795277l0 0c0 6.514351 -5.753315 11.795273 -12.850395 11.795273l0 0c-7.0970764 0 -12.850393 -5.280922 -12.850393 -11.795273z" fill-rule="nonzero"></path><path stroke="#000000" stroke-width="2.0" stroke-linejoin="round" stroke-linecap="butt" d="m27.897158 74.15933l0 0c0 -6.514351 5.753317 -11.795277 12.850393 -11.795277l0 0c7.09708 0 12.850395 5.2809258 12.850395 11.795277l0 0c0 6.514351 -5.753315 11.795273 -12.850395 11.795273l0 0c-7.0970764 0 -12.850393 -5.280922 -12.850393 -11.795273z" fill-rule="nonzero"></path><path fill="#000000" d="m31.829168 74.1677l0 0c0 -4.522644 3.9906597 -8.188972 8.913385 -8.188972l0 0c4.9227257 0 8.913387 3.6663284 8.913387 8.188972l0 0c0 4.522644 -3.9906616 8.18898 -8.913387 8.18898l0 0c-4.9227257 0 -8.913385 -3.666336 -8.913385 -8.18898z" fill-rule="nonzero"></path><path stroke="#000000" stroke-width="2.0" stroke-linejoin="round" stroke-linecap="butt" d="m31.829168 74.1677l0 0c0 -4.522644 3.9906597 -8.188972 8.913385 -8.188972l0 0c4.9227257 0 8.913387 3.6663284 8.913387 8.188972l0 0c0 4.522644 -3.9906616 8.18898 -8.913387 8.18898l0 0c-4.9227257 0 -8.913385 -3.666336 -8.913385 -8.18898z" fill-rule="nonzero"></path></g></svg>

