<?xml version="1.0" standalone="yes"?>

<svg version="1.1" viewBox="0.0 0.0 348.0 456.0" fill="none" stroke="none" stroke-linecap="square" stroke-miterlimit="10" xmlns="http://www.w3.org/2000/svg" xmlns:xlink="http://www.w3.org/1999/xlink"><clipPath id="p.0"><path d="m0 0l348.0 0l0 456.0l-348.0 0l0 -456.0z" clip-rule="nonzero"></path></clipPath><g clip-path="url(#p.0)"><path fill="#000000" fill-opacity="0.0" d="m0 0l348.0 0l0 456.0l-348.0 0z" fill-rule="nonzero"></path><path fill="#ffffff" d="m-6.0 108.01575l348.0 0l0 347.9685l-348.0 0z" fill-rule="nonzero"></path><path fill="#ffffff" d="m-6.0013123 108.03018l348.0 0l0 347.9685l-348.0 0z" fill-rule="nonzero"></path><path fill="#000000" fill-opacity="0.0" d="m5.077428 113.80601l336.9134 0l0 337.6693l-336.9134 0z" fill-rule="nonzero"></path><path stroke="#000000" stroke-width="2.0" stroke-linejoin="round" stroke-linecap="butt" d="m5.077428 113.80601l336.9134 0l0 337.6693l-336.9134 0z" fill-rule="nonzero"></path><path fill="#ffffff" d="m21.440945 206.59093l304.18896 0l0 208.03148l-304.18896 0z" fill-rule="nonzero"></path><path stroke="#000000" stroke-width="2.0" stroke-linejoin="round" stroke-linecap="butt" d="m21.440945 206.59093l304.18896 0l0 208.03148l-304.18896 0z" fill-rule="nonzero"></path><path fill="#000000" fill-opacity="0.0" d="m29.202099 217.94786l288.7874 0l0 181.6378l-288.7874 0z" fill-rule="nonzero"></path><path fill="#000000" d="m54.34579 330.64676l11.812504 -1.0q1.3125 8.625 6.09375 12.96875q4.78125 4.34375 11.53125 4.34375q8.125 0 13.75 -6.125q5.625 -6.125 5.625 -16.25q0 -9.625 -5.40625 -15.1875q-5.40625 -5.5625 -14.15625 -5.5625q-5.4375 0 -9.8125 2.46875q-4.375 2.46875 -6.875 6.40625l-10.562504 -1.375l8.875004 -47.0625l45.5625 0l0 10.75l-36.5625 0l-4.9375 24.625q8.25 -5.75 17.3125 -5.75q12.0 0 20.25 8.3125q8.25 8.3125 8.25 21.375q0 12.4375 -7.25 21.5q-8.8125 11.125 -24.0625 11.125q-12.5 0 -20.406254 -7.0q-7.90625 -7.0 -9.03125 -18.5625zm77.4375 -29.5625l0 -12.8125l12.8125 0l0 12.8125l-12.8125 0zm0 53.5625l0 -12.8125l12.8125 0l0 12.8125l-12.8125 0zm29.3125 -45.1875q0 -16.25 3.34375 -26.15625q3.34375 -9.90625 9.9375 -15.28125q6.59375 -5.375 16.59375 -5.375q7.375 0 12.9375 2.96875q5.5625 2.96875 9.1875 8.5625q3.625 5.59375 5.6875 13.625q2.0625 8.03125 2.0625 21.65625q0 16.125 -3.3125 26.03125q-3.3125 9.90625 -9.90625 15.3125q-6.59375 5.40625 -16.65625 5.40625q-13.25 0 -20.8125 -9.5q-9.0625 -11.4375 -9.0625 -37.25zm11.5625 0q0 22.5625 5.28125 30.03125q5.28125 7.46875 13.03125 7.46875q7.75 0 13.03125 -7.5q5.28125 -7.5 5.28125 -30.0q0 -22.625 -5.28125 -30.0625q-5.28125 -7.4375 -13.15625 -7.4375q-7.75 0 -12.375 6.5625q-5.8125 8.375 -5.8125 30.9375zm59.625 0q0 -16.25 3.34375 -26.15625q3.34375 -9.90625 9.9375 -15.28125q6.59375 -5.375 16.59375 -5.375q7.375 0 12.9375 2.96875q5.5625 2.96875 9.1875 8.5625q3.6249695 5.59375 5.6874695 13.625q2.0625 8.03125 2.0625 21.65625q0 16.125 -3.3125 26.03125q-3.3125 9.90625 -9.9062195 15.3125q-6.59375 5.40625 -16.65625 5.40625q-13.25 0 -20.8125 -9.5q-9.0625 -11.4375 -9.0625 -37.25zm11.5625 0q0 22.5625 5.28125 30.03125q5.28125 7.46875 13.03125 7.46875q7.75 0 13.03125 -7.5q5.28125 -7.5 5.28125 -30.0q0 -22.625 -5.28125 -30.0625q-5.28125 -7.4375 -13.15625 -7.4375q-7.75 0 -12.375 6.5625q-5.8125 8.375 -5.8125 30.9375z" fill-rule="nonzero"></path><path fill="#000000" fill-opacity="0.0" d="m123.68241 133.38058l106.64568 0l0 63.401566l-106.64568 0z" fill-rule="nonzero"></path><path stroke="#000000" stroke-width="16.0" stroke-linejoin="round" stroke-linecap="butt" d="m123.68241 133.38058l106.64568 0l0 63.401566l-106.64568 0z" fill-rule="nonzero"></path><path fill="#000000" fill-opacity="0.0" d="m247.94226 165.08136l0 0c0 -17.507858 15.0672 -31.700775 33.653534 -31.700775l0 0c8.925476 0 17.485382 3.3398895 23.796661 9.284943c6.311249 5.945053 9.856873 14.00827 9.856873 22.415833l0 0c0 17.507858 -15.0672 31.70079 -33.653534 31.70079l0 0c-18.586334 0 -33.653534 -14.192932 -33.653534 -31.70079z" fill-rule="nonzero"></path><path stroke="#000000" stroke-width="2.0" stroke-linejoin="round" stroke-linecap="butt" d="m247.94226 165.08136l0 0c0 -17.507858 15.0672 -31.700775 33.653534 -31.700775l0 0c8.925476 0 17.485382 3.3398895 23.796661 9.284943c6.311249 5.945053 9.856873 14.00827 9.856873 22.415833l0 0c0 17.507858 -15.0672 31.70079 -33.653534 31.70079l0 0c-18.586334 0 -33.653534 -14.192932 -33.653534 -31.70079z" fill-rule="nonzero"></path><path fill="#000000" fill-opacity="0.0" d="m177.00525 8.0l0 113.35433" fill-rule="nonzero"></path><path stroke="#000000" stroke-width="8.0" stroke-linejoin="round" stroke-linecap="butt" d="m177.00525 8.0l0 65.35433" fill-rule="evenodd"></path><path fill="#000000" stroke="#000000" stroke-width="8.0" stroke-linecap="butt" d="m163.7914 73.35433l13.213852 36.30478l13.213867 -36.30478z" fill-rule="evenodd"></path><path fill="#000000" fill-opacity="0.0" d="m131.80315 111.750656l56.346466 0l0 98.3307l-56.346466 0z" fill-rule="nonzero"></path><path fill="#000000" d="m141.2719 182.19066l12.125 -17.25l-11.21875 -15.9375l7.03125 0l5.09375 7.78125q1.4375 2.21875 2.3125 3.71875q1.375 -2.0625 2.53125 -3.65625l5.59375 -7.84375l6.71875 0l-11.46875 15.625l12.34375 17.5625l-6.90625 0l-6.8125 -10.3125l-1.8125 -2.78125l-8.71875 13.09375l-6.8125 0z" fill-rule="nonzero"></path></g></svg>

