<?xml version="1.0" encoding="utf-8"?>
<!-- Generator: Adobe Illustrator 17.0.0, SVG Export Plug-In . SVG Version: 6.00 Build 0)  -->
<!DOCTYPE svg PUBLIC "-//W3C//DTD SVG 1.1//EN" "http://www.w3.org/Graphics/SVG/1.1/DTD/svg11.dtd">
<svg version="1.1" id="Layer_1" xmlns="http://www.w3.org/2000/svg" xmlns:xlink="http://www.w3.org/1999/xlink" x="0px" y="0px"
	 width="800px" height="800px" viewBox="0 0 800 800" enable-background="new 0 0 800 800" xml:space="preserve">
<g>
	<defs>
		<rect id="SVGID_1_" width="800" height="800"/>
	</defs>
	<clipPath id="SVGID_2_">
		<use xlink:href="#SVGID_1_"  overflow="visible"/>
	</clipPath>
	<g clip-path="url(#SVGID_2_)">
		<path fill-opacity="0" d="M0,0h800v800H0V0z"/>
		<path fill="#FFFFFF" d="M-13.793,0h800v799.928h-800V0z"/>
		<path fill-opacity="0" d="M11.675,13.278h774.513v776.251H11.675L11.675,13.278z"/>
		<path fill="none" stroke="#000000" stroke-width="2" stroke-linejoin="round" stroke-miterlimit="10" d="M11.675,13.278h774.513
			v776.251H11.675L11.675,13.278z"/>
		<path fill="#FFFFFF" d="M649.964,93.227L649.964,93.227c0-19.254,16.014-34.863,35.768-34.863l0,0
			c9.486,0,18.584,3.673,25.292,10.211c6.708,6.538,10.476,15.406,10.476,24.652l0,0c0,19.254-16.014,34.863-35.768,34.863l0,0
			C665.978,128.09,649.964,112.482,649.964,93.227z"/>
		<path fill="none" stroke="#000000" stroke-width="2" stroke-linejoin="round" stroke-miterlimit="10" d="M649.964,93.227
			L649.964,93.227c0-19.254,16.014-34.863,35.768-34.863l0,0c9.486,0,18.584,3.673,25.292,10.211
			c6.708,6.538,10.476,15.406,10.476,24.652l0,0c0,19.254-16.014,34.863-35.768,34.863l0,0
			C665.978,128.09,649.964,112.482,649.964,93.227z"/>
		<path d="M79.935,58.367h534.275v155.308H79.935V58.367z"/>
		<path fill="none" stroke="#000000" stroke-width="2" stroke-linejoin="round" stroke-miterlimit="10" d="M79.935,58.367h534.275
			v155.308H79.935V58.367z"/>
		<path fill-opacity="0" d="M79.935,465.099h245.162v103.032H79.935V465.099z"/>
		<path fill="none" stroke="#000000" stroke-linejoin="round" stroke-miterlimit="10" d="M79.935,465.099h245.162v103.032H79.935
			V465.099z"/>
		<path fill-opacity="0" d="M79.935,287.877h245.162v103.032H79.935V287.877z"/>
		<path fill="none" stroke="#000000" stroke-linejoin="round" stroke-miterlimit="10" d="M79.935,287.877h245.162v103.032H79.935
			V287.877z"/>
		<path fill-opacity="0" d="M79.935,622.078h245.162V725.11H79.935V622.078z"/>
		<path fill="none" stroke="#000000" stroke-linejoin="round" stroke-miterlimit="10" d="M79.935,622.078h245.162V725.11H79.935
			V622.078z"/>
		<path fill-opacity="0" d="M361.855,465.099h245.162v103.032H361.855V465.099z"/>
		<path fill="none" stroke="#000000" stroke-linejoin="round" stroke-miterlimit="10" d="M361.855,465.099h245.162v103.032H361.855
			V465.099z"/>
		<path fill-opacity="0" d="M361.855,287.877h245.162v103.032H361.855V287.877z"/>
		<path fill="none" stroke="#000000" stroke-linejoin="round" stroke-miterlimit="10" d="M361.855,287.877h245.162v103.032H361.855
			V287.877z"/>
		<path fill-opacity="0" d="M361.855,622.078h245.162V725.11H361.855V622.078z"/>
		<path fill="none" stroke="#000000" stroke-linejoin="round" stroke-miterlimit="10" d="M361.855,622.078h245.162V725.11H361.855
			V622.078z"/>
		<path d="M637.844,244.559h121.061v480.55H637.844V244.559z"/>
		<path fill="none" stroke="#000000" stroke-width="2" stroke-linejoin="round" stroke-miterlimit="10" d="M637.844,244.559h121.061
			v480.55H637.844V244.559z"/>
		<path fill="#FFFFFF" d="M666.805,563.478h63.137v37.868h-63.137V563.478z"/>
		<path fill="none" stroke="#000000" stroke-width="2" stroke-linejoin="round" stroke-miterlimit="10" d="M666.805,563.478h63.137
			v37.868h-63.137V563.478z"/>
		<path fill="#FFFFFF" d="M666.805,480.237h63.137v37.868h-63.137V480.237z"/>
		<path fill="none" stroke="#000000" stroke-width="2" stroke-linejoin="round" stroke-miterlimit="10" d="M666.805,480.237h63.137
			v37.868h-63.137V480.237z"/>
		<path fill="#FFFFFF" d="M666.805,646.719h63.137v37.868h-63.137V646.719z"/>
		<path fill="none" stroke="#000000" stroke-width="2" stroke-linejoin="round" stroke-miterlimit="10" d="M666.805,646.719h63.137
			v37.868h-63.137V646.719z"/>
	</g>
</g>
<g>
	<path d="M111.554,361.443v-41.155h8.723v3.274h-4.768v34.607h4.768v3.274H111.554z"/>
	<path d="M144.359,352.5v-28.411h-10.613v-3.801h25.532v3.801h-10.657V352.5H144.359z"/>
	<path d="M163.739,352.5v-32.212h23.291v3.801h-19.028v9.866h17.82v3.779h-17.82v10.964h19.775v3.801H163.739z"/>
	<path d="M190.392,352.5l12.458-16.787l-10.986-15.425h5.076l5.845,8.262c1.216,1.714,2.08,3.032,2.593,3.955
		c0.718-1.172,1.567-2.395,2.549-3.669l6.482-8.547h4.636l-11.316,15.183l12.195,17.029h-5.273l-8.108-11.492
		c-0.454-0.659-0.923-1.377-1.406-2.153c-0.718,1.172-1.23,1.978-1.538,2.417l-8.086,11.228H190.392z"/>
	<path d="M231.876,352.5v-28.411h-10.613v-3.801h25.532v3.801h-10.657V352.5H231.876z"/>
	<path d="M251.256,352.5v-32.212h23.291v3.801h-19.028v9.866h17.82v3.779h-17.82v10.964h19.775v3.801H251.256z"/>
	<path d="M299.794,361.443h-8.723v-3.274h4.768v-34.607h-4.768v-3.274h8.723V361.443z"/>
</g>
<g>
	<path d="M111.554,541.443v-41.155h8.723v3.274h-4.768v34.606h4.768v3.274H111.554z"/>
	<path d="M144.359,532.5v-28.41h-10.613v-3.802h25.532v3.802h-10.657v28.41H144.359z"/>
	<path d="M163.739,532.5v-32.212h23.291v3.802h-19.028v9.865h17.82v3.779h-17.82v10.965h19.775v3.801H163.739z"/>
	<path d="M190.392,532.5l12.458-16.787l-10.986-15.425h5.076l5.845,8.262c1.216,1.714,2.08,3.032,2.593,3.955
		c0.718-1.172,1.567-2.396,2.549-3.669l6.482-8.548h4.636l-11.316,15.183l12.195,17.029h-5.273l-8.108-11.492
		c-0.454-0.658-0.923-1.377-1.406-2.152c-0.718,1.172-1.23,1.977-1.538,2.416l-8.086,11.229H190.392z"/>
	<path d="M231.876,532.5v-28.41h-10.613v-3.802h25.532v3.802h-10.657v28.41H231.876z"/>
	<path d="M251.256,532.5v-32.212h23.291v3.802h-19.028v9.865h17.82v3.779h-17.82v10.965h19.775v3.801H251.256z"/>
	<path d="M299.794,541.443h-8.723v-3.274h4.768v-34.606h-4.768v-3.274h8.723V541.443z"/>
</g>
<g>
	<path d="M111.554,694.443v-41.155h8.723v3.274h-4.768v34.606h4.768v3.274H111.554z"/>
	<path d="M144.359,685.5v-28.41h-10.613v-3.802h25.532v3.802h-10.657v28.41H144.359z"/>
	<path d="M163.739,685.5v-32.212h23.291v3.802h-19.028v9.865h17.82v3.779h-17.82v10.965h19.775v3.801H163.739z"/>
	<path d="M190.392,685.5l12.458-16.787l-10.986-15.425h5.076l5.845,8.262c1.216,1.714,2.08,3.032,2.593,3.955
		c0.718-1.172,1.567-2.396,2.549-3.669l6.482-8.548h4.636l-11.316,15.183l12.195,17.029h-5.273l-8.108-11.492
		c-0.454-0.658-0.923-1.377-1.406-2.152c-0.718,1.172-1.23,1.977-1.538,2.416l-8.086,11.229H190.392z"/>
	<path d="M231.876,685.5v-28.41h-10.613v-3.802h25.532v3.802h-10.657v28.41H231.876z"/>
	<path d="M251.256,685.5v-32.212h23.291v3.802h-19.028v9.865h17.82v3.779h-17.82v10.965h19.775v3.801H251.256z"/>
	<path d="M299.794,694.443h-8.723v-3.274h4.768v-34.606h-4.768v-3.274h8.723V694.443z"/>
</g>
<g>
	<path d="M391.554,694.443v-41.155h8.723v3.274h-4.768v34.606h4.768v3.274H391.554z"/>
	<path d="M424.359,685.5v-28.41h-10.613v-3.802h25.533v3.802h-10.657v28.41H424.359z"/>
	<path d="M443.739,685.5v-32.212h23.291v3.802h-19.028v9.865h17.82v3.779h-17.82v10.965h19.775v3.801H443.739z"/>
	<path d="M470.393,685.5l12.458-16.787l-10.986-15.425h5.075l5.846,8.262c1.215,1.714,2.08,3.032,2.592,3.955
		c0.719-1.172,1.568-2.396,2.549-3.669l6.482-8.548h4.637l-11.316,15.183l12.195,17.029h-5.273l-8.108-11.492
		c-0.454-0.658-0.923-1.377-1.406-2.152c-0.718,1.172-1.23,1.977-1.538,2.416l-8.086,11.229H470.393z"/>
	<path d="M511.877,685.5v-28.41h-10.613v-3.802h25.532v3.802h-10.657v28.41H511.877z"/>
	<path d="M531.256,685.5v-32.212h23.291v3.802H535.52v9.865h17.819v3.779H535.52v10.965h19.775v3.801H531.256z"/>
	<path d="M579.794,694.443h-8.724v-3.274h4.769v-34.606h-4.769v-3.274h8.724V694.443z"/>
</g>
<g>
	<path d="M391.554,541.443v-41.155h8.723v3.274h-4.768v34.606h4.768v3.274H391.554z"/>
	<path d="M424.359,532.5v-28.41h-10.613v-3.802h25.533v3.802h-10.657v28.41H424.359z"/>
	<path d="M443.739,532.5v-32.212h23.291v3.802h-19.028v9.865h17.82v3.779h-17.82v10.965h19.775v3.801H443.739z"/>
	<path d="M470.393,532.5l12.458-16.787l-10.986-15.425h5.075l5.846,8.262c1.215,1.714,2.08,3.032,2.592,3.955
		c0.719-1.172,1.568-2.396,2.549-3.669l6.482-8.548h4.637l-11.316,15.183l12.195,17.029h-5.273l-8.108-11.492
		c-0.454-0.658-0.923-1.377-1.406-2.152c-0.718,1.172-1.23,1.977-1.538,2.416l-8.086,11.229H470.393z"/>
	<path d="M511.877,532.5v-28.41h-10.613v-3.802h25.532v3.802h-10.657v28.41H511.877z"/>
	<path d="M531.256,532.5v-32.212h23.291v3.802H535.52v9.865h17.819v3.779H535.52v10.965h19.775v3.801H531.256z"/>
	<path d="M579.794,541.443h-8.724v-3.274h4.769v-34.606h-4.769v-3.274h8.724V541.443z"/>
</g>
<g>
	<path d="M391.554,361.443v-41.155h8.723v3.274h-4.768v34.607h4.768v3.274H391.554z"/>
	<path d="M424.359,352.5v-28.411h-10.613v-3.801h25.533v3.801h-10.657V352.5H424.359z"/>
	<path d="M443.739,352.5v-32.212h23.291v3.801h-19.028v9.866h17.82v3.779h-17.82v10.964h19.775v3.801H443.739z"/>
	<path d="M470.393,352.5l12.458-16.787l-10.986-15.425h5.075l5.846,8.262c1.215,1.714,2.08,3.032,2.592,3.955
		c0.719-1.172,1.568-2.395,2.549-3.669l6.482-8.547h4.637l-11.316,15.183l12.195,17.029h-5.273l-8.108-11.492
		c-0.454-0.659-0.923-1.377-1.406-2.153c-0.718,1.172-1.23,1.978-1.538,2.417l-8.086,11.228H470.393z"/>
	<path d="M511.877,352.5v-28.411h-10.613v-3.801h25.532v3.801h-10.657V352.5H511.877z"/>
	<path d="M531.256,352.5v-32.212h23.291v3.801H535.52v9.866h17.819v3.779H535.52v10.964h19.775v3.801H531.256z"/>
	<path d="M579.794,361.443h-8.724v-3.274h4.769v-34.607h-4.769v-3.274h8.724V361.443z"/>
</g>
<g>
	<path fill="#FFFFFF" d="M165.548,175.799v-74.993h15.896v5.966h-8.688v63.062h8.688v5.966H165.548z"/>
	<path fill="#FFFFFF" d="M212.033,159.503v-58.697h42.441v6.927h-34.674v17.978h32.472v6.887h-32.472v19.979h36.035v6.927H212.033z
		 M228.049,97.202l5.325-11.211h9.449l-8.809,11.211H228.049z"/>
	<path fill="#FFFFFF" d="M308.447,138.923l7.768,1.962c-1.628,6.38-4.558,11.245-8.789,14.594c-4.231,3.35-9.403,5.025-15.515,5.025
		c-6.326,0-11.471-1.288-15.435-3.864c-3.964-2.576-6.98-6.306-9.049-11.191c-2.069-4.885-3.103-10.13-3.103-15.735
		c0-6.112,1.167-11.444,3.503-15.996c2.335-4.551,5.659-8.008,9.97-10.37c4.311-2.362,9.055-3.543,14.234-3.543
		c5.872,0,10.811,1.495,14.814,4.484c4.004,2.99,6.793,7.194,8.368,12.612l-7.647,1.802c-1.361-4.271-3.337-7.38-5.926-9.329
		c-2.589-1.948-5.846-2.923-9.77-2.923c-4.511,0-8.282,1.081-11.311,3.243c-3.03,2.162-5.159,5.065-6.386,8.708
		c-1.228,3.644-1.842,7.401-1.842,11.271c0,4.992,0.727,9.349,2.182,13.073c1.455,3.724,3.717,6.506,6.787,8.348
		c3.069,1.842,6.393,2.763,9.97,2.763c4.351,0,8.034-1.254,11.051-3.764C305.337,147.585,307.379,143.861,308.447,138.923z"/>
	<path fill="#FFFFFF" d="M325.904,159.503v-58.697h26.025c5.231,0,9.209,0.527,11.932,1.582c2.723,1.055,4.898,2.917,6.526,5.585
		c1.628,2.669,2.442,5.619,2.442,8.849c0,4.164-1.348,7.674-4.044,10.53c-2.696,2.856-6.86,4.671-12.492,5.445
		c2.055,0.988,3.617,1.962,4.685,2.923c2.269,2.082,4.417,4.685,6.446,7.808l10.21,15.976h-9.77l-7.768-12.212
		c-2.269-3.523-4.138-6.219-5.605-8.088c-1.468-1.868-2.783-3.176-3.944-3.924c-1.161-0.747-2.342-1.268-3.543-1.562
		c-0.881-0.187-2.322-0.28-4.324-0.28h-9.009v26.065H325.904z M333.672,126.711h16.696c3.55,0,6.326-0.367,8.328-1.101
		c2.002-0.734,3.523-1.908,4.564-3.523c1.041-1.615,1.562-3.37,1.562-5.265c0-2.776-1.008-5.058-3.023-6.847
		c-2.016-1.788-5.199-2.683-9.549-2.683h-18.578V126.711z"/>
	<path fill="#FFFFFF" d="M378.556,159.503l22.542-58.697h8.368l24.023,58.697h-8.849l-6.847-17.777H393.25l-6.446,17.777H378.556z
		 M395.492,135.399h19.899l-6.126-16.256c-1.868-4.938-3.257-8.995-4.164-12.172c-0.747,3.764-1.802,7.501-3.163,11.211
		L395.492,135.399z"/>
	<path fill="#FFFFFF" d="M439.615,159.503v-58.697h7.968l30.83,46.085v-46.085h7.447v58.697h-7.968l-30.83-46.125v46.125H439.615z"
		/>
	<path fill="#FFFFFF" d="M532.826,175.799h-15.896v-5.966h8.688v-63.062h-8.688v-5.966h15.896V175.799z"/>
</g>
</svg>
