<?xml version="1.0" standalone="yes"?>

<svg version="1.1" viewBox="0.0 0.0 348.0 348.0" fill="none" stroke="none" stroke-linecap="square" stroke-miterlimit="10" xmlns="http://www.w3.org/2000/svg" xmlns:xlink="http://www.w3.org/1999/xlink"><clipPath id="p.0"><path d="m0 0l348.0 0l0 348.0l-348.0 0l0 -348.0z" clip-rule="nonzero"></path></clipPath><g clip-path="url(#p.0)"><path fill="#000000" fill-opacity="0.0" d="m0 0l348.0 0l0 348.0l-348.0 0z" fill-rule="nonzero"></path><path fill="#ffffff" d="m-6.0 0l348.0 0l0 347.9685l-348.0 0z" fill-rule="nonzero"></path><path fill="#000000" fill-opacity="0.0" d="m68.950134 75.845146l196.37796 0l0 201.00787l-196.37796 0z" fill-rule="nonzero"></path><path stroke="#000000" stroke-width="2.0" stroke-linejoin="round" stroke-linecap="butt" d="m68.950134 75.845146l196.37796 0l0 201.00787l-196.37796 0z" fill-rule="nonzero"></path><path fill="#000000" fill-opacity="0.0" d="m66.92126 67.16798l42.992126 0l0 63.086617l-42.992126 0z" fill-rule="nonzero"></path><path fill="#000000" d="m90.82751 114.56798l-3.515625 0l0 -22.40625q-1.265625 1.21875 -3.328125 2.4375q-2.0625 1.203125 -3.703125 1.796875l0 -3.390625q2.953125 -1.390625 5.15625 -3.359375q2.203125 -1.96875 3.125 -3.828125l2.265625 0l0 28.75z" fill-rule="nonzero"></path><path fill="#000000" fill-opacity="0.0" d="m66.92126 136.80315l42.992126 0l0 63.08661l-42.992126 0z" fill-rule="nonzero"></path><path fill="#000000" d="m96.06188 180.82814l0 3.375l-18.921875 0q-0.046875 -1.265625 0.40625 -2.4375q0.71875 -1.9375 2.3125 -3.8125q1.59375 -1.875 4.59375 -4.34375q4.671875 -3.828125 6.3125 -6.0625q1.640625 -2.234375 1.640625 -4.21875q0 -2.09375 -1.5 -3.53125q-1.484375 -1.4375 -3.890625 -1.4375q-2.53125 0 -4.0625 1.53125q-1.515625 1.515625 -1.546875 4.21875l-3.609375 -0.375q0.375 -4.046875 2.796875 -6.15625q2.421875 -2.125 6.5 -2.125q4.125 0 6.515625 2.28125q2.40625 2.28125 2.40625 5.671875q0 1.71875 -0.703125 3.375q-0.703125 1.65625 -2.328125 3.5q-1.625 1.828125 -5.421875 5.03125q-3.15625 2.65625 -4.0625 3.609375q-0.890625 0.9375 -1.484375 1.90625l14.046875 0z" fill-rule="nonzero"></path><path fill="#000000" fill-opacity="0.0" d="m66.92126 208.18636l42.992126 0l0 63.086594l-42.992126 0z" fill-rule="nonzero"></path><path fill="#000000" d="m77.60876 248.02385l3.515625 -0.46875q0.59375 2.984375 2.046875 4.3125q1.46875 1.3125 3.546875 1.3125q2.484375 0 4.1875 -1.71875q1.71875 -1.71875 1.71875 -4.25q0 -2.421875 -1.59375 -4.0q-1.578125 -1.578125 -4.015625 -1.578125q-1.0 0 -2.484375 0.390625l0.390625 -3.078125q0.359375 0.03125 0.578125 0.03125q2.234375 0 4.03125 -1.171875q1.796875 -1.171875 1.796875 -3.609375q0 -1.9375 -1.3125 -3.203125q-1.296875 -1.265625 -3.375 -1.265625q-2.046875 0 -3.421875 1.296875q-1.359375 1.28125 -1.75 3.859375l-3.515625 -0.625q0.640625 -3.53125 2.921875 -5.46875q2.296875 -1.953125 5.6875 -1.953125q2.34375 0 4.3125 1.015625q1.984375 1.0 3.03125 2.734375q1.046875 1.734375 1.046875 3.6875q0 1.859375 -1.0 3.390625q-1.0 1.515625 -2.953125 2.40625q2.546875 0.59375 3.953125 2.4375q1.40625 1.84375 1.40625 4.625q0 3.75 -2.734375 6.359375q-2.734375 2.6093597 -6.921875 2.6093597q-3.765625 0 -6.265625 -2.2499847q-2.484375 -2.25 -2.828125 -5.828125z" fill-rule="nonzero"></path><path fill="#000000" fill-opacity="0.0" d="m219.3622 67.16798l42.99214 0l0 63.086617l-42.99214 0z" fill-rule="nonzero"></path><path fill="#000000" d="m228.2997 114.56798l11.0 -28.640625l4.078125 0l11.71875 28.640625l-4.3125 0l-3.34375 -8.671875l-11.96875 0l-3.140625 8.671875l-4.03125 0zm8.265625 -11.765625l9.703125 0l-2.984375 -7.921875q-1.359375 -3.609375 -2.03125 -5.9375q-0.546875 2.75 -1.546875 5.46875l-3.140625 8.390625z" fill-rule="nonzero"></path><path fill="#000000" fill-opacity="0.0" d="m219.3622 136.80315l42.99214 0l0 63.08661l-42.99214 0z" fill-rule="nonzero"></path><path fill="#000000" d="m231.2997 184.20314l0 -28.640625l10.734375 0q3.28125 0 5.265625 0.875q1.984375 0.875 3.109375 2.6875q1.125 1.796875 1.125 3.765625q0 1.84375 -1.0 3.46875q-1.0 1.609375 -3.015625 2.609375q2.609375 0.765625 4.0 2.609375q1.390625 1.828125 1.390625 4.328125q0 2.0 -0.84375 3.734375q-0.84375 1.734375 -2.09375 2.671875q-1.25 0.9375 -3.140625 1.421875q-1.890625 0.46875 -4.625 0.46875l-10.90625 0zm3.78125 -16.609375l6.1875 0q2.53125 0 3.625 -0.328125q1.4375 -0.421875 2.171875 -1.421875q0.734375 -1.0 0.734375 -2.5q0 -1.421875 -0.6875 -2.5q-0.6875 -1.09375 -1.953125 -1.484375q-1.265625 -0.40625 -4.359375 -0.40625l-5.71875 0l0 8.640625zm0 13.234375l7.125 0q1.84375 0 2.578125 -0.140625q1.3125 -0.234375 2.1875 -0.78125q0.890625 -0.546875 1.453125 -1.59375q0.5625 -1.046875 0.5625 -2.40625q0 -1.609375 -0.828125 -2.78125q-0.8125 -1.1875 -2.265625 -1.65625q-1.453125 -0.484375 -4.1875 -0.484375l-6.625 0l0 9.84375z" fill-rule="nonzero"></path><path fill="#000000" fill-opacity="0.0" d="m219.3622 208.18636l42.99214 0l0 63.086594l-42.99214 0z" fill-rule="nonzero"></path><path fill="#000000" d="m251.87782 245.53947l3.796875 0.96875q-1.203125 4.65625 -4.296875 7.109375q-3.09375 2.4531097 -7.5625 2.4531097q-4.625 0 -7.53125 -1.8749847q-2.90625 -1.890625 -4.421875 -5.46875q-1.5 -3.578125 -1.5 -7.671875q0 -4.46875 1.703125 -7.796875q1.703125 -3.34375 4.859375 -5.0625q3.15625 -1.734375 6.953125 -1.734375q4.296875 0 7.21875 2.1875q2.9375 2.1875 4.078125 6.15625l-3.71875 0.875q-1.0 -3.125 -2.90625 -4.546875q-1.890625 -1.421875 -4.75 -1.421875q-3.3125 0 -5.53125 1.578125q-2.203125 1.578125 -3.109375 4.25q-0.890625 2.65625 -0.890625 5.5q0 3.640625 1.0625 6.375q1.0625 2.71875 3.296875 4.078125q2.25 1.34375 4.875 1.34375q3.1875 0 5.390625 -1.828125q2.203125 -1.84375 2.984375 -5.46875z" fill-rule="nonzero"></path><path fill="#000000" fill-opacity="0.0" d="m5.07874 5.7758217l336.9134 0l0 337.6693l-336.9134 0z" fill-rule="nonzero"></path><path stroke="#000000" stroke-width="2.0" stroke-linejoin="round" stroke-linecap="butt" d="m5.07874 5.7758217l336.9134 0l0 337.6693l-336.9134 0z" fill-rule="nonzero"></path><path fill="#ffffff" d="m282.73444 40.553925l0 0c0 -8.375591 6.966034 -15.165352 15.5590515 -15.165352l0 0c4.126526 0 8.084015 1.5977726 11.001923 4.441828c2.9178772 2.844057 4.557129 6.7014217 4.557129 10.723524l0 0c0 8.375595 -6.9660034 15.165356 -15.5590515 15.165356l0 0c-8.593018 0 -15.5590515 -6.7897606 -15.5590515 -15.165356z" fill-rule="nonzero"></path><path stroke="#000000" stroke-width="2.0" stroke-linejoin="round" stroke-linecap="butt" d="m282.73444 40.553925l0 0c0 -8.375591 6.966034 -15.165352 15.5590515 -15.165352l0 0c4.126526 0 8.084015 1.5977726 11.001923 4.441828c2.9178772 2.844057 4.557129 6.7014217 4.557129 10.723524l0 0c0 8.375595 -6.9660034 15.165356 -15.5590515 15.165356l0 0c-8.593018 0 -15.5590515 -6.7897606 -15.5590515 -15.165356z" fill-rule="nonzero"></path><path fill="#000000" fill-opacity="0.0" d="m127.708664 25.577427l91.65355 0l0 38.141735l-91.65355 0z" fill-rule="nonzero"></path><path stroke="#000000" stroke-width="2.0" stroke-linejoin="round" stroke-linecap="butt" d="m127.708664 25.577427l91.65355 0l0 38.141735l-91.65355 0z" fill-rule="nonzero"></path><path fill="#000000" d="m157.11023 44.648296l16.425201 -10.015751l16.425201 10.015751l-8.212601 0l0 10.015747l-16.425201 0l0 -10.015747z" fill-rule="nonzero"></path><path fill="#000000" fill-opacity="0.0" d="m128.17323 289.2152l91.653534 0l0 38.141754l-91.653534 0z" fill-rule="nonzero"></path><path stroke="#000000" stroke-width="2.0" stroke-linejoin="round" stroke-linecap="butt" d="m128.17323 289.2152l91.653534 0l0 38.141754l-91.653534 0z" fill-rule="nonzero"></path><path fill="#000000" d="m190.4252 308.2861l-16.425201 10.015747l-16.425201 -10.015747l8.212601 0l0 -10.015747l16.425201 0l0 10.015747z" fill-rule="nonzero"></path><path fill="#000000" fill-opacity="0.0" d="m115.55118 101.031494l105.88977 141.10237" fill-rule="nonzero"></path><path stroke="#000000" stroke-width="2.0" stroke-linejoin="round" stroke-linecap="butt" d="m115.55118 101.031494l105.88977 141.10237" fill-rule="nonzero"></path><path fill="#000000" fill-opacity="0.0" d="m112.31233 170.79527l109.133865 -73.448814" fill-rule="nonzero"></path><path stroke="#000000" stroke-width="2.0" stroke-linejoin="round" stroke-linecap="butt" d="m112.31233 170.79527l109.133865 -73.448814" fill-rule="nonzero"></path><path fill="#000000" fill-opacity="0.0" d="m109.91338 239.72966l111.937004 -70.58267" fill-rule="nonzero"></path><path stroke="#000000" stroke-width="2.0" stroke-linejoin="round" stroke-linecap="butt" d="m109.91338 239.72966l111.937004 -70.58267" fill-rule="nonzero"></path><path fill="#000000" fill-opacity="0.0" d="m116.81102 101.80315l-6.0787354 4.062996" fill-rule="nonzero"></path><path stroke="#000000" stroke-width="2.0" stroke-linejoin="round" stroke-linecap="butt" d="m116.81102 101.80315l-6.0787354 4.062996" fill-rule="nonzero"></path><path fill="#000000" fill-opacity="0.0" d="m220.23885 96.937004l8.094482 7.6850433" fill-rule="nonzero"></path><path stroke="#000000" stroke-width="2.0" stroke-linejoin="round" stroke-linecap="butt" d="m220.23885 96.937004l8.094482 7.6850433" fill-rule="nonzero"></path><path fill="#000000" fill-opacity="0.0" d="m113.56693 169.94489l-6.078743 8.913376" fill-rule="nonzero"></path><path stroke="#000000" stroke-width="2.0" stroke-linejoin="round" stroke-linecap="butt" d="m113.56693 169.94489l-6.078743 8.913376" fill-rule="nonzero"></path><path fill="#000000" fill-opacity="0.0" d="m110.727036 238.08398l-2.2362213 8.409454" fill-rule="nonzero"></path><path stroke="#000000" stroke-width="2.0" stroke-linejoin="round" stroke-linecap="butt" d="m110.727036 238.08398l-2.2362213 8.409454" fill-rule="nonzero"></path><path fill="#000000" fill-opacity="0.0" d="m221.45407 241.73491l4.4724426 1.6377869" fill-rule="nonzero"></path><path stroke="#000000" stroke-width="2.0" stroke-linejoin="round" stroke-linecap="butt" d="m221.45407 241.73491l4.4724426 1.6377869" fill-rule="nonzero"></path><path fill="#000000" fill-opacity="0.0" d="m220.64305 169.53806l6.4881897 6.0787354" fill-rule="nonzero"></path><path stroke="#000000" stroke-width="2.0" stroke-linejoin="round" stroke-linecap="butt" d="m220.64305 169.53806l6.4881897 6.0787354" fill-rule="nonzero"></path><path fill="#000000" d="m276.51968 75.845146l52.661407 0l0 253.48029l-52.661407 0z" fill-rule="nonzero"></path><path stroke="#000000" stroke-width="2.0" stroke-linejoin="round" stroke-linecap="butt" d="m276.51968 75.845146l52.661407 0l0 253.48029l-52.661407 0z" fill-rule="nonzero"></path><path fill="#ffffff" d="m289.1181 259.021l27.46457 0l0 16.472443l-27.46457 0z" fill-rule="nonzero"></path><path stroke="#000000" stroke-width="2.0" stroke-linejoin="round" stroke-linecap="butt" d="m289.1181 259.021l27.46457 0l0 16.472443l-27.46457 0z" fill-rule="nonzero"></path><path fill="#ffffff" d="m289.1181 222.81102l27.46457 0l0 16.472443l-27.46457 0z" fill-rule="nonzero"></path><path stroke="#000000" stroke-width="2.0" stroke-linejoin="round" stroke-linecap="butt" d="m289.1181 222.81102l27.46457 0l0 16.472443l-27.46457 0z" fill-rule="nonzero"></path><path fill="#ffffff" d="m289.1181 295.23096l27.46457 0l0 16.472443l-27.46457 0z" fill-rule="nonzero"></path><path stroke="#000000" stroke-width="2.0" stroke-linejoin="round" stroke-linecap="butt" d="m289.1181 295.23096l27.46457 0l0 16.472443l-27.46457 0z" fill-rule="nonzero"></path></g></svg>

